<?xml version="1.0" encoding="UTF-8" standalone="no"?>
<!DOCTYPE svg  PUBLIC '-//W3C//DTD SVG 1.1//EN'  'http://www.w3.org/Graphics/SVG/1.1/DTD/svg11.dtd'>
<svg xmlns="http://www.w3.org/2000/svg" version="1.1">
<defs>
<font id="TideSans-100LilBunnyItalic" horiz-adv-x="739">
<font-face x-height="534" panose-1="0 0 3 0 0 0 0 0 0 0" underline-position="-100" units-per-em="1000" slope="-6" bbox="-141 -228.148 1081.68 976" cap-height="700" font-style="italic" font-family="s" unicode-range="U+0020-2074" descent="-231" ascent="769" font-weight="400" underline-thickness="50"/>
<missing-glyph/>
<glyph horiz-adv-x="390" glyph-name="space" unicode=" "/>
<glyph d="M178 119h-18l59 585h23zM157 42q9 0 15 -6.5t5 -15.5q-1 -10 -8.5 -16t-15.5 -6q-9 0 -15 6.5t-5 15.5t7.5 15.5t16.5 6.5z" horiz-adv-x="323" glyph-name="exclam" unicode="!"/>
<glyph d="M155 729l-4 -36l-10 -40h-11l-2 40l4 36h23zM207 729l-4 -36l-10 -40h-11l-2 40l4 36h23z" horiz-adv-x="185" glyph-name="quotedbl" unicode='&quot;'/>
<glyph d="M602 437l-54 -236h185l-2 -21h-188l-41 -180h-20l41 180h-248l-41 -180h-20l41 180h-165l2 21h168l54 236h-167l2 20h170l42 184h20l-42 -184h248l42 184h20l-42 -184h183l-2 -20h-186zM582 437h-248l-54 -236h248z" horiz-adv-x="812" glyph-name="numbersign" unicode="#"/>
<glyph d="M385 576q-75 0 -126 -31.5t-61 -87.5q-14 -64 58 -88q25 -8 92 -18q85 -13 130 -42t34 -89q-13 -68 -74 -101.5t-139 -34.5h-9l-18 -64l-19 4l16 61q-95 9 -181 66l11 18q96 -66 204 -65q70 2 123.5 30t64.5 85q5 24 -2 42.5t-18.5 29t-37 19.5t-42.5 12.5t-51 9.5 q-95 15 -123 31q-50 28 -39 94q9 62 65 101t145 38l14 -1l17 65l20 -2l-18 -64q60 -8 132 -44l-9 -18q-88 44 -159 44z" horiz-adv-x="570" glyph-name="dollar" unicode="$"/>
<glyph d="M309 711q61 0 99.5 -42.5t32.5 -104.5t-52 -105t-108 -43t-102 43t-33 105t54.5 104.5t108.5 42.5zM180 0h-25l528 700h26zM308 691q-54 0 -95 -37t-47 -90q-6 -52 27.5 -90t87.5 -38q53 0 94 37t46 91q5 55 -27.5 91t-85.5 36zM599 285q61 0 99.5 -42.5t32.5 -104.5 t-52 -105t-108 -43t-102 43t-33 105t54.5 104.5t108.5 42.5zM598 265q-54 0 -95 -37t-47 -90q-6 -52 27.5 -90t87.5 -38q53 0 94 37t46 91q5 55 -27.5 91t-85.5 36z" horiz-adv-x="769" glyph-name="percent" unicode="%"/>
<glyph d="M727 0l-100 113q-55 -71 -131.5 -112t-165.5 -41q-105 0 -173 56t-58 154q3 29 14 54.5t25 44.5t38 36.5t43 28.5t52 24t53 20t56 18l-24 27q-67 78 -60 149q7 65 58.5 108.5t128.5 43.5q72 0 115.5 -45.5t37.5 -112.5q-3 -30 -17 -55.5t-33 -42.5t-49.5 -33t-57 -26 t-65.5 -22l212 -242q58 83 75 178h20q-20 -104 -81 -193l114 -130h-27zM373 434l27 -31q39 12 64 21t55.5 24t48.5 30.5t31.5 38t16.5 49.5q5 56 -32.5 97t-103.5 41t-112 -38.5t-52 -92.5q-8 -66 57 -139zM330 -20q85 0 158 40.5t126 108.5l-221 251q-39 -12 -55.5 -17.5 t-51 -18.5t-51 -23t-41.5 -26.5t-37.5 -34t-23.5 -41t-14 -51.5q-9 -87 53 -137.5t158 -50.5z" horiz-adv-x="808" glyph-name="ampersand" unicode="&amp;"/>
<glyph d="M155 729l-4 -36l-10 -40h-11l-2 40l4 36h23z" horiz-adv-x="133" glyph-name="quotesingle" unicode="&apos;"/>
<glyph d="M301 778l16 -11q-148 -243 -173 -472q-24 -231 77 -476l-18 -11q-52 128 -72 244.5t-7 242.5q25 238 177 483z" horiz-adv-x="377" glyph-name="parenleft" unicode="("/>
<glyph d="M131 -192l-16 11q148 243 173 472q24 231 -77 476l18 11q52 -128 72 -244.5t7 -242.5q-25 -238 -177 -483z" horiz-adv-x="357" glyph-name="parenright" unicode=")"/>
<glyph d="M318 630l75 -122l-19 -11l-73 119l-88 -116l-16 11l91 120l-127 29l6 20l129 -29l16 133h20l-17 -133l135 25l3 -18z" horiz-adv-x="474" glyph-name="asterisk" unicode="*"/>
<glyph d="M398 359h222l-2 -20h-222l-26 -244h-21l26 244h-218l1 20h219l25 244h21z" horiz-adv-x="702" glyph-name="plus" unicode="+"/>
<glyph d="M106 43q12 0 20.5 -9t7.5 -25q-2 -21 -17.5 -38t-40.5 -24v20q24 9 27 33q-10 -1 -16.5 5.5t-5.5 16.5q2 21 25 21z" horiz-adv-x="212" glyph-name="comma" unicode=","/>
<glyph d="M385 335h-305l2 20h305z" horiz-adv-x="395" glyph-name="hyphen" unicode="-"/>
<glyph d="M108 43q10 0 15.5 -6.5t4.5 -16.5t-9 -16.5t-16 -6.5q-9 0 -15.5 6.5t-5.5 16.5t8.5 16.5t17.5 6.5z" horiz-adv-x="204" glyph-name="period" unicode="."/>
<glyph d="M87 -83l-21 -1l337 845h21z" horiz-adv-x="417" glyph-name="slash" unicode="/"/>
<glyph d="M456 710q39 0 76 -11t74 -37.5t63 -66.5t38.5 -103.5t4.5 -141.5q-10 -100 -46 -174t-85.5 -113t-100 -57t-100.5 -18q-40 0 -78 11t-74.5 37.5t-61.5 66.5t-37 104t-3 144t34.5 143.5t59.5 103t76.5 65.5t82 36.5t77.5 10.5zM454 690q-35 0 -70.5 -9t-75.5 -33.5 t-72.5 -61t-57 -97.5t-32.5 -137q-10 -95 8.5 -166t56.5 -107.5t81 -53.5t90 -17q36 0 72.5 9.5t76 34t72 61.5t57 98t32.5 138t-4 138t-36 98t-59 61.5t-69.5 34t-69.5 9.5z" horiz-adv-x="746" glyph-name="zero" unicode="0"/>
<glyph d="M178 0h-20l71 673l-78 -50l-9 18l91 59h19z" horiz-adv-x="328" glyph-name="one" unicode="1"/>
<glyph d="M413 709q101 0 159.5 -60.5t50.5 -148.5q-6 -65 -46 -117.5t-111 -104.5l-359 -258h500l-2 -20h-537l2 18l384 276q139 100 148 205q7 82 -44.5 136t-143.5 54q-78 0 -140.5 -41.5t-99.5 -117.5l-18 10q41 80 107 124.5t150 44.5z" horiz-adv-x="678" glyph-name="two" unicode="2"/>
<glyph d="M394 708q103 0 163 -52t52 -131q-7 -67 -58.5 -108.5t-112.5 -48.5q74 -8 125.5 -58.5t43.5 -126.5q-9 -87 -87 -138.5t-185 -51.5q-138 0 -259 88l11 17q113 -85 248 -85q98 0 171 46.5t81 122.5q8 74 -50.5 125t-158.5 51h-111l2 20h111q86 0 143.5 40.5t65.5 105.5 q8 69 -45.5 116.5t-149.5 47.5q-107 0 -212 -62l-9 17q109 65 221 65z" horiz-adv-x="673" glyph-name="three" unicode="3"/>
<glyph d="M495 191h115l-2 -20h-115l-18 -171h-20l18 171h-410l2 18l467 511h17zM94 191h381l50 472z" horiz-adv-x="655" glyph-name="four" unicode="4"/>
<glyph d="M611 680h-366l-57 -295q115 74 217 74q94 0 155.5 -60.5t50.5 -165.5q-12 -110 -93.5 -174.5t-190.5 -64.5q-129 0 -225 90l12 15q93 -85 213 -85q100 0 176.5 59t87.5 161q11 96 -45 150.5t-143 54.5q-103 0 -215 -78l-23 12l64 327h385z" horiz-adv-x="680" glyph-name="five" unicode="5"/>
<glyph d="M450 471q106 0 171 -68t55 -172q-8 -76 -50.5 -131t-102 -80.5t-128.5 -25.5q-123 0 -198.5 90.5t-59.5 253.5q9 97 45 171t88.5 116t109.5 62.5t116 20.5q95 0 176 -53l-11 -17q-71 50 -167 50q-56 0 -109.5 -19.5t-102 -59t-82.5 -109.5t-43 -162q-3 -24 -3 -45 q59 91 137.5 134.5t158.5 43.5zM656 229q10 98 -49 160t-159 62q-78 0 -154.5 -44.5t-138.5 -144.5q7 -117 73.5 -182.5t168.5 -65.5q96 0 172 57t87 158z" horiz-adv-x="710" glyph-name="six" unicode="6"/>
<glyph d="M635 681l-449 -681h-24l448 680h-475l3 20h499z" horiz-adv-x="635" glyph-name="seven" unicode="7"/>
<glyph d="M448 707q98 1 165.5 -47t60.5 -129q-6 -67 -59.5 -109.5t-124.5 -53.5q29 -4 59 -15.5t62 -31.5t51.5 -55t17.5 -79q-4 -88 -89 -144t-212 -58q-124 -1 -197.5 53.5t-66.5 137.5q6 78 77.5 129t146.5 59q-56 8 -106 51.5t-45 109.5q5 76 79.5 128.5t180.5 53.5zM446 687 q-97 -1 -164.5 -48t-73.5 -112q-6 -66 54 -110t156 -43q98 1 163 47t73 110q9 69 -53 113t-155 43zM416 354q-69 -2 -130.5 -22.5t-104 -61.5t-46.5 -94q-5 -74 62 -123.5t185 -47.5q115 2 194 52t83 128q4 76 -65.5 123.5t-177.5 45.5z" horiz-adv-x="743" glyph-name="eight" unicode="8"/>
<glyph d="M404 712q55 0 104 -22t88 -65t59 -115.5t13 -163.5q-13 -167 -101.5 -259.5t-228.5 -92.5q-125 0 -215 73l11 17q83 -70 205 -70q132 0 213.5 88t95.5 243q4 45 1 89q-39 -94 -121 -146t-171 -52q-100 0 -168.5 63.5t-61.5 166.5q7 113 90.5 179.5t186.5 66.5zM358 256 q54 0 105.5 19.5t102 68.5t79.5 122q-18 112 -87 169t-156 57q-98 0 -173 -63t-82 -162q-7 -93 55 -152t156 -59z" horiz-adv-x="706" glyph-name="nine" unicode="9"/>
<glyph d="M138 417q10 0 15.5 -6.5t4.5 -16.5t-9 -16.5t-16 -6.5q-9 0 -15.5 6.5t-5.5 16.5t8.5 16.5t17.5 6.5zM99 43q10 0 15.5 -6.5t4.5 -16.5t-9 -16.5t-16 -6.5q-9 0 -15.5 6.5t-5.5 16.5t8.5 16.5t17.5 6.5z" horiz-adv-x="186" glyph-name="colon" unicode=":"/>
<glyph d="M142 417q10 0 15.5 -6.5t4.5 -16.5t-9 -16.5t-16 -6.5q-9 0 -15.5 6.5t-5.5 16.5t8.5 16.5t17.5 6.5zM112 43q12 0 20.5 -9t7.5 -25q-2 -21 -17.5 -38t-40.5 -24v20q24 9 27 33q-10 -1 -16.5 5.5t-5.5 16.5q2 21 25 21z" horiz-adv-x="195" glyph-name="semicolon" unicode=";"/>
<glyph d="M611 500l-504 -154l471 -153l-8 -20l-487 159l3 27l520 162z" horiz-adv-x="720" glyph-name="less" unicode="&lt;"/>
<glyph d="M614 413h-440l2 20h440zM598 261h-440l2 20h440z" horiz-adv-x="701" glyph-name="equal" unicode="="/>
<glyph d="M634 359l-3 -27l-521 -159l-4 20l503 153l-470 154l9 21z" horiz-adv-x="720" glyph-name="greater" unicode="&gt;"/>
<glyph d="M353 713q96 12 159 -42.5t55 -141.5q-4 -41 -20 -70.5t-39 -48t-50.5 -35t-55 -36.5t-52 -45.5t-42.5 -69.5t-25 -102l-19 -1q6 60 24 105.5t42.5 73t52.5 49t55.5 38.5t50.5 34.5t39 44.5t20 62q9 78 -48.5 127t-140.5 39q-68 -8 -120 -49t-83 -109l-17 9 q32 72 87.5 115.5t126.5 52.5zM264 43q10 0 15.5 -6.5t4.5 -16.5t-9 -16.5t-16 -6.5q-9 0 -15.5 6.5t-5.5 16.5t8.5 16.5t17.5 6.5z" horiz-adv-x="650" glyph-name="question" unicode="?"/>
<glyph d="M625 670q181 0 286 -119t72 -299q-20 -109 -79.5 -172.5t-120.5 -61.5q-69 2 -68 82q-100 -96 -201 -96q-93 0 -148.5 72.5t-33.5 185.5q20 104 95 174t170 70q63 0 108.5 -30.5t66.5 -77.5l13 72h21l-72 -335q-11 -51 6.5 -74t47.5 -23q52 0 104 61t71 154 q22 106 -13.5 197t-121 145.5t-202.5 54.5q-105 0 -204 -43t-174 -130.5t-97 -203.5q-32 -173 63.5 -299.5t261.5 -126.5q93 0 189 45l9 -18q-100 -47 -199 -47q-115 0 -202 61.5t-125 164.5t-17 221q22 120 99 212t180.5 138t214.5 46zM596 486q-88 0 -156.5 -65 t-87.5 -161q-20 -101 28 -168.5t137 -67.5q54 0 98.5 25.5t95.5 72.5l55 252q-54 112 -170 112z" horiz-adv-x="1017" glyph-name="at" unicode="@"/>
<glyph d="M613 178h-449l-99 -178h-23l390 700h17l248 -700h-21zM606 198l-168 472l-263 -472h431z" glyph-name="A" unicode="A"/>
<glyph d="M492 376q93 -10 141 -59.5t40 -126.5q-9 -85 -79 -137.5t-193 -52.5h-268l74 700h258q84 0 139 -43.5t48 -116.5q-5 -61 -49.5 -108t-110.5 -56zM194 383h224q99 0 153 47t61 109q7 65 -43 103t-128 38h-236zM653 189q10 78 -48 126t-193 48h-220l-37 -343h249 q113 0 176 46.5t73 122.5z" horiz-adv-x="723" glyph-name="B" unicode="B"/>
<glyph d="M517 706q117 4 220 -56l-11 -17q-99 57 -210 53q-142 -5 -245 -97t-118 -228q-16 -143 76.5 -245t243.5 -102q96 0 188 46l9 -19q-99 -46 -194 -47q-160 -2 -259 106.5t-84 260.5q15 145 124 242.5t260 102.5z" horiz-adv-x="724" glyph-name="C" unicode="C"/>
<glyph d="M204 700h123q94 0 169.5 -19t133.5 -59t85 -109t17 -163q-18 -173 -139.5 -261.5t-330.5 -88.5h-132zM152 20h106q204 0 319.5 83t133.5 247q10 92 -16 157.5t-82.5 102.5t-129.5 53.5t-168 16.5h-93z" horiz-adv-x="775" glyph-name="D" unicode="D"/>
<glyph d="M634 680h-413l-32 -313h319l-3 -20h-319l-34 -327h440l-2 -20h-460l74 700h433z" horiz-adv-x="651" glyph-name="E" unicode="E"/>
<glyph d="M642 680h-421l-36 -350h304l-2 -20h-304l-33 -310h-20l74 700h441z" horiz-adv-x="621" glyph-name="F" unicode="F"/>
<glyph d="M528 710q115 4 224 -51l-10 -18q-105 53 -215 49q-149 -5 -254 -101.5t-120 -236.5q-16 -146 77.5 -245.5t254.5 -99.5q118 0 223 59l26 250h-240l2 20h260l-29 -283q-113 -65 -238 -66q-169 -1 -270.5 105t-85.5 260q15 147 125.5 250t269.5 108z" horiz-adv-x="804" glyph-name="G" unicode="G"/>
<glyph d="M692 0h-20l34 327h-522l-34 -327h-20l74 700h20l-37 -352h522l37 352h20z" horiz-adv-x="842" glyph-name="H" unicode="H"/>
<glyph d="M150 0h-20l74 700h20z" horiz-adv-x="300" glyph-name="I" unicode="I"/>
<glyph d="M342 700l-41 -387q-16 -155 -98 -238t-211 -83l2 20q119 2 195 77t92 227l41 384h20z" horiz-adv-x="400" glyph-name="J" unicode="J"/>
<glyph d="M417 424l253 -424h-25l-243 409l-233 -230l-19 -179h-20l74 700h20l-52 -492l497 492h27z" horiz-adv-x="670" glyph-name="K" unicode="K"/>
<glyph d="M152 20h441l-2 -20h-461l74 700h20z" horiz-adv-x="601" glyph-name="L" unicode="L"/>
<glyph d="M882 0h-20l70 670l-410 -476l-300 477l-72 -671h-20l74 700h23l299 -472l408 472h22z" horiz-adv-x="1032" glyph-name="M" unicode="M"/>
<glyph d="M706 0h-13l-472 672l-71 -672h-20l74 700h23l463 -660l70 660h20z" horiz-adv-x="856" glyph-name="N" unicode="N"/>
<glyph d="M531 709q155 0 246 -102.5t74 -258.5q-16 -154 -125 -258t-270 -104q-158 0 -248.5 103.5t-73.5 259.5q16 158 128.5 259t268.5 101zM527 689q-145 0 -250.5 -96t-121.5 -244q-16 -150 68 -246.5t235 -96.5t254.5 99t118.5 243q16 149 -69.5 245t-234.5 96z" horiz-adv-x="877" glyph-name="O" unicode="O"/>
<glyph d="M204 700h211q126 0 200.5 -67.5t65.5 -178.5q-10 -110 -97 -176.5t-220 -66.5h-192l-22 -211h-20zM221 680l-47 -449h192q124 -1 205 61t90 161q10 103 -60 165t-189 62h-191z" horiz-adv-x="701" glyph-name="P" unicode="P"/>
<glyph d="M849 348q-15 -150 -119 -253t-259 -109q37 -10 96.5 -59.5t94.5 -54.5q58 -11 99 47l16 -10q-43 -67 -118 -57q-44 7 -108.5 60t-99.5 60q-34 7 -69 -10t-61 -60l-16 11q38 63 100 76q-137 16 -212.5 116.5t-60.5 243.5q16 158 128.5 259t268.5 101q155 0 246 -102.5 t74 -258.5zM456 6q151 0 254.5 99t118.5 243q16 149 -69.5 245t-234.5 96q-145 0 -250.5 -96t-121.5 -244q-16 -150 68 -246.5t235 -96.5z" horiz-adv-x="877" glyph-name="Q" unicode="Q"/>
<glyph d="M676 453q-6 -81 -57 -137t-129 -83l134 -233h-23l-131 226q-52 -15 -108 -15h-190l-22 -211h-20l74 700h201q125 0 202 -68t69 -179zM174 231h187q111 0 198.5 59t96.5 163q10 103 -63.5 165t-191.5 62h-179z" horiz-adv-x="710" glyph-name="R" unicode="R"/>
<glyph d="M429 708q114 0 230 -59l-10 -18q-107 57 -222 57q-96 0 -162 -41t-73 -114q-2 -19 0.5 -35.5t11.5 -29.5t18 -23t27.5 -18.5t31.5 -14.5t39 -13t41.5 -10.5l46.5 -10.5q44 -10 72 -17t61.5 -18.5t53.5 -25t37 -32t23.5 -42.5t3.5 -55q-8 -89 -81.5 -144.5t-190.5 -56.5 q-150 -2 -296 90l11 17q138 -88 287 -87q105 1 173.5 51t76.5 128q4 34 -7 59.5t-27.5 41t-54 30t-65.5 22t-85 20.5q-48 11 -76 18.5t-63 22t-52.5 31t-28.5 42.5t-8 59q8 85 80 130.5t177 45.5z" horiz-adv-x="734" glyph-name="S" unicode="S"/>
<glyph d="M657 680h-292l-71 -680h-20l71 680h-292l2 20h605z" horiz-adv-x="622" glyph-name="T" unicode="T"/>
<glyph d="M783 700l-42 -398q-16 -150 -101.5 -234t-212.5 -84q-131 0 -210 86.5t-64 231.5l42 398h20l-42 -398q-15 -136 57 -217t196 -81q121 0 200.5 80t94.5 219l42 397h20z" horiz-adv-x="826" glyph-name="U" unicode="U"/>
<glyph d="M354 0h-16l-244 700h21l233 -669l372 669h23z" horiz-adv-x="688" glyph-name="V" unicode="V"/>
<glyph d="M777 0h-20l-172 674l-299 -674h-20l-153 700h21l145 -667l296 667h25l170 -665l266 665h21z" horiz-adv-x="1025" glyph-name="W" unicode="W"/>
<glyph d="M393 347l-298 -347h-25l312 364l-216 336h26l205 -320l273 320h26l-288 -337l236 -363h-25z" horiz-adv-x="714" glyph-name="X" unicode="X"/>
<glyph d="M413 319l-34 -319h-20l33 317l-243 383h26l228 -363l309 363h25z" horiz-adv-x="737" glyph-name="Y" unicode="Y"/>
<glyph d="M703 681l-609 -661h543l-2 -20h-570l2 18l608 662h-518l3 20h545z" horiz-adv-x="703" glyph-name="Z" unicode="Z"/>
<glyph d="M269 718h-94l-87 -836h94l-4 -20h-113l93 876h114z" horiz-adv-x="294" glyph-name="bracketleft" unicode="["/>
<glyph d="M58 733l337 -845l-21 1l-337 844h21z" horiz-adv-x="399" glyph-name="backslash" unicode="\"/>
<glyph d="M-15 -118h94l87 836h-94l4 20h113l-93 -876h-114z" horiz-adv-x="294" glyph-name="bracketright" unicode="]"/>
<glyph d="M377 700h10l200 -311h-25l-183 284l-244 -284h-26z" horiz-adv-x="613" glyph-name="asciicircum" unicode="^"/>
<glyph d="M323 -20h-305l2 20h305z" horiz-adv-x="345" glyph-name="underscore" unicode="_"/>
<glyph d="M633 797l-17 -9l-55 100l21 6z" horiz-adv-x="620" glyph-name="grave" unicode="`"/>
<glyph d="M378 544q69 0 126.5 -34.5t92.5 -86.5l12 111h20l-44 -422q-7 -68 31 -110l-19 -8q-33 41 -32 99q-109 -101 -224 -101q-104 0 -175.5 79t-57.5 204q13 119 90.5 194t179.5 75zM376 524q-95 0 -166 -71.5t-82 -179.5q-12 -114 51.5 -187.5t162.5 -73.5q109 0 224 109 l28 275q-88 128 -218 128z" horiz-adv-x="666" glyph-name="a" unicode="a"/>
<glyph d="M118 750l19 9q40 -47 31 -128l-23 -219q42 56 105.5 94t139.5 38q108 0 172.5 -76.5t51.5 -198.5q-13 -123 -96.5 -200t-191.5 -77q-70 0 -125 31.5t-88 78.5l-11 -102h-20l66 628q7 77 -30 122zM388 524q-137 0 -246 -140l-27 -256q35 -50 90 -83t122 -33q98 0 176 71 t91 185q13 112 -47 184t-159 72z" horiz-adv-x="652" glyph-name="b" unicode="b"/>
<glyph d="M416 549q103 1 187 -64l-12 -16q-74 60 -174 60q-111 0 -194.5 -73t-95.5 -187q-12 -116 59 -185t176 -69q109 0 196 73l11 -16q-91 -77 -207 -77q-112 0 -190 74t-65 201t103.5 202t205.5 77z" horiz-adv-x="611" glyph-name="c" unicode="c"/>
<glyph d="M655 723l-62 -597q-8 -77 30 -122l-19 -9q-35 41 -32 103q-92 -106 -222 -106q-110 0 -183 81t-60 207q12 117 90.5 190.5t182.5 73.5q72 0 130 -36t94 -96l31 311h20zM378 524q-96 0 -167.5 -68.5t-83.5 -176.5q-12 -116 54 -191.5t169 -75.5q67 0 127 33.5t97 81.5 l27 257q-37 65 -95 102.5t-128 37.5z" horiz-adv-x="673" glyph-name="d" unicode="d"/>
<glyph d="M132 288l-3 -21q-13 -107 59 -179.5t193 -72.5q111 0 201 62l11 -16q-97 -66 -212 -66q-128 0 -207.5 77.5t-65.5 196.5q14 115 106 192.5t207 77.5q95 0 160 -53.5t58 -131.5q-7 -80 -83 -127t-176 -43q-134 5 -248 104zM421 518q-97 0 -177 -58.5t-106 -149.5 q118 -104 248 -106q87 -2 156.5 38t76.5 112q7 71 -51.5 117.5t-146.5 46.5z" horiz-adv-x="654" glyph-name="e" unicode="e"/>
<glyph d="M380 754q51 0 101 -28l-10 -18q-44 28 -94 27q-56 -2 -101.5 -41.5t-54.5 -123.5l-4 -36h151l-2 -20h-151l-56 -524q-9 -81 -57 -119l-17 13q48 37 55 113l55 517h-86l2 20h86l4 36q10 95 62 139.5t117 44.5z" horiz-adv-x="383" glyph-name="f" unicode="f"/>
<glyph d="M383 544q133 0 213 -115l11 105h20l-55 -524q-12 -112 -85 -164.5t-169 -52.5q-113 0 -201 67l13 17q88 -64 190 -64q40 0 76.5 10.5t70.5 32t57 61.5t28 93l9 86q-98 -96 -219 -96q-107 0 -177.5 74.5t-56.5 200.5q13 120 90 194.5t185 74.5zM381 524q-99 0 -170.5 -70 t-82.5 -181q-12 -114 50.5 -183.5t164.5 -69.5q119 0 221 102l29 282q-84 120 -212 120z" horiz-adv-x="661" glyph-name="g" unicode="g"/>
<glyph d="M118 750l19 9q40 -49 31 -128l-24 -227q45 58 110.5 101t141.5 43q87 0 143.5 -60.5t45.5 -171.5l-33 -316h-20l33 315q11 104 -40.5 158.5t-130.5 54.5q-131 0 -253 -154l-39 -374h-20l66 630q7 73 -30 120z" horiz-adv-x="647" glyph-name="h" unicode="h"/>
<glyph d="M183 714q22 0 20 -22q-1 -9 -7.5 -15.5t-16.5 -6.5q-9 0 -15 6.5t-5 15.5t7.5 15.5t16.5 6.5zM171 534l-44 -415q-5 -46 21.5 -74.5t67.5 -28.5q24 0 48 11l7 -19q-28 -12 -56 -12q-50 0 -82 33.5t-26 88.5l44 416h20z" horiz-adv-x="277" glyph-name="i" unicode="i"/>
<glyph d="M215 714q9 0 15 -6.5t5 -15.5q-1 -10 -9 -16t-16 -6q-9 0 -14.5 6.5t-4.5 15.5t7.5 15.5t16.5 6.5zM205 534l-60 -571q-6 -54 -25 -93.5t-46.5 -59t-54 -28.5t-54.5 -9q-57 0 -106 28l10 18q45 -27 96 -26q25 1 48 8.5t47.5 25t42 53t22.5 84.5l60 570h20z" horiz-adv-x="272" glyph-name="j" unicode="j"/>
<glyph d="M123 750l19 9q40 -47 31 -128l-48 -459l378 362h29l-207 -199l188 -335h-23l-179 322l-189 -181l-15 -141h-20l66 628q7 77 -30 122z" horiz-adv-x="562" glyph-name="k" unicode="k"/>
<glyph d="M192 725l-64 -606q-5 -46 21.5 -74.5t67.5 -28.5q24 0 48 11l7 -19q-28 -12 -56 -12q-50 0 -82 33.5t-26 88.5l64 607h20z" horiz-adv-x="270" glyph-name="l" unicode="l"/>
<glyph d="M827 548q79 0 130.5 -54.5t41.5 -149.5l-36 -344h-20l36 343q9 87 -36.5 136t-115.5 49q-78 0 -142.5 -55t-101.5 -127l-36 -346h-20l36 343q9 87 -36.5 136t-114.5 49q-72 0 -135 -51.5t-108 -122.5l-37 -354h-20l42 407q8 77 -30 122l19 9q23 -27 29 -61t-1 -93 q43 70 106.5 117t135.5 47t121.5 -47.5t48.5 -118.5q36 62 100.5 114t143.5 52z" horiz-adv-x="1058" glyph-name="m" unicode="m"/>
<glyph d="M123 524l19 9q40 -50 30 -133q43 63 108.5 105.5t141.5 42.5q91 0 147 -62.5t44 -169.5l-33 -316h-20l33 315q10 98 -41 155.5t-132 57.5q-72 0 -137.5 -45t-113.5 -115l-39 -368h-20l43 402q7 74 -30 122z" horiz-adv-x="675" glyph-name="n" unicode="n"/>
<glyph d="M404 548q110 0 181.5 -75t60.5 -203q-8 -88 -55 -152.5t-110 -94.5t-130 -30q-107 0 -182 75.5t-62 202.5q12 123 98.5 200t198.5 77zM402 528q-104 0 -183.5 -72.5t-91.5 -185.5q-12 -117 55.5 -187t168.5 -70q100 0 181.5 69t93.5 188q12 118 -55 188t-169 70z" horiz-adv-x="671" glyph-name="o" unicode="o"/>
<glyph d="M124 529l19 9q37 -45 32 -115q40 50 106 85.5t139 35.5q105 0 170 -74t53 -195q-12 -125 -96.5 -204t-194.5 -79q-66 0 -120.5 28t-90.5 71l-29 -276h-20l62 592q8 74 -30 122zM417 524q-67 0 -131 -34.5t-113 -93.5l-30 -279q90 -105 210 -105q101 0 179 74t91 189 q12 112 -47.5 180.5t-158.5 68.5z" horiz-adv-x="680" glyph-name="p" unicode="p"/>
<glyph d="M638 534l-74 -719h-20l28 273q-108 -96 -230 -96q-112 0 -180 77.5t-54 201.5q14 126 97.5 199.5t190.5 73.5q137 0 212 -116l10 106h20zM395 524q-101 0 -178 -70.5t-89 -184.5q-13 -114 49 -185.5t166 -71.5q119 0 232 102l30 286q-32 57 -86 90.5t-124 33.5z" horiz-adv-x="693" glyph-name="q" unicode="q"/>
<glyph d="M123 524l19 9q39 -47 32 -110q73 123 184 123q28 0 55 -10l-7 -19q-24 9 -49 9q-101 0 -186 -138l-41 -388h-20l43 402q9 76 -30 122z" horiz-adv-x="382" glyph-name="r" unicode="r"/>
<glyph d="M338 550q94 3 181 -46l-8 -18q-82 45 -169 44q-81 -2 -135 -38t-59 -93q-1 -15 1.5 -28t10 -23t14.5 -17.5t21.5 -13.5t24 -9.5t28 -7t27.5 -5t29.5 -4t26.5 -3.5q91 -13 145 -46t49 -104q-6 -73 -68 -111t-148 -39q-128 -1 -230 77l12 16q97 -73 218 -73 q77 0 133.5 32.5t62.5 96.5q3 34 -11 58.5t-43.5 38.5t-58 21.5t-69.5 13.5q-100 14 -132 28q-67 30 -63 100q4 71 65.5 111t144.5 42z" horiz-adv-x="585" glyph-name="s" unicode="s"/>
<glyph d="M236 534h206l-2 -20h-206l-38 -360q-7 -70 27 -106.5t90 -37.5q58 -1 118 36l9 -18q-71 -39 -128 -38q-64 1 -104.5 44t-31.5 120l38 360h-125l2 20h125l18 166h20z" horiz-adv-x="472" glyph-name="t" unicode="t"/>
<glyph d="M626 534l-43 -410q-9 -76 30 -122l-19 -9q-38 45 -32 118q-39 -51 -105 -90t-141 -39q-87 0 -139.5 57.5t-41.5 160.5l35 334h20l-35 -333q-10 -94 35 -146.5t126 -52.5q73 0 139.5 42t109.5 101l41 389h20z" horiz-adv-x="675" glyph-name="u" unicode="u"/>
<glyph d="M286 28l281 506h23l-297 -534h-18l-186 534h21z" horiz-adv-x="568" glyph-name="v" unicode="v"/>
<glyph d="M671 0h-17l-152 507l-258 -507h-14l-135 534h22l124 -495l253 495h22l150 -499l226 499h22z" horiz-adv-x="897" glyph-name="w" unicode="w"/>
<glyph d="M345 289l226 -289h-28l-213 274l-271 -274h-28l286 289l-190 245h28l179 -228l225 228h28z" horiz-adv-x="617" glyph-name="x" unicode="x"/>
<glyph d="M664 534l-399 -661q-59 -98 -152 -101q-70 -3 -131 55l13 15q51 -50 112 -50q85 0 139 89l66 108l-228 545h22l219 -524l316 524h23z" horiz-adv-x="625" glyph-name="y" unicode="y"/>
<glyph d="M561 517l-466 -497h435l-2 -20h-470l2 12l471 502h-400l2 20h430z" horiz-adv-x="577" glyph-name="z" unicode="z"/>
<glyph d="M293 767l-1 -20q-62 2 -68 -52l-30 -284q-5 -42 -34 -64.5t-61 -30.5v-2q12 -3 24 -9t25.5 -16.5t20.5 -29t5 -40.5l-30 -284q-3 -28 11.5 -40.5t44.5 -11.5l-3 -20h-9q-29 0 -48 18t-16 54l29 274q8 78 -81 92l3 30q93 16 100 90l29 274q3 36 26.5 54t53.5 18h9z" horiz-adv-x="272" glyph-name="braceleft" unicode="{"/>
<glyph d="M176 -89h-20l88 838h20z" horiz-adv-x="350" glyph-name="bar" unicode="|"/>
<glyph d="M-61 -137l1 20q62 -2 68 52l30 284q5 42 34 64.5t61 30.5v2q-12 3 -24 9t-25.5 16.5t-20.5 29t-5 40.5l30 284q3 28 -11.5 40.5t-44.5 11.5l3 20h9q29 0 48 -18t16 -54l-29 -274q-8 -78 81 -92l-3 -30q-93 -16 -100 -90l-29 -274q-3 -36 -26.5 -54t-53.5 -18h-9z" horiz-adv-x="272" glyph-name="braceright" unicode="}"/>
<glyph d="M283 465q29 -1 56 -19.5t45 -39t46 -38t59 -17.5q43 0 84 32t60 68l18 -8q-38 -55 -74 -83.5t-92 -28.5q-34 0 -64.5 17.5t-49.5 38.5t-44 39t-48 19q-88 4 -153 -100l-17 10q73 114 174 110z" horiz-adv-x="676" glyph-name="asciitilde" unicode="~"/>
<glyph d="M212 568q-9 0 -15 6.5t-5 15.5q1 10 8.5 16t15.5 6q9 0 15 -6.5t5 -15.5t-7.5 -15.5t-16.5 -6.5zM191 491h18l-59 -585h-23z" horiz-adv-x="323" glyph-name="exclamdown" unicode="¡"/>
<glyph d="M388 563q-97 0 -171 -64t-85 -166t52 -161.5t157 -59.5q92 0 172 61l13 -16q-85 -65 -186 -65q-18 0 -27 1l-18 -64l-20 4l18 63q-86 15 -139 76.5t-42 161.5q12 114 93.5 181.5t184.5 67.5l22 -1l18 67l20 -2l-18 -67q68 -11 126 -51l-12 -16q-74 50 -158 50z" horiz-adv-x="561" glyph-name="cent" unicode="¢"/>
<glyph d="M577 0h-456q-48 0 -98 28l11 19q44 -28 91 -27q55 2 97 42t51 127l18 176h-99l2 20h99l15 136q10 99 60 144.5t119 45.5q57 0 109 -28l-10 -19q-48 30 -102 28q-57 -2 -102 -42t-54 -128l-15 -137h114l-2 -20h-114l-18 -175q-14 -128 -94 -170h380z" horiz-adv-x="638" glyph-name="sterling" unicode="£"/>
<glyph d="M473 361q-7 -67 -52 -115l64 -69l-15 -17l-65 71q-53 -43 -122 -43q-68 0 -112 46l-82 -74l-11 17l80 72q-36 49 -30 112q8 70 56 118l-72 81l14 15l74 -82q53 40 119 40q61 0 107 -43l93 85l12 -15l-93 -84q41 -49 35 -115zM148 361q-7 -64 33 -108.5t104 -44.5 q63 0 112 44.5t56 108.5q7 63 -33 107.5t-103 44.5q-64 0 -113 -44.5t-56 -107.5z" horiz-adv-x="573" glyph-name="currency" unicode="¤"/>
<glyph d="M420 327h198l-2 -20h-204l-8 -69h205l-2 -20h-205l-23 -218h-20l23 218h-205l2 20h205l7 69h-205l2 20h198l-237 373h26l228 -363l309 363h25z" horiz-adv-x="737" glyph-name="yen" unicode="¥"/>
<glyph d="M223 360h-20l41 389h20zM176 -89h-20l39 371h20z" horiz-adv-x="350" glyph-name="brokenbar" unicode="¦"/>
<glyph d="M336 473q85 -14 130 -43.5t43 -84.5q-4 -99 -141 -117q130 -36 121 -127q-6 -56 -57 -83.5t-122 -29.5q-55 -1 -118.5 14.5t-104.5 40.5l10 17q41 -23 101.5 -38t111.5 -14q62 2 108 24.5t51 67.5q5 52 -40.5 79.5t-120.5 40.5q-87 15 -130.5 42t-36.5 89q5 43 39 73 t93 41q-58 14 -88 39t-26 73q5 57 56 94.5t129 38.5q88 0 166 -35l-8 -19q-76 35 -159 34q-68 -2 -114 -33.5t-50 -79.5q-2 -27 9.5 -45.5t38 -30t49 -17t60.5 -11.5zM489 344q1 26 -11 45.5t-37 32t-50 19.5t-61 13l-5 1q-68 -3 -114 -31.5t-50 -72.5q-5 -51 35 -75.5 t112 -35.5q80 2 129.5 28.5t51.5 75.5z" horiz-adv-x="573" glyph-name="section" unicode="§"/>
<glyph d="M496 855q9 0 15 -6.5t5 -15.5q-1 -10 -9 -16t-16 -6q-9 0 -14.5 6.5t-4.5 15.5t7.5 15.5t16.5 6.5zM616 855q9 0 15 -6.5t5 -15.5q-1 -10 -9 -16t-16 -6q-9 0 -14.5 6.5t-4.5 15.5t7.5 15.5t16.5 6.5z" horiz-adv-x="607" glyph-name="dieresis" unicode="¨"/>
<glyph d="M485 705q143 0 238 -105t79 -248q-17 -149 -131.5 -253t-260.5 -104q-144 0 -239 106t-79 251q16 147 131 250t262 103zM483 685q-137 0 -247 -98.5t-124 -234.5q-15 -139 74 -238t226 -99t246.5 99.5t123.5 238.5q14 136 -74 234t-225 98zM470 553q66 0 139 -49l-12 -17 q-57 46 -129 46q-74 0 -133.5 -53t-67.5 -132q-9 -82 41 -131t124 -49q81 0 141 54l13 -16q-68 -58 -156 -58q-79 0 -135.5 54.5t-46.5 146.5q9 91 74.5 147.5t147.5 56.5z" horiz-adv-x="788" glyph-name="copyright" unicode="©"/>
<glyph d="M306 713q66 0 101.5 -44.5t27.5 -119.5l-20 -189h-20l5 53q-84 -61 -158 -61q-61 0 -98.5 34.5t-31.5 86.5q6 56 53 85t109 29q64 0 140 -48q10 71 -20 112.5t-92 41.5q-56 0 -117 -32l-8 18q66 34 129 34zM273 567q-54 0 -95.5 -24.5t-45.5 -69.5q-5 -46 28 -73.5 t84 -27.5q73 0 159 62l8 82q-69 51 -138 51zM421 257h-308l2 20h308z" horiz-adv-x="431" glyph-name="ordfeminine" unicode="ª"/>
<glyph d="M114 272l202 -272h-25l-203 273l255 261h28zM310 272l202 -272h-25l-203 273l255 261h28z" horiz-adv-x="567" glyph-name="guillemotleft" unicode="«"/>
<glyph d="M708 88h-30v303h-567v28h597v-331z" horiz-adv-x="775" glyph-name="logicalnot" unicode="¬"/>
<glyph d="M484 705q144 0 238.5 -105t78.5 -248q-17 -149 -131 -253t-261 -104q-146 0 -239.5 105.5t-78.5 251.5q15 147 130.5 250t262.5 103zM482 685q-138 0 -247.5 -98.5t-123.5 -234.5q-15 -139 73.5 -238t225.5 -99t247 99.5t124 237.5q14 136 -74 234.5t-225 98.5zM332 576 h127q78 0 128.5 -46.5t44.5 -116.5q-4 -53 -38.5 -92t-80.5 -52l85 -151h-23l-81 144q-36 -8 -176 -8l-15 -136h-20zM456 556h-106l-30 -282q50 1 105 1q78 -1 129.5 37.5t57.5 100.5q6 63 -40 103t-116 40z" horiz-adv-x="788" glyph-name="registered" unicode="®"/>
<glyph d="M731 795h-325l2 20h325z" horiz-adv-x="603" glyph-name="macron" unicode="¯"/>
<glyph d="M302 797q61 0 99.5 -42.5t32.5 -104.5t-52 -105t-108 -43t-102 43t-33 105t54.5 104.5t108.5 42.5zM301 777q-54 0 -95 -37t-47 -90q-6 -52 27.5 -90t87.5 -38q53 0 94 37t46 91q5 55 -27.5 91t-85.5 36z" horiz-adv-x="413" glyph-name="degree" unicode="°"/>
<glyph d="M343 461h148l-2 -20h-148l-18 -174h-20l18 174h-148l2 20h148l19 174h20zM465 143h-330l2 20h330z" horiz-adv-x="570" glyph-name="plusminus" unicode="±"/>
<glyph d="M281 676q43 0 71 -29.5t24 -73.5q-4 -40 -28.5 -69.5t-68.5 -61.5l-141 -104h224l-2 -20h-259l2 15l163 123q43 33 64 58t24 59q4 36 -18.5 60t-56.5 24q-39 0 -71 -25t-42 -70l-22 4q14 52 52.5 81t84.5 29z" horiz-adv-x="400" glyph-name="twosuperior" unicode="²"/>
<glyph d="M280 694q49 0 79.5 -26t25.5 -65q-8 -58 -72 -82q34 -9 55 -33.5t17 -59.5q-5 -47 -46.5 -73.5t-95.5 -26.5q-73 0 -136 47l12 17q57 -44 125 -44q47 0 82 22t39 57q4 34 -25.5 58t-69.5 24h-66l2 20h66q32 0 61 22t32 51q3 31 -20.5 51.5t-66.5 20.5q-50 0 -109 -34 l-8 18q60 36 119 36z" horiz-adv-x="425" glyph-name="threesuperior" unicode="³"/>
<glyph d="M592 888l-65 -100l-16 9l61 97z" horiz-adv-x="740" glyph-name="acute" unicode="´"/>
<glyph d="M615 534l-43 -410q-9 -76 30 -122l-19 -9q-38 45 -32 118q-39 -51 -105 -90t-141 -39q-62 0 -108.5 30t-64.5 87l-31 -299h-20l77 736h20v-2h1l-35 -333q-10 -94 35 -146.5t126 -52.5q73 0 139.5 42t109.5 101l41 389h20z" horiz-adv-x="644" glyph-name="uni00B5" unicode="µ"/>
<glyph d="M735 749l-88 -836h-20l86 816h-66l-86 -816h-20l36 344q-32 0 -86 -0.5t-99 -0.5q-150 0 -214.5 64t-51.5 178q16 126 100.5 188.5t215.5 62.5h92h115h86z" horiz-adv-x="793" glyph-name="paragraph" unicode="¶"/>
<glyph d="M143 380q10 0 15.5 -6.5t4.5 -16.5t-9 -16.5t-16 -6.5q-9 0 -15.5 6.5t-5.5 16.5t8.5 16.5t17.5 6.5z" horiz-adv-x="204" glyph-name="periodcentered" unicode="·"/>
<glyph d="M261 -105l-20 6l68 99h20z" horiz-adv-x="678" glyph-name="cedilla" unicode="¸"/>
<glyph d="M177 328h-20l37 347l-39 -31l-11 15l50 40h22z" horiz-adv-x="287" glyph-name="onesuperior" unicode="¹"/>
<glyph d="M323 716q74 0 123.5 -51.5t40.5 -134.5q-9 -86 -69.5 -135t-133.5 -49q-69 0 -120.5 52t-42.5 133q10 83 67 134t135 51zM321 696q-67 0 -120 -46t-60 -118q-8 -73 36.5 -119t108.5 -47q66 -1 119.5 45t61.5 121t-36.5 119.5t-109.5 44.5zM454 257h-358l2 20h358z" horiz-adv-x="498" glyph-name="ordmasculine" unicode="º"/>
<glyph d="M110 534l204 -262l-260 -272h-29l260 272l-203 262h28zM306 534l204 -262l-260 -272h-29l260 272l-203 262h28z" horiz-adv-x="588" glyph-name="guillemotright" unicode="»"/>
<glyph d="M692 108h59l-2 -20h-59l-9 -88h-20l9 88h-211l2 16l243 265h16zM490 108h182l24 224zM232 328h-20l37 347l-39 -31l-11 15l50 40h22zM173 0h-25l528 700h26z" horiz-adv-x="889" glyph-name="onequarter" unicode="¼"/>
<glyph d="M694 358q43 0 71 -29.5t24 -73.5q-4 -40 -28.5 -69.5t-68.5 -61.5l-141 -104h224l-2 -20h-259l2 15l163 123q43 33 64 58t24 59q4 36 -18.5 60t-56.5 24q-39 0 -71 -25t-42 -70l-22 4q14 52 52.5 81t84.5 29zM261 328h-20l37 347l-39 -31l-11 15l50 40h22zM162 0h-25 l528 700h26z" horiz-adv-x="923" glyph-name="onehalf" unicode="½"/>
<glyph d="M773 108h59l-2 -20h-59l-9 -88h-20l9 88h-211l2 16l243 265h16zM571 108h182l24 224zM342 694q49 0 79.5 -26t25.5 -65q-8 -58 -72 -82q34 -9 55 -33.5t17 -59.5q-5 -47 -46.5 -73.5t-95.5 -26.5q-73 0 -136 47l12 17q57 -44 125 -44q47 0 82 22t39 57q4 34 -25.5 58 t-69.5 24h-66l2 20h66q32 0 61 22t32 51q3 31 -20.5 51.5t-66.5 20.5q-50 0 -109 -34l-8 18q60 36 119 36zM287 0h-25l528 700h26z" horiz-adv-x="970" glyph-name="threequarters" unicode="¾"/>
<glyph d="M403 567q-10 0 -15.5 6.5t-4.5 16.5t9 16.5t16 6.5q9 0 15.5 -6.5t5.5 -16.5t-8.5 -16.5t-17.5 -6.5zM314 -103q-96 -12 -159 42.5t-55 141.5q4 41 20 70.5t39 48t50.5 35t55 36.5t52 45.5t42.5 69.5t25 102l19 1q-6 -60 -24 -105.5t-42.5 -73t-52.5 -49t-55.5 -38.5 t-50.5 -34.5t-39 -44.5t-20 -62q-9 -78 48.5 -127t140.5 -39q68 8 120 49t83 109l17 -9q-32 -72 -87.5 -115.5t-126.5 -52.5z" horiz-adv-x="692" glyph-name="questiondown" unicode="¿"/>
<glyph d="M468 788l-55 100l21 6l51 -97zM613 178h-449l-99 -178h-23l390 700h17l248 -700h-21zM606 198l-168 472l-263 -472h431z" glyph-name="Agrave" unicode="À"/>
<glyph d="M455 788l-16 9l61 97l20 -6zM613 178h-449l-99 -178h-23l390 700h17l248 -700h-21zM606 198l-168 472l-263 -472h431z" glyph-name="Aacute" unicode="Á"/>
<glyph d="M379 788l-15 12l90 100h20l68 -100l-17 -12l-63 94zM613 178h-449l-99 -178h-23l390 700h17l248 -700h-21zM606 198l-168 472l-263 -472h431z" glyph-name="Acircumflex" unicode="Â"/>
<glyph d="M382 881q-42 1 -62 -42l-18 9q24 54 83 53q29 -1 73.5 -28t70.5 -27q37 0 58 41l18 -8q-24 -53 -76 -53q-30 0 -76 27t-71 28zM613 178h-449l-99 -178h-23l390 700h17l248 -700h-21zM606 198l-168 472l-263 -472h431z" glyph-name="Atilde" unicode="Ã"/>
<glyph d="M398 811q-9 0 -14.5 6.5t-4.5 15.5t7.5 15.5t16.5 6.5q9 0 15 -6.5t5 -15.5q-1 -10 -9 -16t-16 -6zM518 811q-9 0 -14.5 6.5t-4.5 15.5t7.5 15.5t16.5 6.5q9 0 15 -6.5t5 -15.5q-1 -10 -9 -16t-16 -6zM613 178h-449l-99 -178h-23l390 700h17l248 -700h-21zM606 198 l-168 472l-263 -472h431z" glyph-name="Adieresis" unicode="Ä"/>
<glyph d="M450 758q-45 0 -75 32.5t-26 76.5q4 47 39.5 78t84.5 31q45 0 75 -32.5t25 -76.5q-5 -48 -40 -78.5t-83 -30.5zM369 867q-4 -37 20.5 -63t62.5 -26t67.5 26t33.5 63t-20 63t-62 26t-68 -26t-34 -63zM613 178h-449l-99 -178h-23l390 700h17l248 -700h-21zM606 198 l-168 472l-263 -472h431z" glyph-name="Aring" unicode="Å"/>
<glyph d="M519 680l-32 -313h319l-3 -20h-319l-34 -327h440l-2 -20h-460l37 347h-171l-225 -347h-23l455 700h434l-3 -20h-413zM499 668l-16 -30l-176 -271h160z" horiz-adv-x="949" glyph-name="AE" unicode="Æ"/>
<glyph d="M517 706q117 4 220 -56l-11 -17q-99 57 -210 53q-142 -5 -245 -97t-118 -228q-16 -143 76.5 -245t243.5 -102q96 0 188 46l9 -19q-99 -46 -194 -47q-160 -2 -259 106.5t-84 260.5q15 145 124 242.5t260 102.5zM403 -115l-20 6l68 99h20z" horiz-adv-x="724" glyph-name="Ccedilla" unicode="Ç"/>
<glyph d="M634 680h-413l-32 -313h319l-3 -20h-319l-34 -327h440l-2 -20h-460l74 700h433zM456 775l-17 -9l-55 100l21 6z" horiz-adv-x="651" glyph-name="Egrave" unicode="È"/>
<glyph d="M634 680h-413l-32 -313h319l-3 -20h-319l-34 -327h440l-2 -20h-460l74 700h433zM467 865l-65 -100l-16 9l61 97z" horiz-adv-x="651" glyph-name="Eacute" unicode="É"/>
<glyph d="M517 770l-63 94l-83 -94l-15 12l90 100h20l68 -100zM634 680h-413l-32 -313h319l-3 -20h-319l-34 -327h440l-2 -20h-460l74 700h433z" horiz-adv-x="651" glyph-name="Ecircumflex" unicode="Ê"/>
<glyph d="M388 823q9 0 15 -6.5t5 -15.5q-1 -10 -9 -16t-16 -6q-9 0 -14.5 6.5t-4.5 15.5t7.5 15.5t16.5 6.5zM508 823q9 0 15 -6.5t5 -15.5q-1 -10 -9 -16t-16 -6q-9 0 -14.5 6.5t-4.5 15.5t7.5 15.5t16.5 6.5zM634 680h-413l-32 -313h319l-3 -20h-319l-34 -327h440l-2 -20h-460 l74 700h433z" horiz-adv-x="651" glyph-name="Edieresis" unicode="Ë"/>
<glyph d="M150 0h-20l74 700h20zM322 776l-17 -9l-55 100l21 6z" horiz-adv-x="300" glyph-name="Igrave" unicode="Ì"/>
<glyph d="M274 860l-65 -100l-16 9l61 97zM150 0h-20l74 700h20z" horiz-adv-x="300" glyph-name="Iacute" unicode="Í"/>
<glyph d="M300 778l-63 94l-83 -94l-15 12l90 100h20l68 -100zM150 0h-20l74 700h20z" horiz-adv-x="300" glyph-name="Icircumflex" unicode="Î"/>
<glyph d="M165 827q9 0 15 -6.5t5 -15.5q-1 -10 -9 -16t-16 -6q-9 0 -14.5 6.5t-4.5 15.5t7.5 15.5t16.5 6.5zM285 827q9 0 15 -6.5t5 -15.5q-1 -10 -9 -16t-16 -6q-9 0 -14.5 6.5t-4.5 15.5t7.5 15.5t16.5 6.5zM150 0h-20l74 700h20z" horiz-adv-x="300" glyph-name="Idieresis" unicode="Ï"/>
<glyph d="M208 700h123q94 0 169.5 -19t133.5 -59t85 -109t17 -163q-18 -173 -139.5 -261.5t-330.5 -88.5h-132l36 344h-94l2 21h95zM715 350q10 92 -16 157.5t-82.5 102.5t-129.5 53.5t-168 16.5h-93l-33 -315h197l-2 -21h-198l-34 -324h106q204 0 319.5 83t133.5 247z" horiz-adv-x="779" glyph-name="Eth" unicode="Ð"/>
<glyph d="M458 873q29 -1 73.5 -28t70.5 -27q38 0 58 41l18 -8q-24 -53 -76 -53q-30 0 -76 27t-71 28q-42 1 -62 -42l-18 9q24 54 83 53zM706 0h-13l-472 672l-71 -672h-20l74 700h23l463 -660l70 660h20z" horiz-adv-x="856" glyph-name="Ntilde" unicode="Ñ"/>
<glyph d="M531 709q155 0 246 -102.5t74 -258.5q-16 -154 -125 -258t-270 -104q-158 0 -248.5 103.5t-73.5 259.5q16 158 128.5 259t268.5 101zM527 689q-145 0 -250.5 -96t-121.5 -244q-16 -150 68 -246.5t235 -96.5t254.5 99t118.5 243q16 149 -69.5 245t-234.5 96zM624 797 l-17 -9l-55 100l21 6z" horiz-adv-x="877" glyph-name="Ograve" unicode="Ò"/>
<glyph d="M531 709q155 0 246 -102.5t74 -258.5q-16 -154 -125 -258t-270 -104q-158 0 -248.5 103.5t-73.5 259.5q16 158 128.5 259t268.5 101zM527 689q-145 0 -250.5 -96t-121.5 -244q-16 -150 68 -246.5t235 -96.5t254.5 99t118.5 243q16 149 -69.5 245t-234.5 96zM581 881 l-65 -100l-16 9l61 97z" horiz-adv-x="877" glyph-name="Oacute" unicode="Ó"/>
<glyph d="M608 778l-63 94l-83 -94l-15 12l90 100h20l68 -100zM531 709q155 0 246 -102.5t74 -258.5q-16 -154 -125 -258t-270 -104q-158 0 -248.5 103.5t-73.5 259.5q16 158 128.5 259t268.5 101zM527 689q-145 0 -250.5 -96t-121.5 -244q-16 -150 68 -246.5t235 -96.5t254.5 99 t118.5 243q16 149 -69.5 245t-234.5 96z" horiz-adv-x="877" glyph-name="Ocircumflex" unicode="Ô"/>
<glyph d="M475 873q29 -1 73.5 -28t70.5 -27q38 0 58 41l18 -8q-24 -53 -76 -53q-30 0 -76 27t-71 28q-42 1 -62 -42l-18 9q24 54 83 53zM531 709q155 0 246 -102.5t74 -258.5q-16 -154 -125 -258t-270 -104q-158 0 -248.5 103.5t-73.5 259.5q16 158 128.5 259t268.5 101zM527 689 q-145 0 -250.5 -96t-121.5 -244q-16 -150 68 -246.5t235 -96.5t254.5 99t118.5 243q16 149 -69.5 245t-234.5 96z" horiz-adv-x="877" glyph-name="Otilde" unicode="Õ"/>
<glyph d="M482 845q9 0 15 -6.5t5 -15.5q-1 -10 -9 -16t-16 -6q-9 0 -14.5 6.5t-4.5 15.5t7.5 15.5t16.5 6.5zM602 845q9 0 15 -6.5t5 -15.5q-1 -10 -9 -16t-16 -6q-9 0 -14.5 6.5t-4.5 15.5t7.5 15.5t16.5 6.5zM531 709q155 0 246 -102.5t74 -258.5q-16 -154 -125 -258t-270 -104 q-158 0 -248.5 103.5t-73.5 259.5q16 158 128.5 259t268.5 101zM527 689q-145 0 -250.5 -96t-121.5 -244q-16 -150 68 -246.5t235 -96.5t254.5 99t118.5 243q16 149 -69.5 245t-234.5 96z" horiz-adv-x="877" glyph-name="Odieresis" unicode="Ö"/>
<glyph d="M433 268l226 -256l-15 -15l-227 256l-281 -256l-13 15l281 256l-227 256l16 15l227 -256l281 256l12 -15z" horiz-adv-x="780" glyph-name="multiply" unicode="×"/>
<glyph d="M740 747l-44 -66q87 -46 131.5 -134.5t32.5 -197.5q-17 -156 -130.5 -264.5t-274.5 -108.5q-108 0 -191 54l-61 -91h-24l68 103q-66 51 -98 131.5t-22 175.5q16 159 133 264.5t274 105.5q78 0 144 -29l38 57h24zM148 349q-10 -90 20 -165.5t91 -123.5l407 612 q-64 27 -135 27q-149 0 -258 -99.5t-125 -250.5zM840 349q10 104 -32 187.5t-124 126.5l-409 -615q79 -52 183 -52q153 0 260 103t122 250z" horiz-adv-x="893" glyph-name="Oslash" unicode="Ø"/>
<glyph d="M783 700l-42 -398q-16 -150 -101.5 -234t-212.5 -84q-131 0 -210 86.5t-64 231.5l42 398h20l-42 -398q-15 -136 57 -217t196 -81q121 0 200.5 80t94.5 219l42 397h20zM519 769l-17 -9l-55 100l21 6z" horiz-adv-x="826" glyph-name="Ugrave" unicode="Ù"/>
<glyph d="M783 700l-42 -398q-16 -150 -101.5 -234t-212.5 -84q-131 0 -210 86.5t-64 231.5l42 398h20l-42 -398q-15 -136 57 -217t196 -81q121 0 200.5 80t94.5 219l42 397h20zM545 864l-65 -100l-16 9l61 97z" horiz-adv-x="826" glyph-name="Uacute" unicode="Ú"/>
<glyph d="M783 700l-42 -398q-16 -150 -101.5 -234t-212.5 -84q-131 0 -210 86.5t-64 231.5l42 398h20l-42 -398q-15 -136 57 -217t196 -81q121 0 200.5 80t94.5 219l42 397h20zM570 765l-63 94l-83 -94l-15 12l90 100h20l68 -100z" horiz-adv-x="826" glyph-name="Ucircumflex" unicode="Û"/>
<glyph d="M431 832q9 0 15 -6.5t5 -15.5q-1 -10 -9 -16t-16 -6q-9 0 -14.5 6.5t-4.5 15.5t7.5 15.5t16.5 6.5zM551 832q9 0 15 -6.5t5 -15.5q-1 -10 -9 -16t-16 -6q-9 0 -14.5 6.5t-4.5 15.5t7.5 15.5t16.5 6.5zM783 700l-42 -398q-16 -150 -101.5 -234t-212.5 -84 q-131 0 -210 86.5t-64 231.5l42 398h20l-42 -398q-15 -136 57 -217t196 -81q121 0 200.5 80t94.5 219l42 397h20z" horiz-adv-x="826" glyph-name="Udieresis" unicode="Ü"/>
<glyph d="M413 319l-34 -319h-20l33 317l-243 383h26l228 -363l309 363h25zM519 888l-65 -100l-16 9l61 97z" horiz-adv-x="737" glyph-name="Yacute" unicode="Ý"/>
<glyph d="M214 610h187q123 0 196.5 -67t63.5 -175q-11 -110 -96 -178.5t-214 -68.5h-188l-13 -121h-20l74 700h20zM165 141h188q119 -1 199 63.5t89 163.5q10 101 -57.5 161.5t-180.5 60.5h-191z" horiz-adv-x="690" glyph-name="Thorn" unicode="Þ"/>
<glyph d="M348 720q71 0 122 -42t45 -104q-4 -36 -29.5 -61t-54.5 -36.5t-56 -32.5t-33 -49q-4 -19 3 -34t18 -24t30.5 -17t33 -11.5t32.5 -7.5q34 -7 51 -11t44.5 -12t41.5 -15t31.5 -19t25 -25.5t12.5 -33t3 -42.5q-4 -51 -34.5 -86.5t-72.5 -51t-93 -17.5q-109 -3 -216 62l11 17 q98 -63 205 -59q72 2 123 36t57 98q2 24 -2.5 42.5t-19 32t-28.5 22.5t-42 17.5t-46.5 13t-55.5 12.5q-22 5 -37.5 9t-36.5 13.5t-34 20.5t-20.5 29.5t-3.5 40.5q5 33 32 57t56.5 36t55 34t29.5 53q6 49 -38.5 87t-109.5 38q-58 0 -106 -35.5t-57 -116.5l-58 -548h-20 l58 549q10 89 63.5 130t120.5 41z" horiz-adv-x="693" glyph-name="germandbls" unicode="ß"/>
<glyph d="M378 544q69 0 126.5 -34.5t92.5 -86.5l12 111h20l-44 -422q-7 -68 31 -110l-19 -8q-33 41 -32 99q-109 -101 -224 -101q-104 0 -175.5 79t-57.5 204q13 119 90.5 194t179.5 75zM376 524q-95 0 -166 -71.5t-82 -179.5q-12 -114 51.5 -187.5t162.5 -73.5q109 0 224 109 l28 275q-88 128 -218 128zM477 651l-17 -9l-55 100l21 6z" horiz-adv-x="666" glyph-name="agrave" unicode="à"/>
<glyph d="M378 544q69 0 126.5 -34.5t92.5 -86.5l12 111h20l-44 -422q-7 -68 31 -110l-19 -8q-33 41 -32 99q-109 -101 -224 -101q-104 0 -175.5 79t-57.5 204q13 119 90.5 194t179.5 75zM376 524q-95 0 -166 -71.5t-82 -179.5q-12 -114 51.5 -187.5t162.5 -73.5q109 0 224 109 l28 275q-88 128 -218 128zM512 742l-65 -100l-16 9l61 97z" horiz-adv-x="666" glyph-name="aacute" unicode="á"/>
<glyph d="M378 544q69 0 126.5 -34.5t92.5 -86.5l12 111h20l-44 -422q-7 -68 31 -110l-19 -8q-33 41 -32 99q-109 -101 -224 -101q-104 0 -175.5 79t-57.5 204q13 119 90.5 194t179.5 75zM376 524q-95 0 -166 -71.5t-82 -179.5q-12 -114 51.5 -187.5t162.5 -73.5q109 0 224 109 l28 275q-88 128 -218 128zM517 642l-63 94l-83 -94l-15 12l90 100h20l68 -100z" horiz-adv-x="666" glyph-name="acircumflex" unicode="â"/>
<glyph d="M378 544q69 0 126.5 -34.5t92.5 -86.5l12 111h20l-44 -422q-7 -68 31 -110l-19 -8q-33 41 -32 99q-109 -101 -224 -101q-104 0 -175.5 79t-57.5 204q13 119 90.5 194t179.5 75zM376 524q-95 0 -166 -71.5t-82 -179.5q-12 -114 51.5 -187.5t162.5 -73.5q109 0 224 109 l28 275q-88 128 -218 128zM377 755q29 -1 73.5 -28t70.5 -27q37 0 58 41l18 -8q-24 -53 -76 -53q-30 0 -76 27t-71 28q-42 1 -62 -42l-18 9q24 54 83 53z" horiz-adv-x="666" glyph-name="atilde" unicode="ã"/>
<glyph d="M395 709q9 0 15 -6.5t5 -15.5q-1 -10 -9 -16t-16 -6q-9 0 -14.5 6.5t-4.5 15.5t7.5 15.5t16.5 6.5zM515 709q9 0 15 -6.5t5 -15.5q-1 -10 -9 -16t-16 -6q-9 0 -14.5 6.5t-4.5 15.5t7.5 15.5t16.5 6.5zM378 544q69 0 126.5 -34.5t92.5 -86.5l12 111h20l-44 -422 q-7 -68 31 -110l-19 -8q-33 41 -32 99q-109 -101 -224 -101q-104 0 -175.5 79t-57.5 204q13 119 90.5 194t179.5 75zM376 524q-95 0 -166 -71.5t-82 -179.5q-12 -114 51.5 -187.5t162.5 -73.5q109 0 224 109l28 275q-88 128 -218 128z" horiz-adv-x="666" glyph-name="adieresis" unicode="ä"/>
<glyph d="M378 544q69 0 126.5 -34.5t92.5 -86.5l12 111h20l-44 -422q-7 -68 31 -110l-19 -8q-33 41 -32 99q-109 -101 -224 -101q-104 0 -175.5 79t-57.5 204q13 119 90.5 194t179.5 75zM376 524q-95 0 -166 -71.5t-82 -179.5q-12 -114 51.5 -187.5t162.5 -73.5q109 0 224 109 l28 275q-88 128 -218 128zM465 830q45 0 75 -32.5t25 -76.5q-5 -48 -40 -78.5t-83 -30.5q-45 0 -75 32.5t-26 76.5q4 47 39.5 78t84.5 31zM463 810q-38 0 -68 -26t-34 -63t20.5 -63t62.5 -26t67.5 26t33.5 63t-20 63t-62 26z" horiz-adv-x="666" glyph-name="aring" unicode="å"/>
<glyph d="M574 288l-3 -21q-13 -107 59 -179.5t193 -72.5q111 0 201 62l11 -16q-97 -66 -212 -66q-80 0 -144 32t-98 89q-107 -124 -240 -124q-104 0 -175.5 79t-57.5 204q13 119 90.5 194t179.5 75q69 0 128 -36t99 -101q44 61 113.5 96.5t144.5 35.5q95 0 160 -53.5t58 -131.5 q-7 -80 -83 -127t-176 -43q-134 5 -248 104zM569 134l4 -3q-32 61 -23 138q7 63 42 118q-35 64 -93 100.5t-123 36.5q-95 0 -166 -71.5t-82 -179.5q-12 -114 51.5 -187.5t162.5 -73.5q64 0 123.5 33.5t103.5 88.5zM863 518q-97 0 -177 -58.5t-106 -149.5q118 -104 248 -106 q87 -2 156.5 38t76.5 112q7 71 -51.5 117.5t-146.5 46.5z" horiz-adv-x="1078" glyph-name="ae" unicode="æ"/>
<glyph d="M411 529q-111 0 -194.5 -73t-95.5 -187q-12 -116 59 -185t176 -69q109 0 196 73l11 -16q-87 -73 -197 -77l-65 -100l-20 6l65 94q-52 2 -98 21t-81.5 52t-54 85.5t-11.5 116.5q13 127 103.5 202t205.5 77q103 1 187 -64l-12 -16q-74 60 -174 60z" horiz-adv-x="611" glyph-name="ccedilla" unicode="ç"/>
<glyph d="M456 635l-55 100l21 6l51 -97zM132 288l-3 -21q-13 -107 59 -179.5t193 -72.5q111 0 201 62l11 -16q-97 -66 -212 -66q-128 0 -207.5 77.5t-65.5 196.5q14 115 106 192.5t207 77.5q95 0 160 -53.5t58 -131.5q-7 -80 -83 -127t-176 -43q-134 5 -248 104zM421 518 q-97 0 -177 -58.5t-106 -149.5q118 -104 248 -106q87 -2 156.5 38t76.5 112q7 71 -51.5 117.5t-146.5 46.5z" horiz-adv-x="654" glyph-name="egrave" unicode="è"/>
<glyph d="M429 629l-16 9l61 97l20 -6zM132 288l-3 -21q-13 -107 59 -179.5t193 -72.5q111 0 201 62l11 -16q-97 -66 -212 -66q-128 0 -207.5 77.5t-65.5 196.5q14 115 106 192.5t207 77.5q95 0 160 -53.5t58 -131.5q-7 -80 -83 -127t-176 -43q-134 5 -248 104zM421 518 q-97 0 -177 -58.5t-106 -149.5q118 -104 248 -106q87 -2 156.5 38t76.5 112q7 71 -51.5 117.5t-146.5 46.5z" horiz-adv-x="654" glyph-name="eacute" unicode="é"/>
<glyph d="M344 645l-15 12l90 100h20l68 -100l-17 -12l-63 94zM132 288l-3 -21q-13 -107 59 -179.5t193 -72.5q111 0 201 62l11 -16q-97 -66 -212 -66q-128 0 -207.5 77.5t-65.5 196.5q14 115 106 192.5t207 77.5q95 0 160 -53.5t58 -131.5q-7 -80 -83 -127t-176 -43 q-134 5 -248 104zM421 518q-97 0 -177 -58.5t-106 -149.5q118 -104 248 -106q87 -2 156.5 38t76.5 112q7 71 -51.5 117.5t-146.5 46.5z" horiz-adv-x="654" glyph-name="ecircumflex" unicode="ê"/>
<glyph d="M366 657q-9 0 -14.5 6.5t-4.5 15.5t7.5 15.5t16.5 6.5q9 0 15 -6.5t5 -15.5q-1 -10 -9 -16t-16 -6zM486 657q-9 0 -14.5 6.5t-4.5 15.5t7.5 15.5t16.5 6.5q9 0 15 -6.5t5 -15.5q-1 -10 -9 -16t-16 -6zM132 288l-3 -21q-13 -107 59 -179.5t193 -72.5q111 0 201 62l11 -16 q-97 -66 -212 -66q-128 0 -207.5 77.5t-65.5 196.5q14 115 106 192.5t207 77.5q95 0 160 -53.5t58 -131.5q-7 -80 -83 -127t-176 -43q-134 5 -248 104zM421 518q-97 0 -177 -58.5t-106 -149.5q118 -104 248 -106q87 -2 156.5 38t76.5 112q7 71 -51.5 117.5t-146.5 46.5z" horiz-adv-x="654" glyph-name="edieresis" unicode="ë"/>
<glyph d="M172 534l-44 -415q-5 -46 21.5 -74.5t67.5 -28.5q24 0 48 11l7 -19q-28 -12 -56 -12q-50 0 -82 33.5t-26 88.5l44 416h20zM204 631l-17 -9l-55 100l21 6z" horiz-adv-x="270" glyph-name="igrave" unicode="ì"/>
<glyph d="M172 534l-44 -415q-5 -46 21.5 -74.5t67.5 -28.5q24 0 48 11l7 -19q-28 -12 -56 -12q-50 0 -82 33.5t-26 88.5l44 416h20zM239 722l-65 -100l-16 9l61 97z" horiz-adv-x="270" glyph-name="iacute" unicode="í"/>
<glyph d="M271 641l-63 94l-83 -94l-15 12l90 100h20l68 -100zM172 534l-44 -415q-5 -46 21.5 -74.5t67.5 -28.5q24 0 48 11l7 -19q-28 -12 -56 -12q-50 0 -82 33.5t-26 88.5l44 416h20z" horiz-adv-x="250" glyph-name="icircumflex" unicode="î"/>
<glyph d="M117 689q9 0 15 -6.5t5 -15.5q-1 -10 -9 -16t-16 -6q-9 0 -14.5 6.5t-4.5 15.5t7.5 15.5t16.5 6.5zM237 689q9 0 15 -6.5t5 -15.5q-1 -10 -9 -16t-16 -6q-9 0 -14.5 6.5t-4.5 15.5t7.5 15.5t16.5 6.5zM167 534l-44 -415q-5 -46 21.5 -74.5t67.5 -28.5q24 0 48 11l7 -19 q-28 -12 -56 -12q-50 0 -82 33.5t-26 88.5l44 416h20z" horiz-adv-x="270" glyph-name="idieresis" unicode="ï"/>
<glyph d="M591 744l-92 -107q140 -108 132 -302q-6 -150 -90 -241.5t-200 -99.5q-101 -7 -173.5 55t-68.5 175q4 101 72 170t164 75q78 5 152.5 -36t122.5 -114l1 16q3 150 -76.5 240.5t-190.5 107.5l7 20q73 -13 134 -55l90 108zM339 14q101 7 176 81t92 199q-51 77 -124 118.5 t-147 36.5q-89 -5 -151.5 -69.5t-65.5 -157.5q-2 -69 30 -119t82 -71.5t108 -17.5z" horiz-adv-x="635" glyph-name="eth" unicode="ð"/>
<glyph d="M366 732q29 -1 73.5 -28t70.5 -27q38 0 58 41l18 -8q-24 -53 -76 -53q-30 0 -76 27t-71 28q-42 1 -62 -42l-18 9q24 54 83 53zM123 524l19 9q40 -50 30 -133q43 63 108.5 105.5t141.5 42.5q91 0 147 -62.5t44 -169.5l-33 -316h-20l33 315q10 98 -41 155.5t-132 57.5 q-72 0 -137.5 -45t-113.5 -115l-39 -368h-20l43 402q7 74 -30 122z" horiz-adv-x="675" glyph-name="ntilde" unicode="ñ"/>
<glyph d="M404 548q110 0 181.5 -75t60.5 -203q-8 -88 -55 -152.5t-110 -94.5t-130 -30q-107 0 -182 75.5t-62 202.5q12 123 98.5 200t198.5 77zM402 528q-104 0 -183.5 -72.5t-91.5 -185.5q-12 -117 55.5 -187t168.5 -70q100 0 181.5 69t93.5 188q12 118 -55 188t-169 70zM428 636 l-17 -9l-55 100l21 6z" horiz-adv-x="671" glyph-name="ograve" unicode="ò"/>
<glyph d="M404 548q110 0 181.5 -75t60.5 -203q-8 -88 -55 -152.5t-110 -94.5t-130 -30q-107 0 -182 75.5t-62 202.5q12 123 98.5 200t198.5 77zM402 528q-104 0 -183.5 -72.5t-91.5 -185.5q-12 -117 55.5 -187t168.5 -70q100 0 181.5 69t93.5 188q12 118 -55 188t-169 70zM463 727 l-65 -100l-16 9l61 97z" horiz-adv-x="671" glyph-name="oacute" unicode="ó"/>
<glyph d="M468 627l-63 94l-83 -94l-15 12l90 100h20l68 -100zM404 548q110 0 181.5 -75t60.5 -203q-8 -88 -55 -152.5t-110 -94.5t-130 -30q-107 0 -182 75.5t-62 202.5q12 123 98.5 200t198.5 77zM402 528q-104 0 -183.5 -72.5t-91.5 -185.5q-12 -117 55.5 -187t168.5 -70 q100 0 181.5 69t93.5 188q12 118 -55 188t-169 70z" horiz-adv-x="671" glyph-name="ocircumflex" unicode="ô"/>
<glyph d="M404 548q110 0 181.5 -75t60.5 -203q-8 -88 -55 -152.5t-110 -94.5t-130 -30q-107 0 -182 75.5t-62 202.5q12 123 98.5 200t198.5 77zM402 528q-104 0 -183.5 -72.5t-91.5 -185.5q-12 -117 55.5 -187t168.5 -70q100 0 181.5 69t93.5 188q12 118 -55 188t-169 70zM328 740 q29 -1 73.5 -28t70.5 -27q37 0 58 41l18 -8q-24 -53 -76 -53q-30 0 -76 27t-71 28q-42 1 -62 -42l-18 9q24 54 83 53z" horiz-adv-x="671" glyph-name="otilde" unicode="õ"/>
<glyph d="M346 694q9 0 15 -6.5t5 -15.5q-1 -10 -9 -16t-16 -6q-9 0 -14.5 6.5t-4.5 15.5t7.5 15.5t16.5 6.5zM466 694q9 0 15 -6.5t5 -15.5q-1 -10 -9 -16t-16 -6q-9 0 -14.5 6.5t-4.5 15.5t7.5 15.5t16.5 6.5zM404 548q110 0 181.5 -75t60.5 -203q-8 -88 -55 -152.5t-110 -94.5 t-130 -30q-107 0 -182 75.5t-62 202.5q12 123 98.5 200t198.5 77zM402 528q-104 0 -183.5 -72.5t-91.5 -185.5q-12 -117 55.5 -187t168.5 -70q100 0 181.5 69t93.5 188q12 118 -55 188t-169 70z" horiz-adv-x="671" glyph-name="odieresis" unicode="ö"/>
<glyph d="M423 445h-1q-12 0 -21 9.5t-9 23.5q0 13 9 22t22 9q12 0 21.5 -9t9.5 -22q0 -14 -9.5 -23.5t-21.5 -9.5zM719 270h-599v27h599v-27zM423 123h1q11 0 20 -9.5t9 -24.5q0 -12 -9.5 -22t-20.5 -10q-14 0 -23 9.5t-9 22.5q0 34 32 34z" horiz-adv-x="785" glyph-name="divide" unicode="÷"/>
<glyph d="M586 590l-48 -78q56 -34 84.5 -96.5t19.5 -145.5q-9 -88 -56.5 -152.5t-110.5 -94.5t-131 -30q-58 0 -109 23l-43 -70h-24l49 79q-60 33 -91.5 96t-22.5 150q13 122 100.5 200t199.5 78q66 0 118 -27l42 68h23zM123 270q-8 -80 21 -138t84 -89l282 460q-52 26 -110 26 q-103 0 -184 -72t-93 -187zM622 270q8 78 -18 134.5t-77 88.5l-281 -459q45 -21 100 -21q98 -1 181 68t95 189z" horiz-adv-x="671" glyph-name="oslash" unicode="ø"/>
<glyph d="M626 534l-43 -410q-9 -76 30 -122l-19 -9q-38 45 -32 118q-39 -51 -105 -90t-141 -39q-87 0 -139.5 57.5t-41.5 160.5l35 334h20l-35 -333q-10 -94 35 -146.5t126 -52.5q73 0 139.5 42t109.5 101l41 389h20zM425 631l-17 -9l-55 100l21 6z" horiz-adv-x="675" glyph-name="ugrave" unicode="ù"/>
<glyph d="M626 534l-43 -410q-9 -76 30 -122l-19 -9q-38 45 -32 118q-39 -51 -105 -90t-141 -39q-87 0 -139.5 57.5t-41.5 160.5l35 334h20l-35 -333q-10 -94 35 -146.5t126 -52.5q73 0 139.5 42t109.5 101l41 389h20zM438 727l-65 -100l-16 9l61 97z" horiz-adv-x="675" glyph-name="uacute" unicode="ú"/>
<glyph d="M626 534l-43 -410q-9 -76 30 -122l-19 -9q-38 45 -32 118q-39 -51 -105 -90t-141 -39q-87 0 -139.5 57.5t-41.5 160.5l35 334h20l-35 -333q-10 -94 35 -146.5t126 -52.5q73 0 139.5 42t109.5 101l41 389h20zM472 644l-63 94l-83 -94l-15 12l90 100h20l68 -100z" horiz-adv-x="675" glyph-name="ucircumflex" unicode="û"/>
<glyph d="M346 711q9 0 15 -6.5t5 -15.5q-1 -10 -9 -16t-16 -6q-9 0 -14.5 6.5t-4.5 15.5t7.5 15.5t16.5 6.5zM466 711q9 0 15 -6.5t5 -15.5q-1 -10 -9 -16t-16 -6q-9 0 -14.5 6.5t-4.5 15.5t7.5 15.5t16.5 6.5zM626 534l-43 -410q-9 -76 30 -122l-19 -9q-38 45 -32 118 q-39 -51 -105 -90t-141 -39q-87 0 -139.5 57.5t-41.5 160.5l35 334h20l-35 -333q-10 -94 35 -146.5t126 -52.5q73 0 139.5 42t109.5 101l41 389h20z" horiz-adv-x="675" glyph-name="udieresis" unicode="ü"/>
<glyph d="M380 622l-16 9l61 97l20 -6zM664 534l-399 -661q-59 -98 -152 -101q-70 -3 -131 55l13 15q51 -50 112 -50q85 0 139 89l66 108l-228 545h22l219 -524l316 524h23z" horiz-adv-x="625" glyph-name="yacute" unicode="ý"/>
<glyph d="M118 750l19 9q39 -48 31 -128l-19 -185q98 96 212 96q104 0 173 -78t55 -205q-13 -119 -88 -194t-175 -75q-67 0 -122 34.5t-90 85.5l-31 -299h-20l85 820q7 73 -30 119zM360 522q-110 0 -214 -102l-29 -282q88 -128 211 -128q92 0 161 71.5t80 179.5q12 114 -50 187.5 t-159 73.5z" horiz-adv-x="628" glyph-name="thorn" unicode="þ"/>
<glyph d="M172 534l-44 -415q-5 -46 21.5 -74.5t67.5 -28.5q24 0 48 11l7 -19q-28 -12 -56 -12q-50 0 -82 33.5t-26 88.5l44 416h20z" horiz-adv-x="270" glyph-name="dotlessi" unicode="ı"/>
<glyph d="M615 778l-63 94l-83 -94l-15 12l90 100h20l68 -100z" horiz-adv-x="559" glyph-name="circumflex" unicode="ˆ"/>
<glyph d="M476 855q9 0 15 -6.5t5 -15.5q-1 -10 -9 -16t-16 -6q-9 0 -14.5 6.5t-4.5 15.5t7.5 15.5t16.5 6.5z" horiz-adv-x="635" glyph-name="dotaccent" unicode="˙"/>
<glyph d="M546 976q45 0 75 -32.5t25 -76.5q-5 -48 -40 -78.5t-83 -30.5q-45 0 -75 32.5t-26 76.5q4 47 39.5 78t84.5 31zM544 956q-38 0 -68 -26t-34 -63t20.5 -63t62.5 -26t67.5 26t33.5 63t-20 63t-62 26z" horiz-adv-x="614" glyph-name="ring" unicode="˚"/>
<glyph d="M483 873q29 -1 73.5 -28t70.5 -27q37 0 58 41l18 -8q-24 -53 -76 -53q-30 0 -76 27t-71 28q-42 1 -62 -42l-18 9q24 54 83 53z" horiz-adv-x="605" glyph-name="tilde" unicode="˜"/>
<glyph d="M125 742q12 0 20.5 -9t7.5 -25q-2 -21 -17.5 -38t-40.5 -24v20q24 9 27 33q-10 -1 -16.5 5.5t-5.5 16.5q2 21 25 21z" horiz-adv-x="85" glyph-name="quoteright" unicode="’"/>
<glyph d="M114 272l202 -272h-25l-203 273l255 261h28z" horiz-adv-x="371" glyph-name="guilsinglleft" unicode="‹"/>
<glyph d="M72 0h-25l528 700h26z" horiz-adv-x="640" glyph-name="fraction" unicode="⁄"/>
<glyph d="M322 440h59l-2 -20h-59l-9 -88h-20l9 88h-211l2 16l243 265h16zM120 440h182l24 224z" horiz-adv-x="400" glyph-name="foursuperior" unicode="⁴"/>
<glyph horiz-adv-x="699" glyph-name="dcaron.ss02" d="M655 723l-62 -597q-8 -77 30 -122l-19 -9q-35 41 -32 103q-92 -106 -222 -106q-110 0 -183 81t-60 207q12 117 90.5 190.5t182.5 73.5q72 0 130 -36t94 -96l31 311h20zM378 524q-96 0 -167.5 -68.5t-83.5 -176.5q-12 -116 54 -191.5t169 -75.5q67 0 127 33.5t97 81.5 l27 257q-37 65 -95 102.5t-128 37.5z"/>
<glyph horiz-adv-x="472" glyph-name="tcaron.ss02" d="M236 534h206l-2 -20h-206l-38 -360q-7 -70 27 -106.5t90 -37.5q58 -1 118 36l9 -18q-71 -39 -128 -38q-64 1 -104.5 44t-31.5 120l38 360h-125l2 20h125l18 166h20z"/>
<glyph horiz-adv-x="425" glyph-name="three.dnom" d="M245 360q49 0 79.5 -26t25.5 -65q-8 -58 -72 -82q34 -9 55 -33.5t17 -59.5q-5 -47 -46.5 -73.5t-95.5 -26.5q-73 0 -136 47l12 17q57 -44 125 -44q47 0 82 22t39 57q4 34 -25.5 58t-69.5 24h-66l2 20h66q32 0 61 22t32 51q3 31 -20.5 51.5t-66.5 20.5q-50 0 -109 -34 l-8 18q60 36 119 36z"/>
<glyph horiz-adv-x="287" glyph-name="one.numr" d="M177 328h-20l37 347l-39 -31l-11 15l50 40h22z"/>
<glyph horiz-adv-x="400" glyph-name="two.numr" d="M281 676q43 0 71 -29.5t24 -73.5q-4 -40 -28.5 -69.5t-68.5 -61.5l-141 -104h224l-2 -20h-259l2 15l163 123q43 33 64 58t24 59q4 36 -18.5 60t-56.5 24q-39 0 -71 -25t-42 -70l-22 4q14 52 52.5 81t84.5 29z"/>
</font>
</defs>
</svg>
