<?xml version="1.0" encoding="UTF-8" standalone="no"?>
<!DOCTYPE svg  PUBLIC '-//W3C//DTD SVG 1.1//EN'  'http://www.w3.org/Graphics/SVG/1.1/DTD/svg11.dtd'>
<svg xmlns="http://www.w3.org/2000/svg" version="1.1">
<defs>
<font id="TideSans-500Dudette" horiz-adv-x="678">
<font-face bbox="-165 -305 1099 989" cap-height="700" units-per-em="1000" panose-1="0 0 6 0 0 0 0 0 0 0" unicode-range="U+0020-2074" underline-thickness="50" x-height="536" font-family="s" font-weight="400" underline-position="-100" descent="-285" ascent="715"/>
<missing-glyph/>
<glyph horiz-adv-x="350" glyph-name="space" unicode=" "/>
<glyph horiz-adv-x="332" glyph-name="exclam" d="M227 215h-123l-15 485h157zM164 148q32 0 55 -23.5t23 -55.5q0 -33 -23 -55.5t-55 -22.5t-55 23t-23 55t23 55.5t55 23.5z" unicode="!"/>
<glyph horiz-adv-x="333" glyph-name="quotedbl" d="M146 764v-92l-19 -95h-75l-20 95v92h114zM301 764v-92l-19 -95h-75l-20 95v92h114z" unicode='&quot;'/>
<glyph horiz-adv-x="772" glyph-name="numbersign" d="M582 393l-18 -146h128v-113h-142l-17 -134h-116l17 134h-152l-17 -134h-116l17 134h-115v113h129l18 146h-117v112h131l17 136h116l-17 -136h152l17 136h116l-17 -136h126v-112h-140zM466 393h-152l-18 -146h152z" unicode="#"/>
<glyph horiz-adv-x="542" glyph-name="dollar" d="M324 402q41 -9 68.5 -19t55.5 -28.5t39 -49t4 -72.5q-12 -70 -65 -108.5t-127 -42.5l-12 -72l-95 16l10 66q-79 18 -154 68l49 108q92 -63 195 -63q31 0 51 10.5t24 28.5q3 12 -3.5 20t-22 13t-31 8.5t-40 8t-41.5 9.5q-155 44 -131 159q12 59 62.5 98t123.5 44l13 76 l95 -16l-12 -67q62 -16 117 -50l-42 -99q-72 50 -150 50q-77 0 -89 -39q-8 -27 36 -40q7 -3 72 -17z" unicode="$"/>
<glyph horiz-adv-x="831" glyph-name="percent" d="M212 716q71 0 114.5 -45.5t43.5 -109.5q0 -67 -43 -110.5t-115 -43.5q-67 0 -113 43t-46 111q0 67 45.5 111t113.5 44zM241 0h-119l453 700h120zM214 639q-35 0 -57.5 -23.5t-22.5 -55.5t22.5 -55.5t57.5 -23.5t57 23.5t22 55.5t-22 55.5t-57 23.5zM620 299 q71 0 114.5 -46t43.5 -110q0 -67 -43.5 -110.5t-114.5 -43.5q-67 0 -113 43t-46 111q0 67 45.5 111.5t113.5 44.5zM622 220q-35 0 -56.5 -23t-21.5 -55q0 -31 21.5 -54t56.5 -23q34 0 55.5 23t21.5 54q0 32 -21.5 55t-55.5 23z" unicode="%"/>
<glyph horiz-adv-x="825" glyph-name="ampersand" d="M632 0l-38 39q-102 -78 -232 -78q-76 0 -141.5 23.5t-110 77t-44.5 128.5q0 79 47.5 130t128.5 89l-7 7q-54 56 -54 128q0 80 62.5 134.5t147.5 54.5q89 0 145.5 -54.5t56.5 -133.5q0 -103 -129 -170l106 -111q14 48 14 106h150q4 -130 -49 -226l137 -144h-190zM376 467 q82 39 82 83q0 27 -18.5 44t-47.5 17q-27 0 -45.5 -16.5t-19.5 -42.5q-1 -33 49 -85zM359 96q75 0 134 50l-161 168q-56 -27 -85.5 -54.5t-29.5 -65.5q0 -47 40 -72.5t102 -25.5z" unicode="&amp;"/>
<glyph horiz-adv-x="178" glyph-name="quotesingle" d="M146 764v-92l-19 -95h-75l-20 95v92h114z" unicode="&apos;"/>
<glyph horiz-adv-x="407" glyph-name="parenleft" d="M195 789l124 -62q-120 -221 -120 -429q0 -202 122 -431l-123 -63q-35 66 -54.5 106t-45.5 107t-38 136t-12 144q0 74 12 143.5t37.5 135.5t45 107.5t52.5 105.5z" unicode="("/>
<glyph horiz-adv-x="407" glyph-name="parenright" d="M88 727l124 62q33 -64 52.5 -105.5t45 -107.5t37.5 -135.5t12 -143.5q0 -75 -12 -144t-38 -136t-45.5 -107t-54.5 -106l-123 63q122 229 122 431q0 208 -120 429z" unicode=")"/>
<glyph horiz-adv-x="456" glyph-name="asterisk" d="M286 601l64 -90l-61 -39l-62 90l-57 -89l-61 43l60 87l-100 21l18 75l103 -25l1 106l79 -2l-3 -103l101 22l19 -76z" unicode="*"/>
<glyph horiz-adv-x="708" glyph-name="plus" d="M412 401h200v-108h-200v-215h-118v215h-198l-1 108h199v215h118v-215z" unicode="+"/>
<glyph horiz-adv-x="240" glyph-name="comma" d="M115 134q35 0 60.5 -26t25.5 -69q0 -57 -43 -96t-103 -39l5 46q42 7 51 46q-28 -6 -50.5 13t-22.5 51q0 31 22.5 52.5t54.5 21.5z" unicode=","/>
<glyph horiz-adv-x="414" glyph-name="hyphen" d="M379 294h-344v117h344v-117z" unicode="-"/>
<glyph horiz-adv-x="235" glyph-name="period" d="M117 144q32 0 55.5 -23.5t23.5 -55.5q0 -33 -24 -56.5t-55 -23.5q-32 0 -55.5 23.5t-23.5 56.5q0 32 23.5 55.5t55.5 23.5z" unicode="."/>
<glyph horiz-adv-x="469" glyph-name="slash" d="M181 -123h-129l250 857h129z" unicode="/"/>
<glyph horiz-adv-x="763" glyph-name="zero" d="M381 712q60 0 117 -22.5t105 -65t77.5 -113.5t29.5 -161t-29 -161t-77 -114t-105 -65t-118 -22t-118 22t-104.5 65t-76.5 114.5t-29 161.5q0 89 28.5 160.5t76.5 114t105 64.5t118 22zM381 576q-75 0 -126.5 -59t-51.5 -164q0 -108 51 -169t127 -61t127.5 60.5 t51.5 167.5q0 106 -51.5 165.5t-127.5 59.5z" unicode="0"/>
<glyph horiz-adv-x="422" glyph-name="one" d="M314 0h-150v575l-73 -47l-48 81l137 91h134v-700z" unicode="1"/>
<glyph horiz-adv-x="676" glyph-name="two" d="M328 709q104 0 181.5 -64.5t77.5 -164.5q0 -116 -119 -212l-166 -133h300v-135h-550v117l309 237q76 58 76 117q0 44 -33.5 73.5t-82.5 29.5q-81 0 -129 -94l-125 69q34 67 103.5 113.5t157.5 46.5z" unicode="2"/>
<glyph horiz-adv-x="644" glyph-name="three" d="M317 711q106 0 175 -49t68 -132q-1 -56 -35 -97t-90 -60q66 -12 110 -58t44 -116q0 -96 -80 -151.5t-194 -55.5q-145 0 -274 86l57 116q107 -66 206 -66q62 0 98.5 24t36.5 58t-36.5 57.5t-92.5 23.5h-111v135h102q49 0 79.5 21t30.5 54q0 31 -29.5 52.5t-83.5 21.5 q-82 0 -168 -55l-57 120q124 71 244 71z" unicode="3"/>
<glyph horiz-adv-x="671" glyph-name="four" d="M533 276h100v-135h-100v-141h-143v141h-362v104l353 455h152v-424zM202 276h191v246z" unicode="4"/>
<glyph horiz-adv-x="692" glyph-name="five" d="M570 565h-310l-14 -141q77 45 157 45q93 0 155 -59t62 -161q0 -120 -86.5 -190.5t-206.5 -70.5q-141 0 -261 95l68 110q88 -70 184 -69q65 1 108 33.5t42 86.5q-1 50 -39.5 81t-98.5 31q-81 0 -171 -60l-62 41l32 363h441v-135z" unicode="5"/>
<glyph horiz-adv-x="684" glyph-name="six" d="M399 477q98 0 171 -65.5t73 -164.5q0 -110 -82.5 -183t-198.5 -73q-62 0 -118.5 22.5t-102.5 64.5t-73.5 109.5t-27.5 151.5q0 89 30.5 161t81 117t112.5 69t129 24q109 0 205 -59l-51 -121q-70 47 -145 47q-85 0 -145 -57t-66 -161q33 55 88 86.5t120 31.5zM370 126 q51 0 87 30t36 82q0 51 -34.5 80t-83.5 29q-53 0 -97 -33t-67 -83q24 -51 68 -78t91 -27z" unicode="6"/>
<glyph horiz-adv-x="620" glyph-name="seven" d="M566 566l-322 -566h-189l328 549h-338v151h521v-134z" unicode="7"/>
<glyph horiz-adv-x="699" glyph-name="eight" d="M349 710q108 1 184 -49.5t77 -138.5q1 -63 -38.5 -104.5t-88.5 -51.5q59 -13 109 -59t51 -115q1 -93 -82 -148t-210 -57q-128 -2 -210 52.5t-83 146.5q-1 73 48.5 120.5t106.5 57.5q-47 11 -85 51.5t-39 101.5q-1 87 74.5 139.5t185.5 53.5zM348 581q-46 -1 -78 -23.5 t-31 -54.5q1 -30 31 -49.5t80 -18.5q49 1 78 20.5t28 50.5t-34.5 53.5t-73.5 21.5zM349 291q-63 -1 -101.5 -24.5t-38.5 -61.5q0 -36 37.5 -61.5t103.5 -24.5q64 1 102.5 27t37.5 63t-39.5 60t-101.5 22z" unicode="8"/>
<glyph horiz-adv-x="694" glyph-name="nine" d="M336 710q62 0 118 -22.5t100.5 -64.5t71 -109.5t26.5 -151.5q0 -174 -103.5 -272.5t-248.5 -98.5q-112 0 -205 60l51 119q71 -46 145 -46q79 0 138.5 50.5t73.5 142.5q-35 -48 -89.5 -75.5t-117.5 -27.5q-98 0 -171 63.5t-74 172.5q-1 114 82.5 187t202.5 73zM325 344 q50 0 92.5 28.5t70.5 74.5q-20 59 -61 93.5t-97 34.5q-57 0 -94 -34t-36 -86q1 -51 36.5 -81t88.5 -30z" unicode="9"/>
<glyph horiz-adv-x="227" glyph-name="colon" d="M113 507q29 0 51 -22t22 -52t-22 -52t-51 -22q-30 0 -52 21.5t-22 52.5q0 30 22 52t52 22zM113 163q29 0 51 -22t22 -52t-22 -52t-51 -22q-30 0 -52 21.5t-22 52.5q0 30 22 52t52 22z" unicode=":"/>
<glyph horiz-adv-x="261" glyph-name="semicolon" d="M117 499q31 0 53.5 -23t22.5 -54q0 -32 -23 -55t-53 -23q-32 0 -54.5 23t-22.5 55t23 54.5t54 22.5zM132 134q35 0 60.5 -26t25.5 -69q0 -57 -43 -96t-103 -39l5 46q42 7 51 46q-28 -6 -50.5 13t-22.5 51q0 31 22.5 52.5t54.5 21.5z" unicode=";"/>
<glyph horiz-adv-x="687" glyph-name="less" d="M581 455l-368 -108l368 -108l-31 -119l-506 174v102l506 176z" unicode="&lt;"/>
<glyph glyph-name="equal" d="M592 390h-505l-1 107h506v-107zM592 180h-505l-1 108h506v-108z" unicode="="/>
<glyph horiz-adv-x="687" glyph-name="greater" d="M605 396v-102l-506 -174l-31 119l368 108l-368 108l31 117z" unicode="&gt;"/>
<glyph horiz-adv-x="649" glyph-name="question" d="M287 710q101 8 178.5 -45t77.5 -147q0 -41 -14.5 -72.5t-35.5 -49t-46.5 -36.5t-46.5 -36t-35.5 -47t-14.5 -69l-149 -1q0 68 19.5 118.5t48 76.5t56.5 44.5t47.5 36t19.5 36.5q0 29 -26.5 45t-65.5 12q-38 -4 -64 -26t-47 -69l-123 61q30 74 88.5 118t132.5 50zM278 146 q31 0 53 -22t22 -53q0 -32 -22.5 -54t-52.5 -22q-31 0 -53.5 22.5t-22.5 53.5t22.5 53t53.5 22z" unicode="?"/>
<glyph horiz-adv-x="1078" glyph-name="at" d="M589 727q133 0 240 -56t165.5 -165.5t42.5 -251.5q-16 -138 -88 -213t-162 -74q-62 1 -102.5 38t-48.5 97q-63 -88 -162 -88q-78 0 -135.5 62t-45.5 177q12 107 75 164t142 57q96 0 155 -77l10 57l120 1l-32 -293q-5 -79 38 -79q38 0 70.5 47.5t41.5 125.5 q17 153 -79 253.5t-248 100.5q-99 0 -185.5 -44.5t-144 -128t-67.5 -188.5q-15 -161 79 -265t243 -104q82 0 155 33l34 -114q-93 -37 -190 -37q-98 0 -185 36.5t-148.5 100.5t-94 157t-22.5 200q13 139 88.5 247.5t191 166t249.5 57.5zM542 383q-49 0 -83.5 -35t-40.5 -91 q-6 -58 25 -95t85 -37q23 0 44.5 8.5t32.5 16.5t32 26l17 151q-49 56 -112 56z" unicode="@"/>
<glyph horiz-adv-x="769" glyph-name="A" d="M547 138h-324l-54 -138h-166l309 700h145l309 -700h-164zM492 274l-108 271l-107 -271h215z" unicode="A"/>
<glyph horiz-adv-x="691" glyph-name="B" d="M314 703q283 -3 283 -177q0 -56 -29 -94t-81 -50q72 -12 118 -60t46 -125q0 -202 -335 -202q-55 0 -230 5v700q93 3 228 3zM356 575q-15 1 -55 0.5t-65 -1.5v-139q64 -4 117 0q51 4 74 23.5t20 50.5t-28.5 47.5t-62.5 18.5zM338 306q-45 2 -102 -2v-180q77 -2 119 -1 q68 2 106.5 26.5t38.5 65.5q0 85 -162 91z" unicode="B"/>
<glyph horiz-adv-x="719" glyph-name="C" d="M426 713q114 2 230 -49l-49 -126q-83 43 -169 40q-98 -3 -169 -62.5t-71 -171.5q0 -76 36.5 -128t89 -73t115.5 -21q88 0 167 44l54 -124q-110 -55 -225 -55q-77 0 -146.5 23t-123.5 66t-85.5 112t-31.5 154q0 164 107.5 266t270.5 105z" unicode="C"/>
<glyph horiz-adv-x="768" glyph-name="D" d="M86 0v700q98 2 189 2q75 0 140 -12.5t122 -39t97 -66t63 -97.5t23 -130q0 -172 -122 -266t-327 -94q-118 0 -185 3zM234 566v-433q34 -1 71 0q113 5 189 60t76 160q0 58 -25 101.5t-65.5 66.5t-84 34t-87.5 11h-2h-5.5t-8.5 0.5t-11.5 0.5h-13.5t-15.5 -0.5t-17.5 -0.5z " unicode="D"/>
<glyph horiz-adv-x="662" glyph-name="E" d="M593 565h-357v-150h271v-127h-271v-153h380v-135h-530v700h507v-135z" unicode="E"/>
<glyph horiz-adv-x="627" glyph-name="F" d="M592 565h-356v-182h259v-132h-259v-251h-150v700h506v-135z" unicode="F"/>
<glyph horiz-adv-x="789" glyph-name="G" d="M441 718q117 1 228 -50l-48 -132q-84 50 -176 47q-103 -3 -174.5 -68.5t-71.5 -167.5q0 -101 70.5 -166.5t174.5 -65.5q81 0 151 42v102h-172v130h317v-314q-127 -95 -296 -95q-171 0 -283.5 102.5t-111.5 264.5q1 158 112 264t280 107z" unicode="G"/>
<glyph horiz-adv-x="811" glyph-name="H" d="M725 0h-150v278h-339v-278h-150v700h150v-287h339v287h150v-700z" unicode="H"/>
<glyph horiz-adv-x="318" glyph-name="I" d="M232 0h-146v700h146v-700z" unicode="I"/>
<glyph horiz-adv-x="440" glyph-name="J" d="M367 700v-347q0 -196 -89 -284.5t-265 -88.5l-2 135q100 1 153 62.5t53 178.5v344h150z" unicode="J"/>
<glyph horiz-adv-x="711" glyph-name="K" d="M439 394l286 -394h-184l-195 281l-112 -137v-144h-148v700h148v-355l282 355h173z" unicode="K"/>
<glyph horiz-adv-x="585" glyph-name="L" d="M236 135h344v-135h-494v700h150v-565z" unicode="L"/>
<glyph horiz-adv-x="997" glyph-name="M" d="M911 0h-154v456l-262 -347l-257 348v-457h-152v700h141l267 -359l274 359h143v-700z" unicode="M"/>
<glyph horiz-adv-x="822" glyph-name="N" d="M736 0h-142l-358 462v-462h-150v700h147l352 -459v459h151v-700z" unicode="N"/>
<glyph horiz-adv-x="848" glyph-name="O" d="M424 713q161 0 268.5 -101.5t107.5 -265.5q0 -161 -104 -265t-271 -104q-165 0 -271 102.5t-106 265.5q0 164 107 266t269 102zM424 578q-101 0 -163 -64.5t-62 -168.5q0 -103 62 -168t164 -65q103 0 163.5 66t60.5 168q0 103 -62 167.5t-163 64.5z" unicode="O"/>
<glyph horiz-adv-x="686" glyph-name="P" d="M86 0v700q125 5 216 5q173 0 264.5 -64t91.5 -193q0 -66 -24 -117.5t-65.5 -82.5t-90.5 -47.5t-105 -19.5q-58 -3 -137 -3v-178h-150zM236 569v-256q82 0 117 2q74 5 114.5 35.5t40.5 87.5q0 58 -42 92.5t-114 37.5q-33 1 -116 1z" unicode="P"/>
<glyph horiz-adv-x="875" glyph-name="Q" d="M779 -61l85 -69q-70 -143 -210 -120q-38 7 -75 28t-61 42.5t-54 42t-56 26.5q-70 12 -109 -60l-86 74q32 62 86 92q-115 35 -183 128t-68 222q0 164 107 266t269 102q161 0 268.5 -101.5t107.5 -265.5q0 -139 -79 -237.5t-212 -123.5q23 -14 77 -59t85 -51q65 -9 108 64z M199 345q0 -103 62 -168t164 -65q103 0 163.5 66t60.5 168q0 103 -62 167.5t-163 64.5t-163 -64.5t-62 -168.5z" unicode="Q"/>
<glyph horiz-adv-x="716" glyph-name="R" d="M480 0l-93 185q-32 -2 -46 -2q-23 0 -63.5 0.5t-41.5 0.5v-184h-150v700q30 0 78.5 1t88.5 1.5t75 0.5q149 -1 233.5 -73.5t84.5 -189.5q0 -137 -113 -207l118 -233h-171zM236 570v-253q60 -2 106 1q77 5 115.5 38.5t38.5 87.5q0 56 -44.5 88.5t-115.5 35.5q-36 2 -100 2 z" unicode="R"/>
<glyph horiz-adv-x="674" glyph-name="S" d="M351 712q112 0 222 -51l-43 -130q-92 46 -179 46q-55 0 -89.5 -19t-33.5 -53q0 -11 4.5 -19.5t14.5 -15.5t20.5 -12t28.5 -10.5t32 -9l38 -9.5l40 -10q110 -29 165 -73.5t56 -133.5q1 -110 -79.5 -167.5t-203.5 -59.5q-154 -2 -287 75l54 125q116 -65 221 -64 q65 1 102.5 24t38.5 58q1 19 -8.5 32t-31.5 22t-40.5 14.5t-54.5 13t-56 12.5q-96 25 -151.5 71t-56.5 130q-1 72 40.5 122t102.5 71t134 21z" unicode="S"/>
<glyph horiz-adv-x="615" glyph-name="T" d="M610 565h-228v-565h-150v565h-227v135h605v-135z" unicode="T"/>
<glyph horiz-adv-x="796" glyph-name="U" d="M723 700v-390q0 -155 -92.5 -243.5t-231.5 -88.5q-64 0 -121.5 20.5t-104 59.5t-73.5 103t-27 144v395h150v-402q0 -84 46 -134t127 -50t129 51t48 134v401h150z" unicode="U"/>
<glyph horiz-adv-x="753" glyph-name="V" d="M462 0h-163l-318 700h160l238 -537l233 537h160z" unicode="V"/>
<glyph horiz-adv-x="1110" glyph-name="W" d="M873 0h-143l-172 473l-164 -473h-144l-238 700h151l161 -506l171 506h123l178 -506l152 506h151z" unicode="W"/>
<glyph horiz-adv-x="741" glyph-name="X" d="M371 247l-170 -247h-178l249 358l-236 342h178l157 -231l166 231h177l-241 -343l247 -357h-178z" unicode="X"/>
<glyph horiz-adv-x="775" glyph-name="Y" d="M468 273v-273h-163l-1 278l-284 422h180l188 -286l188 286h180z" unicode="Y"/>
<glyph horiz-adv-x="707" glyph-name="Z" d="M658 572l-410 -436h412v-136h-615v123l419 443h-398v134h592v-128z" unicode="Z"/>
<glyph horiz-adv-x="382" glyph-name="bracketleft" d="M301 682h-88v-765h88v-83h-231v932h232z" unicode="["/>
<glyph horiz-adv-x="452" glyph-name="backslash" d="M144 736l250 -858l-111 -29l-250 858z" unicode="\"/>
<glyph horiz-adv-x="382" glyph-name="bracketright" d="M292 766v-932h-231v83h88v765h-88l-1 84h232z" unicode="]"/>
<glyph horiz-adv-x="636" glyph-name="asciicircum" d="M279 700h77l245 -346h-135l-148 226l-148 -226h-136z" unicode="^"/>
<glyph horiz-adv-x="364" glyph-name="underscore" d="M354 -101h-344v101h344v-101z" unicode="_"/>
<glyph horiz-adv-x="636" glyph-name="grave" d="M498 812l-105 -43l-106 174l140 22z" unicode="`"/>
<glyph horiz-adv-x="664" glyph-name="a" d="M599 536v-536h-129l-4 66q-22 -31 -63.5 -52.5t-94.5 -21.5q-105 0 -184 79.5t-79 204.5q0 120 75.5 194t176.5 74q55 0 98 -23.5t68 -59.5l3 75h133zM324 427q-60 0 -103.5 -42t-43.5 -111q0 -71 44.5 -115.5t109.5 -44.5q78 0 132 64v169q-53 80 -139 80z" unicode="a"/>
<glyph horiz-adv-x="703" glyph-name="b" d="M225 723v-262q86 83 189 83q98 0 171 -69.5t73 -198.5q0 -134 -78 -209t-179 -75q-95 0 -180 74l-4 -66h-132v723h140zM374 421q-85 0 -149 -78v-158q53 -68 137 -69q66 -1 111 42.5t45 113.5q0 67 -42 108t-102 41z" unicode="b"/>
<glyph horiz-adv-x="604" glyph-name="c" d="M350 550q118 0 212 -75l-62 -107q-56 62 -142 62q-75 0 -123.5 -47t-49.5 -115q-1 -69 48 -115t121 -46q84 0 145 63l67 -97q-101 -85 -226 -85q-119 0 -206.5 74t-88.5 205q0 67 26.5 122.5t70 89.5t97.5 52.5t111 18.5z" unicode="c"/>
<glyph horiz-adv-x="703" glyph-name="d" d="M618 723v-723h-132l-4 66q-85 -74 -180 -74q-101 0 -179 75t-78 209q0 129 73 198.5t171 69.5q103 0 189 -83v262h140zM329 421q-60 0 -102 -41t-42 -108q0 -70 45 -113.5t111 -42.5q84 1 137 69v158q-64 78 -149 78z" unicode="d"/>
<glyph horiz-adv-x="663" glyph-name="e" d="M343 552q98 -1 169 -52t97 -127.5t5 -156.5l-421 1q17 -53 63 -80t107 -26q92 1 173 67l69 -101q-40 -35 -104 -60.5t-141 -25.5q-130 0 -222.5 74.5t-92.5 206.5q0 127 86 204.5t212 75.5zM193 330h286q0 42 -36.5 72t-97.5 30q-55 0 -96 -26.5t-56 -75.5z" unicode="e"/>
<glyph horiz-adv-x="426" glyph-name="f" d="M338 765q81 0 161 -43l-40 -98q-51 33 -101 31q-44 -1 -72 -24t-28 -74v-21h125v-120h-125v-416h-140v416h-78v120h78v19q0 104 65 157t155 53z" unicode="f"/>
<glyph horiz-adv-x="675" glyph-name="g" d="M292 544q99 0 179 -80l5 72h134v-514q0 -72 -24.5 -126t-66 -83.5t-89.5 -44t-101 -14.5q-120 0 -233 66l46 107q85 -53 172 -53q70 0 113 35.5t43 104.5v62q-21 -22 -38.5 -36t-52 -27t-75.5 -13q-106 0 -182.5 73t-76.5 203q0 129 74 198.5t173 69.5zM331 423 q-62 0 -104 -41t-42 -106q0 -66 44 -108t108 -42q75 0 133 56v179q-62 62 -139 62z" unicode="g"/>
<glyph horiz-adv-x="693" glyph-name="h" d="M222 725v-285q86 106 194 106q87 0 152 -61t65 -181v-304h-140v293q0 57 -33 91.5t-82 34.5q-88 0 -156 -105v-314h-140v725h140z" unicode="h"/>
<glyph horiz-adv-x="302" glyph-name="i" d="M150 767q33 0 57.5 -23t24.5 -56t-24 -55.5t-57 -22.5t-57 22.5t-24 55.5q0 32 23 55.5t57 23.5zM220 0h-140v536h140v-536z" unicode="i"/>
<glyph horiz-adv-x="282" glyph-name="j" d="M145 758q31 0 53 -21t22 -50q0 -30 -22 -50t-53 -20t-53 20.5t-22 49.5t22 50t53 21zM215 536v-555q0 -107 -66 -164t-158 -57q-77 0 -156 43l44 106q47 -29 102 -28q38 1 66 25t28 78v552h140z" unicode="j"/>
<glyph horiz-adv-x="636" glyph-name="k" d="M221 297l211 239h181l-210 -226l237 -310h-181l-151 208l-87 -94v-114h-139v722h139v-425z" unicode="k"/>
<glyph horiz-adv-x="304" glyph-name="l" d="M222 0h-140v722h140v-722z" unicode="l"/>
<glyph horiz-adv-x="981" glyph-name="m" d="M731 551q78 0 134 -55.5t56 -152.5v-343h-140v322q0 47 -24 75t-63 28q-42 0 -76 -30t-55 -70v-325h-140v322q0 47 -25 75t-65 28q-35 0 -70 -30t-58 -70v-325h-140v536h135l1 -95q31 46 76.5 78t100.5 32q56 0 103.5 -30.5t65.5 -84.5q29 47 76.5 81t107.5 34z" unicode="m"/>
<glyph horiz-adv-x="659" glyph-name="n" d="M398 546q86 0 143.5 -61.5t57.5 -171.5v-313h-141l1 301q0 55 -28 88t-76 33q-46 0 -85.5 -28.5t-64.5 -67.5v-326h-140v536h135l5 -91q90 101 193 101z" unicode="n"/>
<glyph glyph-name="o" d="M340 550q122 0 207.5 -76.5t85.5 -203.5q0 -131 -86.5 -204.5t-206.5 -73.5q-125 0 -210 75t-85 204q0 122 84 200.5t211 78.5zM340 429q-66 0 -110 -42t-44 -117q0 -76 44 -117t110 -41q63 0 107.5 41t44.5 117q0 78 -44 118.5t-108 40.5z" unicode="o"/>
<glyph horiz-adv-x="674" glyph-name="p" d="M199 536l6 -70q84 78 183 78q98 0 169.5 -70.5t71.5 -197.5q0 -73 -24 -130t-63.5 -89t-83 -48.5t-88.5 -16.5q-90 0 -169 66v-243h-136v721h134zM348 420q-43 0 -81.5 -19.5t-61.5 -46.5l-1 -184q61 -56 137 -56q62 0 105 41.5t43 115.5q0 72 -41 110.5t-100 38.5z" unicode="p"/>
<glyph horiz-adv-x="674" glyph-name="q" d="M609 536v-721h-136v251q-72 -74 -173 -74q-105 0 -180 68.5t-75 205.5q0 71 22 126t58.5 87t80.5 48.5t92 16.5q98 0 171 -83l6 75h134zM330 420q-59 0 -102 -38t-43 -112t44 -115t106 -41q71 0 135 56l-1 184q-61 66 -139 66z" unicode="q"/>
<glyph horiz-adv-x="435" glyph-name="r" d="M354 546q38 0 78 -21l-32 -119q-27 17 -58 17q-84 0 -137 -101v-322h-140v536h127l6 -91q27 50 68.5 75.5t87.5 25.5z" unicode="r"/>
<glyph horiz-adv-x="596" glyph-name="s" d="M308 552q103 -1 202 -44l-34 -116q-83 40 -168 40q-47 0 -74 -15.5t-27 -37.5q0 -11 7.5 -18t23 -11.5t31.5 -7t43 -6t46 -7.5q193 -37 193 -172q0 -60 -37 -100t-90.5 -56t-118.5 -15q-133 1 -257 67l49 110q101 -59 209 -57q46 1 76 14t29 36q-1 11 -8.5 19t-25 14 t-32.5 9t-45 8.5t-48 9.5q-86 18 -136 53.5t-50 107.5q0 84 69 130.5t173 44.5z" unicode="s"/>
<glyph horiz-adv-x="505" glyph-name="t" d="M270 536h163v-120h-163v-208q1 -50 25 -73t61 -24q46 -1 100 33l39 -111q-75 -43 -155 -43q-95 0 -152.5 59.5t-57.5 153.5v213h-102v120h102v164h140v-164z" unicode="t"/>
<glyph horiz-adv-x="658" glyph-name="u" d="M593 0h-129l-7 75q-88 -92 -195 -92q-83 0 -141.5 58.5t-58.5 161.5v333h140v-327q0 -49 30 -76.5t74 -27.5q85 0 147 95v336h140v-536z" unicode="u"/>
<glyph horiz-adv-x="622" glyph-name="v" d="M313 173l156 363h152l-250 -536h-116l-253 536h152z" unicode="v"/>
<glyph horiz-adv-x="883" glyph-name="w" d="M702 0h-156l-105 335l-104 -335h-156l-168 536h142l105 -361l120 361h123l120 -367l105 367h142z" unicode="w"/>
<glyph horiz-adv-x="620" glyph-name="x" d="M445 0l-140 175l-139 -175h-171l225 283l-202 253h182l115 -152l121 152h171l-204 -256l223 -280h-181z" unicode="x"/>
<glyph horiz-adv-x="651" glyph-name="y" d="M666 536l-398 -841h-161l147 304l-248 537h161l164 -379l174 379h161z" unicode="y"/>
<glyph horiz-adv-x="570" glyph-name="z" d="M509 447l-270 -327h280l1 -120h-470v84l275 332h-258v120h442v-89z" unicode="z"/>
<glyph horiz-adv-x="354" glyph-name="braceleft" d="M301 771v-87q-28 1 -41 -12t-13 -45v-204q0 -92 -86 -112v-6q86 -23 86 -112v-196q0 -32 13 -45t41 -12v-88h-92q-108 0 -108 110v221q0 76 -75 85l-1 80q76 7 76 85v229q0 109 108 109h92z" unicode="{"/>
<glyph horiz-adv-x="404" glyph-name="bar" d="M268 -93h-134v846h134v-846z" unicode="|"/>
<glyph horiz-adv-x="354" glyph-name="braceright" d="M33 771h92q108 0 108 -109v-229q0 -78 76 -85l-1 -80q-75 -9 -75 -85v-221q0 -110 -108 -110h-92v88q28 -1 41 12t13 45v196q0 89 86 112v6q-86 20 -86 112v204q0 32 -13 45t-41 12v87z" unicode="}"/>
<glyph horiz-adv-x="662" glyph-name="asciitilde" d="M208 500q38 3 72.5 -11.5t57 -34t51.5 -34.5t56 -13q31 3 55 26.5t34 57.5l84 -42q-52 -137 -157 -148q-39 -4 -76 9.5t-60 33t-53.5 35.5t-57.5 15q-63 -3 -94 -79l-78 36q23 61 65.5 102t100.5 47z" unicode="~"/>
<glyph horiz-adv-x="332" glyph-name="exclamdown" d="M164 475q-32 0 -55 23.5t-23 55.5t23 55t55 23t55 -22.5t23 -55.5q0 -32 -23 -55.5t-55 -23.5zM89 -77l15 485h123l19 -485h-157z" unicode="¡"/>
<glyph horiz-adv-x="555" glyph-name="cent" d="M462 272l55 -108q-93 -66 -199 -67l-13 -82l-95 16l13 79q-79 23 -128 83.5t-49 151.5q-1 111 72 177.5t179 72.5l14 79l95 -16l-13 -71q67 -17 125 -54l-54 -107q-67 46 -142 46q-65 0 -108.5 -34.5t-43.5 -92.5q0 -59 45 -91.5t106 -32.5q78 0 141 51z" unicode="¢"/>
<glyph horiz-adv-x="714" glyph-name="sterling" d="M668 0h-500q-79 0 -158 43l49 115q47 -30 94 -28q41 1 67 21t26 61v83h-85v130h84v92q0 105 62 158t152 53q79 0 158 -43l-43 -120q-51 32 -101 30q-33 -1 -55 -25t-22 -71v-74h106v-130h-106v-81q0 -58 -23 -79h295v-135z" unicode="£"/>
<glyph horiz-adv-x="536" glyph-name="currency" d="M439 362q0 -50 -24 -93l56 -56l-63 -65l-59 58q-41 -23 -95 -23q-49 0 -93 22l-58 -57l-63 66l54 53q-25 42 -25 95t27 97l-59 60l63 64l62 -63q42 22 92 22q52 0 94 -22l62 63l64 -64l-61 -61q26 -43 26 -96zM151 363q0 -44 30.5 -73.5t72.5 -29.5q43 0 73 29.5t30 73.5 t-30 73t-73 29q-41 0 -72 -29.5t-31 -72.5z" unicode="¤"/>
<glyph horiz-adv-x="776" glyph-name="yen" d="M501 322h128v-86h-161v-25h161v-86h-161v-125h-163v125h-172v86h171v25h-171v86h141l-254 378h180l188 -286l188 286h180z" unicode="¥"/>
<glyph horiz-adv-x="406" glyph-name="brokenbar" d="M270 365h-136v388h136v-388zM270 -93h-136v377h136v-377z" unicode="¦"/>
<glyph horiz-adv-x="607" glyph-name="section" d="M498 217q62 -44 62 -121q0 -86 -72 -127.5t-174 -40.5q-131 1 -257 70l49 109q107 -60 213 -59q45 1 73.5 13t27.5 35q0 9 -4 15.5t-13 12t-18.5 9t-25.5 7t-29 6t-33.5 6.5t-35.5 7q-85 17 -135 50t-51 99q0 73 62 120q-61 41 -62 115q-1 82 69 127.5t173 43.5 q93 -1 201 -45l-34 -115q-95 40 -170 40q-45 -1 -71.5 -15t-26.5 -36q0 -11 7 -18.5t23 -12.5t30.5 -7.5t42.5 -6.5t47 -8q193 -37 194 -161q0 -71 -62 -112zM216 318q0 -11 6 -18.5t24.5 -12.5t29.5 -7t43 -7q45 1 73.5 13t27.5 35q-1 22 -26.5 32.5t-85.5 21.5 q-41 -2 -66.5 -18.5t-25.5 -38.5z" unicode="§"/>
<glyph horiz-adv-x="646" glyph-name="dieresis" d="M375 907q26 0 44.5 -17.5t18.5 -44.5q0 -26 -19 -45t-44 -19t-44.5 19t-19.5 45q0 27 18.5 44.5t45.5 17.5zM541 907q26 0 44.5 -17.5t18.5 -44.5q0 -26 -19 -45t-44 -19t-44.5 19t-19.5 45q0 27 18.5 44.5t45.5 17.5z" unicode="¨"/>
<glyph horiz-adv-x="773" glyph-name="copyright" d="M388 712q151 0 258 -105.5t107 -254.5q0 -150 -107 -257t-258 -107q-152 0 -259.5 107t-107.5 257q0 149 107.5 254.5t259.5 105.5zM388 630q-116 0 -198.5 -82t-82.5 -196q0 -116 82.5 -198.5t197.5 -82.5t197.5 83t82.5 198q0 114 -82.5 196t-196.5 82zM389 557 q86 1 160 -53l-41 -68q-52 38 -115 38q-59 0 -96 -34.5t-36 -89.5q0 -58 39 -89t93 -31q65 0 115 43l41 -71q-70 -58 -157 -58q-90 0 -153 55t-64 150q0 97 63.5 152.5t150.5 55.5z" unicode="©"/>
<glyph horiz-adv-x="470" glyph-name="ordfeminine" d="M226 715q80 0 127.5 -44t47.5 -119v-200h-94v39q-61 -46 -125 -46q-62 0 -103 34t-41 89q0 61 49 90.5t112 29.5q46 0 102 -29q3 83 -88 83q-50 0 -106 -28l-28 65q72 36 147 36zM213 530q-34 0 -56.5 -15t-22.5 -41t21 -42.5t50 -16.5q48 0 94 35v53q-43 27 -86 27z M410 197h-351v99h351v-99z" unicode="ª"/>
<glyph horiz-adv-x="681" glyph-name="guillemotleft" d="M170 270l243 -270h-142l-243 270l240 266h142zM429 270l243 -270h-142l-243 270l240 266h142z" unicode="«"/>
<glyph horiz-adv-x="684" glyph-name="logicalnot" d="M625 95h-82v254h-484v76h566v-330z" unicode="¬"/>
<glyph horiz-adv-x="765" glyph-name="registered" d="M384 712q149 0 255 -105.5t106 -254.5q0 -150 -106 -257t-255 -107q-150 0 -256.5 107t-106.5 257q0 149 106.5 254.5t256.5 105.5zM384 630q-116 0 -198.5 -81.5t-82.5 -196.5q0 -116 82.5 -198.5t197.5 -82.5t197.5 82.5t82.5 199.5q0 114 -82 195.5t-197 81.5z M373 546q80 0 130.5 -37.5t51.5 -106.5q0 -39 -17.5 -69.5t-48.5 -45.5l55 -129h-90l-37 97q-17 -4 -92 -4v-93h-85v378q58 10 133 10zM381 477q-39 0 -60 -3v-151q25 1 59 1q46 -1 71.5 18.5t25.5 55.5q0 37 -27 58t-69 21z" unicode="®"/>
<glyph horiz-adv-x="649" glyph-name="macron" d="M646 778h-345v97h345v-97z" unicode="¯"/>
<glyph horiz-adv-x="402" glyph-name="degree" d="M203 804q71 0 114.5 -45.5t43.5 -109.5q0 -67 -43 -110.5t-115 -43.5q-67 0 -113 42.5t-46 111.5q0 66 45.5 110.5t113.5 44.5zM205 726q-35 0 -57.5 -23.5t-22.5 -55.5t22.5 -55.5t57.5 -23.5t57 23.5t22 55.5q0 33 -21.5 56t-57.5 23z" unicode="°"/>
<glyph horiz-adv-x="605" glyph-name="plusminus" d="M357 511h149v-98h-149v-155h-109v155h-149v98h149v156h109v-156zM509 83h-414v99h414v-99z" unicode="±"/>
<glyph horiz-adv-x="429" glyph-name="twosuperior" d="M212 696q52 0 93.5 -32.5t41.5 -85.5q0 -57 -49 -98l-102 -85h159v-76h-303v53l165 144q39 33 39 60q0 18 -14 30.5t-37 12.5q-21 0 -39 -16.5t-26 -41.5l-82 24q16 52 60 81.5t94 29.5z" unicode="²"/>
<glyph horiz-adv-x="396" glyph-name="threesuperior" d="M190 707q56 0 96.5 -28.5t40.5 -74.5q0 -51 -49 -79q28 -10 45.5 -34t17.5 -53q0 -52 -45 -82.5t-107 -30.5q-80 0 -148 48l33 63q52 -37 109 -37q34 0 54 12.5t20 34.5q0 20 -17.5 33t-47.5 13h-62v62h60q25 0 40 11.5t15 29.5t-16.5 30t-45.5 12q-46 0 -92 -30l-31 61 q61 39 130 39z" unicode="³"/>
<glyph horiz-adv-x="675" glyph-name="acute" d="M587 943l-106 -174l-105 43l71 153z" unicode="´"/>
<glyph horiz-adv-x="640" glyph-name="uni00B5" d="M593 536v-536h-129l-7 75q-88 -92 -195 -92q-33 0 -68 11v-194h-130v368q-2 22 -2 35v333h140v-327q0 -49 30 -76.5t74 -27.5q85 0 147 95v336h140z" unicode="µ"/>
<glyph horiz-adv-x="882" glyph-name="paragraph" d="M678 -92v738h-70l-1 -738h-146l1 323q-93 0 -132 2q-131 6 -213.5 72t-81.5 194q1 257 341 257q76 0 110 -1h310l1 -847h-119z" unicode="¶"/>
<glyph horiz-adv-x="235" glyph-name="periodcentered" d="M117 476q32 0 55.5 -23.5t23.5 -55.5q0 -33 -24 -56.5t-55 -23.5q-32 0 -55.5 23.5t-23.5 56.5q0 32 23.5 55.5t55.5 23.5z" unicode="·"/>
<glyph horiz-adv-x="590" glyph-name="cedilla" d="M279 -156l-89 32l74 124h81z" unicode="¸"/>
<glyph horiz-adv-x="308" glyph-name="onesuperior" d="M200 328h-87v277l-31 -24l-39 64l79 54h78v-371z" unicode="¹"/>
<glyph horiz-adv-x="496" glyph-name="ordmasculine" d="M248 720q84 0 143.5 -52.5t59.5 -138.5q0 -92 -59.5 -141t-143.5 -49q-89 0 -146 50t-57 140q0 83 57.5 137t145.5 54zM249 639q-46 0 -78 -30t-32 -79q0 -50 32 -79.5t78 -29.5t77 29t31 80t-31.5 80t-76.5 29zM441 197h-386v99h386v-99z" unicode="º"/>
<glyph horiz-adv-x="707" glyph-name="guillemotright" d="M150 536l240 -266l-243 -270h-142l243 270l-240 266h142zM409 536l240 -266l-243 -270h-142l243 270l-240 266h142z" unicode="»"/>
<glyph horiz-adv-x="906" glyph-name="onequarter" d="M769 140h51v-67h-51v-73h-85v73h-196v59l184 242h97v-234zM576 139h109v136zM245 0h-119l453 700h120zM243 328h-87v277l-31 -24l-39 64l79 54h78v-371z" unicode="¼"/>
<glyph horiz-adv-x="945" glyph-name="onehalf" d="M716 378q52 0 93.5 -32.5t41.5 -85.5q0 -57 -49 -98l-102 -85h159v-76h-303v53l165 144q39 33 39 60q0 18 -14 30.5t-37 12.5q-21 0 -39 -16.5t-26 -41.5l-82 24q16 52 60 81.5t94 29.5zM256 0h-119l453 700h120zM243 328h-87v277l-31 -24l-39 64l79 54h78v-371z" unicode="½"/>
<glyph horiz-adv-x="991" glyph-name="threequarters" d="M235 707q56 0 96.5 -28.5t40.5 -74.5q0 -51 -49 -79q28 -10 45.5 -34t17.5 -53q0 -52 -45 -82.5t-107 -30.5q-80 0 -148 48l33 63q52 -37 109 -37q34 0 54 12.5t20 34.5q0 20 -17.5 33t-47.5 13h-62v62h60q25 0 40 11.5t15 29.5t-16.5 30t-45.5 12q-46 0 -92 -30l-31 61 q61 39 130 39zM841 140h51v-67h-51v-73h-85v73h-196v59l184 242h97v-234zM648 139h109v136zM334 0h-119l453 700h120z" unicode="¾"/>
<glyph horiz-adv-x="674" glyph-name="questiondown" d="M354 490q-31 0 -53 22t-22 53q0 32 22.5 54t52.5 22q31 0 53.5 -22.5t22.5 -53.5t-22.5 -53t-53.5 -22zM345 -74q-101 -8 -178.5 45t-77.5 147q0 41 14.5 72.5t35.5 49t46.5 36.5t46.5 36t35.5 47t14.5 69l149 1q0 -68 -19.5 -118.5t-48 -76.5t-56.5 -44.5t-47.5 -36 t-19.5 -36.5q0 -29 26.5 -45t65.5 -12q38 4 64 26t47 69l123 -61q-30 -74 -88.5 -118t-132.5 -50z" unicode="¿"/>
<glyph horiz-adv-x="769" glyph-name="Agrave" d="M394 769l-106 174l140 22l71 -153zM547 138h-324l-54 -138h-166l309 700h145l309 -700h-164zM492 274l-108 271l-107 -271h215z" unicode="À"/>
<glyph horiz-adv-x="769" glyph-name="Aacute" d="M407 769l-105 43l71 153l140 -22zM547 138h-324l-54 -138h-166l309 700h145l309 -700h-164zM492 274l-108 271l-107 -271h215z" unicode="Á"/>
<glyph horiz-adv-x="769" glyph-name="Acircumflex" d="M316 761l-76 49l94 126h104l94 -126l-77 -48l-68 109zM547 138h-324l-54 -138h-166l309 700h145l309 -700h-164zM492 274l-108 271l-107 -271h215z" unicode="Â"/>
<glyph horiz-adv-x="769" glyph-name="Atilde" d="M309 820q-43 5 -63 -53l-67 35q9 46 44.5 76t85.5 29q44 -1 96.5 -33.5t73.5 -32.5q40 0 62 56l68 -30q-10 -48 -44 -79t-83 -31q-40 0 -94 31.5t-79 31.5zM547 138h-324l-54 -138h-166l309 700h145l309 -700h-164zM492 274l-108 271l-107 -271h215z" unicode="Ã"/>
<glyph horiz-adv-x="769" glyph-name="Adieresis" d="M303 781q-25 0 -44.5 19t-19.5 45q0 27 18.5 44.5t45.5 17.5q26 0 44.5 -17.5t18.5 -44.5q0 -26 -19 -45t-44 -19zM469 781q-25 0 -44.5 19t-19.5 45q0 27 18.5 44.5t45.5 17.5q26 0 44.5 -17.5t18.5 -44.5q0 -26 -19 -45t-44 -19zM547 138h-324l-54 -138h-166l309 700 h145l309 -700h-164zM492 274l-108 271l-107 -271h215z" unicode="Ä"/>
<glyph horiz-adv-x="769" glyph-name="Aring" d="M383 745q-58 0 -96 32.5t-38 88.5q0 55 38.5 89t95.5 34t95 -34t38 -89q0 -56 -38 -88.5t-95 -32.5zM382 921q-22 0 -39 -16t-17 -38q0 -23 17 -38.5t40 -15.5t39.5 15.5t16.5 38.5t-17 38.5t-40 15.5zM547 138h-324l-54 -138h-166l309 700h145l309 -700h-164zM492 274 l-108 271l-107 -271h215z" unicode="Å"/>
<glyph horiz-adv-x="1040" glyph-name="AE" d="M994 135v-135h-530v197h-185l-104 -197h-167l395 700h568v-135h-357v-150h271v-127h-271v-153h380zM464 332v214l-1 -2l-112 -212h113z" unicode="Æ"/>
<glyph horiz-adv-x="719" glyph-name="Ccedilla" d="M606 166l54 -124q-93 -46 -182 -53l-66 -155l-89 32l73 122q-149 11 -248.5 104t-99.5 250q0 164 107.5 266t270.5 105q114 2 230 -49l-49 -126q-83 43 -169 40q-98 -3 -169 -62.5t-71 -171.5q0 -76 36.5 -128t89 -73t115.5 -21q88 0 167 44z" unicode="Ç"/>
<glyph horiz-adv-x="662" glyph-name="Egrave" d="M593 565h-357v-150h271v-127h-271v-153h380v-135h-530v700h507v-135zM418 801l-105 -43l-106 174l140 22z" unicode="È"/>
<glyph horiz-adv-x="662" glyph-name="Eacute" d="M593 565h-357v-150h271v-127h-271v-153h380v-135h-530v700h507v-135zM477 931l-106 -174l-105 43l71 153z" unicode="É"/>
<glyph horiz-adv-x="662" glyph-name="Ecircumflex" d="M593 565h-357v-150h271v-127h-271v-153h380v-135h-530v700h507v-135zM430 773l-68 109l-71 -110l-76 49l94 126h104l94 -126z" unicode="Ê"/>
<glyph horiz-adv-x="662" glyph-name="Edieresis" d="M273 890q26 0 44.5 -17.5t18.5 -44.5q0 -26 -19 -45t-44 -19t-44.5 19t-19.5 45q0 27 18.5 44.5t45.5 17.5zM439 890q26 0 44.5 -17.5t18.5 -44.5q0 -26 -19 -45t-44 -19t-44.5 19t-19.5 45q0 27 18.5 44.5t45.5 17.5zM593 565h-357v-150h271v-127h-271v-153h380v-135 h-530v700h507v-135z" unicode="Ë"/>
<glyph horiz-adv-x="318" glyph-name="Igrave" d="M232 0h-146v700h146v-700zM226 801l-105 -43l-106 174l140 22z" unicode="Ì"/>
<glyph horiz-adv-x="318" glyph-name="Iacute" d="M232 0h-146v700h146v-700zM299 928l-106 -174l-105 43l71 153z" unicode="Í"/>
<glyph horiz-adv-x="318" glyph-name="Icircumflex" d="M235 762l-68 109l-71 -110l-76 49l94 126h104l94 -126zM232 0h-146v700h146v-700z" unicode="Î"/>
<glyph horiz-adv-x="318" glyph-name="Idieresis" d="M86 892q26 0 44.5 -17.5t18.5 -44.5q0 -26 -19 -45t-44 -19t-44.5 19t-19.5 45q0 27 18.5 44.5t45.5 17.5zM252 892q26 0 44.5 -17.5t18.5 -44.5q0 -26 -19 -45t-44 -19t-44.5 19t-19.5 45q0 27 18.5 44.5t45.5 17.5zM232 0h-146v700h146v-700z" unicode="Ï"/>
<glyph horiz-adv-x="779" glyph-name="Eth" d="M286 702q75 0 140 -12.5t122 -39t97 -66t63 -97.5t23 -130q0 -172 -122 -266t-327 -94q-118 0 -185 3v319h-73v88h73v293q98 2 189 2zM316 133q113 5 189 60t76 160q0 58 -25 101.5t-65.5 66.5t-84 34t-87.5 11h-2h-5.5t-8.5 0.5t-11.5 0.5h-13.5t-15.5 -0.5t-17.5 -0.5 v-159h137v-88h-137v-186q34 -1 71 0z" unicode="Ð"/>
<glyph horiz-adv-x="822" glyph-name="Ntilde" d="M736 0h-142l-358 462v-462h-150v700h147l352 -459v459h151v-700zM331 907q44 -1 96.5 -33.5t73.5 -32.5q40 0 62 56l68 -30q-10 -48 -44 -79t-83 -31q-40 0 -94 31.5t-79 31.5q-43 5 -63 -53l-67 35q9 46 44.5 76t85.5 29z" unicode="Ñ"/>
<glyph horiz-adv-x="848" glyph-name="Ograve" d="M424 713q161 0 268.5 -101.5t107.5 -265.5q0 -161 -104 -265t-271 -104q-165 0 -271 102.5t-106 265.5q0 164 107 266t269 102zM424 578q-101 0 -163 -64.5t-62 -168.5q0 -103 62 -168t164 -65q103 0 163.5 66t60.5 168q0 103 -62 167.5t-163 64.5zM501 812l-105 -43 l-106 174l140 22z" unicode="Ò"/>
<glyph horiz-adv-x="848" glyph-name="Oacute" d="M424 713q161 0 268.5 -101.5t107.5 -265.5q0 -161 -104 -265t-271 -104q-165 0 -271 102.5t-106 265.5q0 164 107 266t269 102zM424 578q-101 0 -163 -64.5t-62 -168.5q0 -103 62 -168t164 -65q103 0 163.5 66t60.5 168q0 103 -62 167.5t-163 64.5zM532 936l-106 -174 l-105 43l71 153z" unicode="Ó"/>
<glyph horiz-adv-x="848" glyph-name="Ocircumflex" d="M424 713q161 0 268.5 -101.5t107.5 -265.5q0 -161 -104 -265t-271 -104q-165 0 -271 102.5t-106 265.5q0 164 107 266t269 102zM424 578q-101 0 -163 -64.5t-62 -168.5q0 -103 62 -168t164 -65q103 0 163.5 66t60.5 168q0 103 -62 167.5t-163 64.5zM489 762l-68 109 l-71 -110l-76 49l94 126h104l94 -126z" unicode="Ô"/>
<glyph horiz-adv-x="848" glyph-name="Otilde" d="M424 713q161 0 268.5 -101.5t107.5 -265.5q0 -161 -104 -265t-271 -104q-165 0 -271 102.5t-106 265.5q0 164 107 266t269 102zM424 578q-101 0 -163 -64.5t-62 -168.5q0 -103 62 -168t164 -65q103 0 163.5 66t60.5 168q0 103 -62 167.5t-163 64.5zM339 907 q44 -1 96.5 -33.5t73.5 -32.5q40 0 62 56l68 -30q-10 -48 -44 -79t-83 -31q-40 0 -94 31.5t-79 31.5q-43 5 -63 -53l-67 35q9 46 44.5 76t85.5 29z" unicode="Õ"/>
<glyph horiz-adv-x="848" glyph-name="Odieresis" d="M339 902q26 0 44.5 -17.5t18.5 -44.5q0 -26 -19 -45t-44 -19t-44.5 19t-19.5 45q0 27 18.5 44.5t45.5 17.5zM505 902q26 0 44.5 -17.5t18.5 -44.5q0 -26 -19 -45t-44 -19t-44.5 19t-19.5 45q0 27 18.5 44.5t45.5 17.5zM424 713q161 0 268.5 -101.5t107.5 -265.5 q0 -161 -104 -265t-271 -104q-165 0 -271 102.5t-106 265.5q0 164 107 266t269 102zM424 578q-101 0 -163 -64.5t-62 -168.5q0 -103 62 -168t164 -65q103 0 163.5 66t60.5 168q0 103 -62 167.5t-163 64.5z" unicode="Ö"/>
<glyph horiz-adv-x="732" glyph-name="multiply" d="M449 278l206 -208l-82 -85l-207 209l-206 -209l-83 85l206 208l-206 208l83 85l206 -209l207 209l82 -85z" unicode="×"/>
<glyph horiz-adv-x="854" glyph-name="Oslash" d="M683 728l-40 -71q76 -49 119.5 -128.5t43.5 -181.5q0 -163 -105 -267.5t-273 -104.5q-84 0 -156 29l-46 -81l-83 49l45 79q-140 105 -140 296q0 165 108.5 267.5t271.5 102.5q65 0 127 -19l45 78zM201 347q0 -98 62 -165l220 389q-26 6 -55 6q-99 0 -163 -64.5 t-64 -165.5zM428 115q101 0 163.5 66.5t62.5 165.5q0 116 -84 182l-227 -399q39 -15 85 -15z" unicode="Ø"/>
<glyph horiz-adv-x="796" glyph-name="Ugrave" d="M723 700v-390q0 -155 -92.5 -243.5t-231.5 -88.5q-64 0 -121.5 20.5t-104 59.5t-73.5 103t-27 144v395h150v-402q0 -84 46 -134t127 -50t129 51t48 134v401h150zM478 797l-105 -43l-106 174l140 22z" unicode="Ù"/>
<glyph horiz-adv-x="796" glyph-name="Uacute" d="M723 700v-390q0 -155 -92.5 -243.5t-231.5 -88.5q-64 0 -121.5 20.5t-104 59.5t-73.5 103t-27 144v395h150v-402q0 -84 46 -134t127 -50t129 51t48 134v401h150zM520 931l-106 -174l-105 43l71 153z" unicode="Ú"/>
<glyph horiz-adv-x="796" glyph-name="Ucircumflex" d="M723 700v-390q0 -155 -92.5 -243.5t-231.5 -88.5q-64 0 -121.5 20.5t-104 59.5t-73.5 103t-27 144v395h150v-402q0 -84 46 -134t127 -50t129 51t48 134v401h150zM468 772l-68 109l-71 -110l-76 49l94 126h104l94 -126z" unicode="Û"/>
<glyph horiz-adv-x="796" glyph-name="Udieresis" d="M316 890q26 0 44.5 -17.5t18.5 -44.5q0 -26 -19 -45t-44 -19t-44.5 19t-19.5 45q0 27 18.5 44.5t45.5 17.5zM482 890q26 0 44.5 -17.5t18.5 -44.5q0 -26 -19 -45t-44 -19t-44.5 19t-19.5 45q0 27 18.5 44.5t45.5 17.5zM723 700v-390q0 -155 -92.5 -243.5t-231.5 -88.5 q-64 0 -121.5 20.5t-104 59.5t-73.5 103t-27 144v395h150v-402q0 -84 46 -134t127 -50t129 51t48 134v401h150z" unicode="Ü"/>
<glyph horiz-adv-x="775" glyph-name="Yacute" d="M468 273v-273h-163l-1 278l-284 422h180l188 -286l188 286h180zM516 943l-106 -174l-105 43l71 153z" unicode="Ý"/>
<glyph horiz-adv-x="681" glyph-name="Thorn" d="M232 620h110q138 -1 224 -66t87 -191q0 -65 -24 -116.5t-65.5 -83t-92 -48.5t-106.5 -19q-72 -3 -133 -3v-93h-146v699l146 1v-80zM232 486v-263q34 0 112 2q72 1 113.5 36.5t41.5 92.5q0 58 -43 94t-111 36q-17 0 -53 1t-60 1z" unicode="Þ"/>
<glyph horiz-adv-x="738" glyph-name="germandbls" d="M291 762q112 0 190.5 -57.5t78.5 -153.5q0 -48 -21.5 -78.5t-47 -40t-47 -19t-21.5 -20.5q0 -15 13 -20.5t52 -10.5q13 -2 21 -3q218 -34 218 -185q1 -90 -68.5 -137.5t-186.5 -47.5q-98 0 -197 55l43 113q83 -49 159 -48q55 1 83 17t27 43q-1 16 -9.5 27.5t-27 18.5 t-33.5 11t-44 9t-42 8q-68 15 -107.5 46.5t-39.5 102.5q0 35 14.5 60.5t35 38.5t41 23t35 22.5t14.5 28.5q0 32 -34.5 56t-79.5 23q-42 -1 -69.5 -26t-27.5 -66v-552h-140v551q0 103 63 157t155 54z" unicode="ß"/>
<glyph horiz-adv-x="664" glyph-name="agrave" d="M599 536v-536h-129l-4 66q-22 -31 -63.5 -52.5t-94.5 -21.5q-105 0 -184 79.5t-79 204.5q0 120 75.5 194t176.5 74q55 0 98 -23.5t68 -59.5l3 75h133zM324 427q-60 0 -103.5 -42t-43.5 -111q0 -71 44.5 -115.5t109.5 -44.5q78 0 132 64v169q-53 80 -139 80zM476 668 l-105 -43l-106 174l140 22z" unicode="à"/>
<glyph horiz-adv-x="664" glyph-name="aacute" d="M599 536v-536h-129l-4 66q-22 -31 -63.5 -52.5t-94.5 -21.5q-105 0 -184 79.5t-79 204.5q0 120 75.5 194t176.5 74q55 0 98 -23.5t68 -59.5l3 75h133zM324 427q-60 0 -103.5 -42t-43.5 -111q0 -71 44.5 -115.5t109.5 -44.5q78 0 132 64v169q-53 80 -139 80zM490 799 l-106 -174l-105 43l71 153z" unicode="á"/>
<glyph horiz-adv-x="664" glyph-name="acircumflex" d="M599 536v-536h-129l-4 66q-22 -31 -63.5 -52.5t-94.5 -21.5q-105 0 -184 79.5t-79 204.5q0 120 75.5 194t176.5 74q55 0 98 -23.5t68 -59.5l3 75h133zM324 427q-60 0 -103.5 -42t-43.5 -111q0 -71 44.5 -115.5t109.5 -44.5q78 0 132 64v169q-53 80 -139 80zM432 618 l-68 109l-71 -110l-76 49l94 126h104l94 -126z" unicode="â"/>
<glyph horiz-adv-x="664" glyph-name="atilde" d="M599 536v-536h-129l-4 66q-22 -31 -63.5 -52.5t-94.5 -21.5q-105 0 -184 79.5t-79 204.5q0 120 75.5 194t176.5 74q55 0 98 -23.5t68 -59.5l3 75h133zM324 427q-60 0 -103.5 -42t-43.5 -111q0 -71 44.5 -115.5t109.5 -44.5q78 0 132 64v169q-53 80 -139 80zM286 763 q44 -1 96.5 -33.5t73.5 -32.5q40 0 62 56l68 -30q-10 -48 -44 -79t-83 -31q-40 0 -94 31.5t-79 31.5q-43 5 -63 -53l-67 35q9 46 44.5 76t85.5 29z" unicode="ã"/>
<glyph horiz-adv-x="664" glyph-name="adieresis" d="M280 763q26 0 44.5 -17.5t18.5 -44.5q0 -26 -19 -45t-44 -19t-44.5 19t-19.5 45q0 27 18.5 44.5t45.5 17.5zM446 763q26 0 44.5 -17.5t18.5 -44.5q0 -26 -19 -45t-44 -19t-44.5 19t-19.5 45q0 27 18.5 44.5t45.5 17.5zM599 536v-536h-129l-4 66q-22 -31 -63.5 -52.5 t-94.5 -21.5q-105 0 -184 79.5t-79 204.5q0 120 75.5 194t176.5 74q55 0 98 -23.5t68 -59.5l3 75h133zM324 427q-60 0 -103.5 -42t-43.5 -111q0 -71 44.5 -115.5t109.5 -44.5q78 0 132 64v169q-53 80 -139 80z" unicode="ä"/>
<glyph horiz-adv-x="664" glyph-name="aring" d="M599 536v-536h-129l-4 66q-22 -31 -63.5 -52.5t-94.5 -21.5q-105 0 -184 79.5t-79 204.5q0 120 75.5 194t176.5 74q55 0 98 -23.5t68 -59.5l3 75h133zM324 427q-60 0 -103.5 -42t-43.5 -111q0 -71 44.5 -115.5t109.5 -44.5q78 0 132 64v169q-53 80 -139 80zM360 845 q57 0 95 -34t38 -89q0 -56 -38 -88.5t-95 -32.5q-58 0 -96 32.5t-38 88.5q0 55 38.5 89t95.5 34zM359 777q-22 0 -39 -16t-17 -38q0 -23 17 -38.5t40 -15.5t39.5 15.5t16.5 38.5t-17 38.5t-40 15.5z" unicode="å"/>
<glyph horiz-adv-x="1090" glyph-name="ae" d="M765 552q98 -1 169 -52t97 -127.5t5 -156.5l-421 1q17 -53 63 -80t107 -26q92 1 173 67l69 -101q-40 -35 -104 -60.5t-141 -25.5q-79 0 -149 29.5t-112 85.5q-80 -114 -213 -114q-107 0 -185 79t-78 205q0 120 77.5 194t183.5 74q130 0 211 -108q40 56 105.5 86.5 t142.5 29.5zM615 330h286q0 42 -36.5 72t-97.5 30q-55 0 -96 -26.5t-56 -75.5zM463 178v169q-53 80 -139 80q-60 0 -103.5 -42t-43.5 -111q0 -71 44.5 -115.5t109.5 -44.5q78 0 132 64z" unicode="æ"/>
<glyph horiz-adv-x="604" glyph-name="ccedilla" d="M499 170l67 -97q-85 -72 -191 -83l-60 -142l-89 32l66 111q-104 15 -175 87t-72 189q0 67 26.5 122.5t70 89.5t97.5 52.5t111 18.5q118 0 212 -75l-62 -107q-56 62 -142 62q-75 0 -123.5 -47t-49.5 -115q-1 -69 48 -115t121 -46q84 0 145 63z" unicode="ç"/>
<glyph horiz-adv-x="663" glyph-name="egrave" d="M324 627l-106 174l140 22l71 -153zM343 552q98 -1 169 -52t97 -127.5t5 -156.5l-421 1q17 -53 63 -80t107 -26q92 1 173 67l69 -101q-40 -35 -104 -60.5t-141 -25.5q-130 0 -222.5 74.5t-92.5 206.5q0 127 86 204.5t212 75.5zM193 330h286q0 42 -36.5 72t-97.5 30 q-55 0 -96 -26.5t-56 -75.5z" unicode="è"/>
<glyph horiz-adv-x="663" glyph-name="eacute" d="M380 622l-105 43l71 153l140 -22zM343 552q98 -1 169 -52t97 -127.5t5 -156.5l-421 1q17 -53 63 -80t107 -26q92 1 173 67l69 -101q-40 -35 -104 -60.5t-141 -25.5q-130 0 -222.5 74.5t-92.5 206.5q0 127 86 204.5t212 75.5zM193 330h286q0 42 -36.5 72t-97.5 30 q-55 0 -96 -26.5t-56 -75.5z" unicode="é"/>
<glyph horiz-adv-x="663" glyph-name="ecircumflex" d="M273 629l-76 49l94 126h104l94 -126l-77 -48l-68 109zM343 552q98 -1 169 -52t97 -127.5t5 -156.5l-421 1q17 -53 63 -80t107 -26q92 1 173 67l69 -101q-40 -35 -104 -60.5t-141 -25.5q-130 0 -222.5 74.5t-92.5 206.5q0 127 86 204.5t212 75.5zM193 330h286 q0 42 -36.5 72t-97.5 30q-55 0 -96 -26.5t-56 -75.5z" unicode="ê"/>
<glyph horiz-adv-x="663" glyph-name="edieresis" d="M265 631q-25 0 -44.5 19t-19.5 45q0 27 18.5 44.5t45.5 17.5q26 0 44.5 -17.5t18.5 -44.5q0 -26 -19 -45t-44 -19zM431 631q-25 0 -44.5 19t-19.5 45q0 27 18.5 44.5t45.5 17.5q26 0 44.5 -17.5t18.5 -44.5q0 -26 -19 -45t-44 -19zM343 552q98 -1 169 -52t97 -127.5 t5 -156.5l-421 1q17 -53 63 -80t107 -26q92 1 173 67l69 -101q-40 -35 -104 -60.5t-141 -25.5q-130 0 -222.5 74.5t-92.5 206.5q0 127 86 204.5t212 75.5zM193 330h286q0 42 -36.5 72t-97.5 30q-55 0 -96 -26.5t-56 -75.5z" unicode="ë"/>
<glyph horiz-adv-x="280" glyph-name="igrave" d="M210 0h-140v536h140v-536zM258 648l-105 -43l-106 174l140 22z" unicode="ì"/>
<glyph horiz-adv-x="280" glyph-name="iacute" d="M210 0h-140v536h140v-536zM272 779l-106 -174l-105 43l71 153z" unicode="í"/>
<glyph horiz-adv-x="282" glyph-name="icircumflex" d="M205 633l-68 109l-71 -110l-76 49l94 126h104l94 -126zM210 0h-140v536h140v-536z" unicode="î"/>
<glyph horiz-adv-x="280" glyph-name="idieresis" d="M62 743q26 0 44.5 -17.5t18.5 -44.5q0 -26 -19 -45t-44 -19t-44.5 19t-19.5 45q0 27 18.5 44.5t45.5 17.5zM228 743q26 0 44.5 -17.5t18.5 -44.5q0 -26 -19 -45t-44 -19t-44.5 19t-19.5 45q0 27 18.5 44.5t45.5 17.5zM210 0h-140v536h140v-536z" unicode="ï"/>
<glyph horiz-adv-x="643" glyph-name="eth" d="M611 358q14 -158 -62.5 -257t-199.5 -110q-113 -10 -200 56.5t-95 176.5q-7 98 55.5 167.5t160.5 74.5t181 -58q-25 78 -86.5 123.5t-138.5 56.5l33 134q81 -13 148 -49l73 100l107 -73l-77 -105q88 -97 101 -237zM324 126q51 4 89 44.5t48 104.5q-60 73 -146 70 q-50 -2 -83 -34.5t-29 -82.5q4 -48 39 -76.5t82 -25.5z" unicode="ð"/>
<glyph horiz-adv-x="659" glyph-name="ntilde" d="M398 546q86 0 143.5 -61.5t57.5 -171.5v-313h-141l1 301q0 55 -28 88t-76 33q-46 0 -85.5 -28.5t-64.5 -67.5v-326h-140v536h135l5 -91q90 101 193 101zM260 778q44 -1 96.5 -33.5t73.5 -32.5q40 0 62 56l68 -30q-10 -48 -44 -79t-83 -31q-40 0 -94 31.5t-79 31.5 q-43 5 -63 -53l-67 35q9 46 44.5 76t85.5 29z" unicode="ñ"/>
<glyph glyph-name="ograve" d="M340 550q122 0 207.5 -76.5t85.5 -203.5q0 -131 -86.5 -204.5t-206.5 -73.5q-125 0 -210 75t-85 204q0 122 84 200.5t211 78.5zM340 429q-66 0 -110 -42t-44 -117q0 -76 44 -117t110 -41q63 0 107.5 41t44.5 117q0 78 -44 118.5t-108 40.5zM443 650l-105 -43l-106 174 l140 22z" unicode="ò"/>
<glyph glyph-name="oacute" d="M340 550q122 0 207.5 -76.5t85.5 -203.5q0 -131 -86.5 -204.5t-206.5 -73.5q-125 0 -210 75t-85 204q0 122 84 200.5t211 78.5zM340 429q-66 0 -110 -42t-44 -117q0 -76 44 -117t110 -41q63 0 107.5 41t44.5 117q0 78 -44 118.5t-108 40.5zM457 781l-106 -174l-105 43 l71 153z" unicode="ó"/>
<glyph glyph-name="ocircumflex" d="M340 550q122 0 207.5 -76.5t85.5 -203.5q0 -131 -86.5 -204.5t-206.5 -73.5q-125 0 -210 75t-85 204q0 122 84 200.5t211 78.5zM340 429q-66 0 -110 -42t-44 -117q0 -76 44 -117t110 -41q63 0 107.5 41t44.5 117q0 78 -44 118.5t-108 40.5zM399 600l-68 109l-71 -110 l-76 49l94 126h104l94 -126z" unicode="ô"/>
<glyph glyph-name="otilde" d="M340 550q122 0 207.5 -76.5t85.5 -203.5q0 -131 -86.5 -204.5t-206.5 -73.5q-125 0 -210 75t-85 204q0 122 84 200.5t211 78.5zM340 429q-66 0 -110 -42t-44 -117q0 -76 44 -117t110 -41q63 0 107.5 41t44.5 117q0 78 -44 118.5t-108 40.5zM253 745q44 -1 96.5 -33.5 t73.5 -32.5q40 0 62 56l68 -30q-10 -48 -44 -79t-83 -31q-40 0 -94 31.5t-79 31.5q-43 5 -63 -53l-67 35q9 46 44.5 76t85.5 29z" unicode="õ"/>
<glyph glyph-name="odieresis" d="M253 745q26 0 44.5 -17.5t18.5 -44.5q0 -26 -19 -45t-44 -19t-44.5 19t-19.5 45q0 27 18.5 44.5t45.5 17.5zM419 745q26 0 44.5 -17.5t18.5 -44.5q0 -26 -19 -45t-44 -19t-44.5 19t-19.5 45q0 27 18.5 44.5t45.5 17.5zM340 550q122 0 207.5 -76.5t85.5 -203.5 q0 -131 -86.5 -204.5t-206.5 -73.5q-125 0 -210 75t-85 204q0 122 84 200.5t211 78.5zM340 429q-66 0 -110 -42t-44 -117q0 -76 44 -117t110 -41q63 0 107.5 41t44.5 117q0 78 -44 118.5t-108 40.5z" unicode="ö"/>
<glyph horiz-adv-x="684" glyph-name="divide" d="M344 416h-1q-23 0 -41 18.5t-18 42.5q0 25 18.5 43.5t41.5 18.5q25 0 43 -18.5t18 -43.5t-18 -43t-43 -18zM626 245h-567v77h567v-77zM344 152h1q22 0 40.5 -18t18.5 -43q0 -24 -18.5 -43.5t-41.5 -19.5q-26 0 -43.5 19t-17.5 44q0 26 17.5 43.5t43.5 17.5z" unicode="÷"/>
<glyph glyph-name="oslash" d="M545 565l-33 -64q121 -79 121 -231q0 -131 -86.5 -204.5t-206.5 -73.5q-45 0 -89 11l-38 -72l-81 41l35 67q-122 77 -122 232q0 122 84 200.5t211 78.5q46 0 89 -12l35 68zM168 270q0 -79 53 -129l157 300q-17 4 -38 4q-72 0 -122 -48t-50 -127zM340 96q69 0 118.5 46.5 t49.5 127.5t-50 129l-157 -299q17 -4 39 -4z" unicode="ø"/>
<glyph horiz-adv-x="658" glyph-name="ugrave" d="M593 0h-129l-7 75q-88 -92 -195 -92q-83 0 -141.5 58.5t-58.5 161.5v333h140v-327q0 -49 30 -76.5t74 -27.5q85 0 147 95v336h140v-536zM411 672l-105 -43l-106 174l140 22z" unicode="ù"/>
<glyph horiz-adv-x="658" glyph-name="uacute" d="M593 0h-129l-7 75q-88 -92 -195 -92q-83 0 -141.5 58.5t-58.5 161.5v333h140v-327q0 -49 30 -76.5t74 -27.5q85 0 147 95v336h140v-536zM461 790l-106 -174l-105 43l71 153z" unicode="ú"/>
<glyph horiz-adv-x="658" glyph-name="ucircumflex" d="M593 0h-129l-7 75q-88 -92 -195 -92q-83 0 -141.5 58.5t-58.5 161.5v333h140v-327q0 -49 30 -76.5t74 -27.5q85 0 147 95v336h140v-536zM398 633l-68 109l-71 -110l-76 49l94 126h104l94 -126z" unicode="û"/>
<glyph horiz-adv-x="658" glyph-name="udieresis" d="M235 770q26 0 44.5 -17.5t18.5 -44.5q0 -26 -19 -45t-44 -19t-44.5 19t-19.5 45q0 27 18.5 44.5t45.5 17.5zM401 770q26 0 44.5 -17.5t18.5 -44.5q0 -26 -19 -45t-44 -19t-44.5 19t-19.5 45q0 27 18.5 44.5t45.5 17.5zM593 0h-129l-7 75q-88 -92 -195 -92 q-83 0 -141.5 58.5t-58.5 161.5v333h140v-327q0 -49 30 -76.5t74 -27.5q85 0 147 95v336h140v-536z" unicode="ü"/>
<glyph horiz-adv-x="651" glyph-name="yacute" d="M348 605l-105 43l71 153l140 -22zM666 536l-398 -841h-161l147 304l-248 537h161l164 -379l174 379h161z" unicode="ý"/>
<glyph horiz-adv-x="690" glyph-name="thorn" d="M221 700v-229q79 73 179 73t172.5 -74.5t72.5 -209.5q0 -126 -68 -197t-162 -71q-57 0 -109 24t-85 58v-266h-139v892h139zM220 365v-189q64 -67 142 -67q61 0 102.5 41.5t41.5 111.5q0 71 -44.5 115.5t-109.5 44.5q-73 0 -132 -57z" unicode="þ"/>
<glyph horiz-adv-x="779" glyph-name="Dcroat" d="M286 702q75 0 140 -12.5t122 -39t97 -66t63 -97.5t23 -130q0 -172 -122 -266t-327 -94q-118 0 -185 3v319h-73v88h73v293q98 2 189 2zM316 133q113 5 189 60t76 160q0 58 -25 101.5t-65.5 66.5t-84 34t-87.5 11h-2h-5.5t-8.5 0.5t-11.5 0.5h-13.5t-15.5 -0.5t-17.5 -0.5 v-159h137v-88h-137v-186q34 -1 71 0z" unicode="Đ"/>
<glyph horiz-adv-x="280" glyph-name="dotlessi" d="M210 0h-140v536h140v-536z" unicode="ı"/>
<glyph horiz-adv-x="585" glyph-name="Lcaron" d="M236 135h344v-135h-494v700h150v-565z" unicode="Ľ"/>
<glyph horiz-adv-x="624" glyph-name="circumflex" d="M520 762l-68 109l-71 -110l-76 49l94 126h104l94 -126z" unicode="ˆ"/>
<glyph horiz-adv-x="624" glyph-name="dotaccent" d="M374 907q26 0 44.5 -17.5t18.5 -44.5q0 -26 -19 -45t-44 -19t-44.5 19t-19.5 45q0 27 18.5 44.5t45.5 17.5z" unicode="˙"/>
<glyph horiz-adv-x="641" glyph-name="ring" d="M430 989q57 0 95 -34t38 -89q0 -56 -38 -88.5t-95 -32.5q-58 0 -96 32.5t-38 88.5q0 55 38.5 89t95.5 34zM429 921q-22 0 -39 -16t-17 -38q0 -23 17 -38.5t40 -15.5t39.5 15.5t16.5 38.5t-17 38.5t-40 15.5z" unicode="˚"/>
<glyph horiz-adv-x="648" glyph-name="tilde" d="M369 907q44 -1 96.5 -33.5t73.5 -32.5q40 0 62 56l68 -30q-10 -48 -44 -79t-83 -31q-40 0 -94 31.5t-79 31.5q-43 5 -63 -53l-67 35q9 46 44.5 76t85.5 29z" unicode="˜"/>
<glyph horiz-adv-x="240" glyph-name="quotesinglbase" d="M115 134q35 0 60.5 -26t25.5 -69q0 -57 -43 -96t-103 -39l5 46q42 7 51 46q-28 -6 -50.5 13t-22.5 51q0 31 22.5 52.5t54.5 21.5z" unicode="‚"/>
<glyph horiz-adv-x="620" glyph-name="fraction" d="M157 0h-119l453 700h120z" unicode="⁄"/>
<glyph horiz-adv-x="398" glyph-name="foursuperior" d="M309 465h51v-67h-51v-73h-85v73h-196v59l184 242h97v-234zM116 464h109v136z" unicode="⁴"/>
<glyph horiz-adv-x="429" glyph-name="two.dnom" d="M212 378q52 0 93.5 -32.5t41.5 -85.5q0 -57 -49 -98l-102 -85h159v-76h-303v53l165 144q39 33 39 60q0 18 -14 30.5t-37 12.5q-21 0 -39 -16.5t-26 -41.5l-82 24q16 52 60 81.5t94 29.5z"/>
</font>
</defs>
</svg>
