<?xml version="1.0" encoding="UTF-8" standalone="no"?>
<!DOCTYPE svg  PUBLIC '-//W3C//DTD SVG 1.1//EN'  'http://www.w3.org/Graphics/SVG/1.1/DTD/svg11.dtd'>
<svg version="1.1" xmlns="http://www.w3.org/2000/svg">
<defs>
<font id="TideSans-900Dude" horiz-adv-x="719">
<font-face units-per-em="1000" cap-height="700" ascent="727" font-weight="400" bbox="-180 -307 1217 1027" font-family="s" underline-thickness="50" descent="-273" underline-position="-100" panose-1="0 0 10 0 0 0 0 0 0 0" x-height="538" unicode-range="U+0020-2212"/>
<missing-glyph/>
<glyph glyph-name="space" unicode=" " horiz-adv-x="300"/>
<glyph d="M332 287h-252l-30 413h312zM207 256q58 0 99.5 -41t41.5 -97q0 -57 -41.5 -97.5t-99.5 -40.5q-60 0 -101 40.5t-41 97.5t41 97.5t101 40.5z" glyph-name="exclam" unicode="!" horiz-adv-x="412"/>
<glyph d="M216 775v-159l-30 -176h-145l-31 176v159h206zM456 775v-159l-30 -176h-145l-31 176v159h206z" glyph-name="quotedbl" unicode='&quot;' horiz-adv-x="466"/>
<glyph d="M609 346l-6 -50h68v-210h-94l-11 -86h-216l11 86h-52l-11 -86h-216l11 86h-63v210h89l6 50h-65v210h91l11 85h216l-11 -85h52l11 85h216l-11 -85h66v-210h-92zM393 346h-52l-6 -50h52z" glyph-name="numbersign" unicode="#" horiz-adv-x="731"/>
<glyph d="M329 423q80 -12 130 -60.5t39 -123.5q-10 -62 -56 -100t-117 -46l-15 -93l-174 28l13 84q-74 24 -130 66l58 146q69 -54 158 -67q32 -4 34 8q2 8 -35 13q-81 12 -130 61t-37 125q9 64 54.5 101t110.5 48l15 88l174 -31l-14 -74q50 -19 96 -52l-56 -142q-62 34 -117 40 q-35 5 -37 -7q0 -2 1.5 -4t6.5 -3.5t11.5 -2.5t16.5 -2z" glyph-name="dollar" unicode="$" horiz-adv-x="522"/>
<glyph d="M196 722q82 0 126 -48.5t44 -115.5q0 -72 -43.5 -116t-126.5 -44q-73 0 -122 42t-49 118q0 73 47.5 118.5t123.5 45.5zM335 0h-222l448 700h222zM200 584q-29 0 -29 -29q0 -5 2 -10.5t9 -11t18 -5.5t18 5.5t8.5 11t1.5 10.5q0 29 -28 29zM702 313q82 0 126 -48.5 t44 -115.5q0 -72 -43.5 -116t-126.5 -44q-73 0 -122 42t-49 118q0 73 47.5 118.5t123.5 45.5zM706 173q-26 0 -26 -26q0 -5 1.5 -9.5t8 -9.5t16.5 -5q25 0 25 24q0 26 -25 26z" glyph-name="percent" unicode="%" horiz-adv-x="897"/>
<glyph d="M633 0l-30 28q-119 -53 -256 -53q-83 0 -153.5 25.5t-117 82.5t-46.5 136q0 130 140 206q-37 40 -37 107q0 68 41 117.5t96.5 70t115.5 20.5q100 0 168.5 -59t68.5 -156q0 -101 -88 -161l46 -44q11 27 11 55h242q0 -133 -73 -227l156 -148h-284zM368 523l15 -14 q43 20 43 43q0 12 -9.5 19.5t-23.5 7.5t-24.5 -8t-11.5 -19q-2 -17 11 -29zM366 182q28 0 53 8l-84 79q-25 -17 -28 -37t11.5 -34.5t47.5 -15.5z" glyph-name="ampersand" unicode="&amp;" horiz-adv-x="884"/>
<glyph d="M216 775v-159l-30 -176h-145l-31 176v159h206z" glyph-name="quotesingle" unicode="&apos;" horiz-adv-x="226"/>
<glyph d="M195 800l222 -115q-113 -193 -113 -385q0 -190 113 -384l-222 -116q-27 39 -42.5 63.5t-43 78.5t-43 101t-28.5 116.5t-13 140.5q0 266 170 500z" glyph-name="parenleft" unicode="(" horiz-adv-x="462"/>
<glyph d="M45 685l222 115q170 -234 170 -500q0 -71 -13 -140.5t-28.5 -116.5t-43 -101t-43 -78.5t-42.5 -63.5l-222 116q113 194 113 384q0 192 -113 385z" glyph-name="parenright" unicode=")" horiz-adv-x="462"/>
<glyph d="M322 570l40 -55l-107 -70l-36 60l-37 -60l-107 76l40 52l-67 15l30 130l74 -19l-1 76l142 -3l-3 -72l68 20l33 -136z" glyph-name="asterisk" unicode="*" horiz-adv-x="438"/>
<glyph d="M467 445h178v-200h-178v-185h-220v185h-177v200h177v185h220v-185z" glyph-name="plus" unicode="+" horiz-adv-x="715"/>
<glyph d="M119 207q55 0 91 -39.5t36 -97.5q0 -78 -62 -137.5t-155 -60.5l4 65q26 2 47.5 19.5t28.5 46.5q-37 -8 -70.5 18.5t-33.5 75.5q0 47 32.5 78.5t81.5 31.5z" glyph-name="comma" unicode="," horiz-adv-x="255"/>
<glyph d="M410 251h-385v218h385v-218z" glyph-name="hyphen" unicode="-" horiz-adv-x="435"/>
<glyph d="M140 251q55 0 95 -40t40 -95q0 -56 -40 -95.5t-95 -39.5q-56 0 -95.5 39.5t-39.5 95.5q0 55 40 95t95 40z" glyph-name="period" unicode="." horiz-adv-x="284"/>
<glyph d="M249 -158h-254l253 871h254z" glyph-name="slash" unicode="/" horiz-adv-x="527"/>
<glyph d="M372 714q160 0 262.5 -96.5t102.5 -266.5q0 -173 -102 -268t-263 -95q-160 0 -262 95t-102 268q0 170 102.5 266.5t261.5 96.5zM372 498q-37 0 -61.5 -37.5t-24.5 -106.5t24.5 -107.5t61.5 -38.5t62 38.5t25 107.5t-25 106.5t-62 37.5z" glyph-name="zero" unicode="0" horiz-adv-x="745"/>
<glyph d="M444 0h-278v459l-68 -41l-93 157l192 125h247v-700z" glyph-name="one" unicode="1" horiz-adv-x="494"/>
<glyph d="M333 719q120 0 204 -67t84 -174q0 -117 -121 -204l-76 -55h204v-219h-600v192l264 181q51 37 61 51q9 14 9 30q0 20 -13.5 34t-34.5 14q-25 0 -47 -20.5t-30 -50.5l-217 75q18 53 49 93.5t64 62.5t72.5 35.5t69 17.5t58.5 4z" glyph-name="two" unicode="2" horiz-adv-x="668"/>
<glyph d="M293 715q115 0 192.5 -49t77.5 -133q0 -47 -29 -88.5t-79 -63.5q131 -46 131 -170q0 -72 -47 -123.5t-114 -74.5t-144 -23q-143 0 -281 85l81 182q79 -51 152 -51q69 0 69 32q0 16 -18 24t-45 8h-87v168h81q58 0 58 31q0 29 -54 29q-68 0 -138 -49l-83 187q141 79 277 79 z" glyph-name="three" unicode="3" horiz-adv-x="596"/>
<glyph d="M625 327h92v-217h-95v-110h-277v110h-340v162l321 428h299v-373zM254 322h96v136z" glyph-name="four" unicode="4" horiz-adv-x="727"/>
<glyph d="M594 504h-281l-6 -57q60 29 124 29q95 0 155 -58.5t60 -159.5q0 -128 -92.5 -202t-227.5 -74q-154 0 -286 96l92 181q79 -57 160 -57q77 0 77 46q0 24 -22.5 37.5t-56.5 12.5q-58 -1 -122 -40l-99 63l35 379h490v-196z" glyph-name="five" unicode="5" horiz-adv-x="691"/>
<glyph d="M463 458q92 0 160 -53.5t68 -149.5q0 -111 -87 -188.5t-232 -77.5q-103 0 -186 39.5t-134.5 121t-51.5 191.5q0 166 119 269t287 103q130 0 233 -67l-80 -192q-58 45 -123 45q-50 0 -88.5 -26.5t-56.5 -71.5q77 57 172 57zM413 256q1 19 -12.5 32.5t-35.5 13.5 q-38 0 -71 -43q25 -46 68 -46q21 0 35.5 12t15.5 31z" glyph-name="six" unicode="6" horiz-adv-x="682"/>
<glyph d="M576 447l-270 -447h-304l303 469h-283v231h554v-253z" glyph-name="seven" unicode="7" horiz-adv-x="608"/>
<glyph d="M351 713q79 0 147 -21.5t114.5 -69.5t46.5 -113q0 -58 -33.5 -94.5t-85.5 -51.5q62 -14 104 -58.5t42 -107.5q0 -68 -50 -116.5t-124 -70t-161 -21.5q-86 0 -159 21.5t-122.5 70t-49.5 116.5q0 66 43 110.5t100 55.5q-47 14 -81 50.5t-34 95.5q0 65 45.5 113t112.5 69.5 t145 21.5zM351 545q-21 0 -36 -14.5t-15 -35.5q0 -22 14.5 -36t36.5 -14t36.5 14t14.5 36t-14.5 36t-36.5 14zM351 287q-26 0 -44.5 -16.5t-18.5 -44.5q0 -27 18.5 -43.5t44.5 -16.5t45 16.5t19 43.5q0 28 -19 44.5t-45 16.5z" glyph-name="eight" unicode="8" horiz-adv-x="706"/>
<glyph d="M316 713q98 0 179.5 -39.5t134 -121t52.5 -191.5q0 -164 -111.5 -268t-288.5 -104q-131 0 -236 67l78 188q64 -40 127 -40q49 0 90.5 24t54.5 75q-77 -59 -177 -59q-88 0 -154 53t-66 148q0 109 90 188.5t227 79.5zM320 400q35 0 65 37q-22 52 -64 52q-20 0 -34 -12 t-15 -30q-1 -19 12.5 -33t35.5 -14z" glyph-name="nine" unicode="9" horiz-adv-x="706"/>
<glyph d="M129 585q47 0 81.5 -34t34.5 -81q0 -48 -34 -81.5t-82 -33.5q-47 0 -81 33.5t-34 81.5q0 47 34 81t81 34zM129 274q47 0 81.5 -34t34.5 -81q0 -48 -34 -81.5t-82 -33.5q-47 0 -81 33.5t-34 81.5q0 47 34 81t81 34z" glyph-name="colon" unicode=":" horiz-adv-x="259"/>
<glyph d="M152 580q51 0 89 -37.5t38 -89.5t-38 -89.5t-89 -37.5q-52 0 -89.5 37t-37.5 90q0 52 37.5 89.5t89.5 37.5zM140 207q55 0 91 -39.5t36 -97.5q0 -78 -62 -137.5t-155 -60.5l4 65q26 2 47.5 19.5t28.5 46.5q-37 -8 -70.5 18.5t-33.5 75.5q0 47 32.5 78.5t81.5 31.5z" glyph-name="semicolon" unicode=";" horiz-adv-x="310"/>
<glyph d="M614 423l-288 -76l288 -77l-66 -205l-508 190v180l508 190z" glyph-name="less" unicode="&lt;" horiz-adv-x="654"/>
<glyph d="M615 365h-575v200h575v-200zM615 95h-575v200h575v-200z" glyph-name="equal" unicode="=" horiz-adv-x="655"/>
<glyph d="M614 435v-180l-508 -190l-66 205l288 77l-288 76l66 202z" glyph-name="greater" unicode="&gt;" horiz-adv-x="654"/>
<glyph d="M329 738q116 6 200 -57t84 -176q0 -40 -12 -70t-30 -46t-39.5 -31.5t-40.5 -27t-32.5 -32t-16.5 -47.5l-273 1q-11 58 2.5 102t40 68t54.5 39.5t49 25t21 16.5q0 11 -22 13q-27 2 -58.5 -18.5t-53.5 -59.5l-182 121q101 171 309 179zM311 231q49 0 85.5 -36.5t36.5 -85.5 q0 -51 -36 -86.5t-86 -35.5t-86 35.5t-36 86.5q0 50 36 86t86 36z" glyph-name="question" unicode="?" horiz-adv-x="647"/>
<glyph d="M637 784q87 0 166.5 -20t148.5 -63t117 -104.5t70.5 -151t11.5 -196.5q-18 -156 -97 -246t-197 -90q-99 0 -166.5 58t-69.5 132q-41 -79 -128 -79q-29 0 -56 12t-51 36.5t-35.5 69t-4.5 102.5q13 103 66.5 149.5t118.5 46.5q61 0 122 -45l15 43h157l-26 -248 q-5 -61 38 -61q65 0 81 131q15 142 -65.5 223t-214.5 81q-140 0 -241 -87.5t-116 -238.5q-14 -148 68 -235t216 -87q61 0 121 20l58 -216q-91 -27 -182 -27q-113 0 -213 40t-173 111t-111 177t-27 231q13 155 94 276.5t213 188.5t292 67zM596 306q-18 0 -32.5 -14.5 t-18.5 -40.5q-5 -27 5 -47t32 -21q19 -1 41 15l12 92q-20 16 -39 16z" glyph-name="at" unicode="@" horiz-adv-x="1169"/>
<glyph d="M549 91h-264l-33 -91h-267l299 700h266l301 -700h-269zM473 298l-57 154l-56 -154h113z" glyph-name="A" unicode="A" horiz-adv-x="836"/>
<glyph d="M306 707q95 0 165.5 -10.5t112.5 -27.5t67 -42.5t34 -50.5t9 -56q0 -109 -99 -146q58 -15 98 -58.5t40 -119.5q0 -118 -107.5 -161.5t-331.5 -43.5q-50 0 -244 9v700q164 7 256 7zM361 508q-17 0 -37 -2v-71q16 -2 35 -2q69 0 69 38q0 37 -67 37zM362 284q-20 0 -38 -2 v-76q18 -2 42 -2q66 0 66 39q0 21 -20 31t-50 10z" glyph-name="B" unicode="B" horiz-adv-x="748"/>
<glyph d="M446 722q136 0 254 -60l-96 -205q-64 44 -139 44q-70 0 -116.5 -38t-46.5 -109t47.5 -112t119.5 -41q80 0 142 48l90 -201q-114 -69 -255 -69q-63 0 -123.5 14.5t-114.5 45t-94.5 73.5t-64.5 104.5t-24 133.5q0 169 119 270.5t302 101.5z" glyph-name="C" unicode="C" horiz-adv-x="728"/>
<glyph d="M50 0v700q147 6 262 4q226 -4 339.5 -89t113.5 -260q0 -187 -133.5 -274t-419.5 -87q-64 0 -162 6zM328 482v-260q20 0 34 2q51 7 87.5 39t36.5 94q0 108 -124 123q-16 2 -34 2z" glyph-name="D" unicode="D" horiz-adv-x="790"/>
<glyph d="M635 482h-307v-54h231v-154h-231v-56h327v-218h-605v700h585v-218z" glyph-name="E" unicode="E" horiz-adv-x="685"/>
<glyph d="M635 482h-307v-88h231v-174h-231v-220h-278v700h585v-218z" glyph-name="F" unicode="F" horiz-adv-x="652"/>
<glyph d="M450 717q132 0 263 -64l-83 -204q-71 51 -153 51q-75 0 -124.5 -42t-49.5 -112t49 -110t118 -40q56 0 106 28v27h-128v160l345 -1v-316q-53 -46 -145.5 -81t-202.5 -35q-184 0 -302 99.5t-118 264.5q0 114 61 201t156.5 130.5t207.5 43.5z" glyph-name="G" unicode="G" horiz-adv-x="822"/>
<glyph d="M799 0h-278v241h-193v-241h-278v700h278v-241h193v241h278v-700z" glyph-name="H" unicode="H" horiz-adv-x="849"/>
<glyph d="M328 0h-278v700h278v-700z" glyph-name="I" unicode="I" horiz-adv-x="378"/>
<glyph d="M448 700v-324q0 -119 -27 -199t-84.5 -126t-135.5 -65t-192 -19l-3 236q80 0 121.5 45t41.5 123v329h279z" glyph-name="J" unicode="J" horiz-adv-x="491"/>
<glyph d="M558 354l281 -354h-347l-164 248v-248h-278v700h278v-256l158 256h299z" glyph-name="K" unicode="K" horiz-adv-x="799"/>
<glyph d="M328 218h268v-218h-546v700h278v-482z" glyph-name="L" unicode="L" horiz-adv-x="601"/>
<glyph d="M952 0h-283v292l-172 -215l-169 216v-293h-278v700h265l182 -240l185 240h270v-700z" glyph-name="M" unicode="M" horiz-adv-x="1002"/>
<glyph d="M808 0h-268l-212 280v-280h-278v700h268l212 -298v298h278v-700z" glyph-name="N" unicode="N" horiz-adv-x="858"/>
<glyph d="M447 713q84 0 160 -24.5t135 -70t93.5 -116.5t34.5 -159q0 -169 -119 -270t-302 -101q-117 0 -212 41.5t-153.5 127t-58.5 200.5t58.5 201t153 128.5t210.5 42.5zM448 495q-62 0 -103.5 -44t-41.5 -107t41 -108.5t103 -45.5t103.5 45t41.5 108q0 62 -40.5 107t-103.5 45z " glyph-name="O" unicode="O" horiz-adv-x="895"/>
<glyph d="M50 0v700q121 10 259 10q76 0 136.5 -8.5t112.5 -27.5t87 -49.5t54.5 -76t19.5 -105.5q0 -63 -21.5 -113t-53 -81t-75.5 -53t-82 -32t-78 -15q-49 -6 -81 -6v-143h-278zM328 485v-124q19 -1 39 4q60 16 60 60q0 46 -61 57q-18 3 -38 3z" glyph-name="P" unicode="P" horiz-adv-x="736"/>
<glyph d="M788 -24l137 -109q-39 -87 -108.5 -134t-161.5 -31q-39 7 -73.5 27.5t-55 41t-47.5 39.5t-53 23q-58 11 -99 -67l-137 126q34 69 88 107q-115 38 -184 126.5t-69 215.5q0 115 58.5 201t153 128.5t210.5 42.5q84 0 160 -24.5t135 -70t93.5 -116.5t34.5 -159 q0 -136 -80 -230t-212 -126q15 -11 38 -32t38.5 -32t32.5 -14q60 -10 101 67zM448 495q-62 0 -103.5 -44t-41.5 -107t41 -108.5t103 -45.5t103.5 45t41.5 108q0 62 -40.5 107t-103.5 45z" glyph-name="Q" unicode="Q" horiz-adv-x="895"/>
<glyph d="M437 0l-63 154q-30 0 -46 1v-155h-278v700q212 7 288 6q176 -2 272.5 -70t96.5 -200q0 -119 -84 -193l111 -243h-297zM328 484v-113q12 0 42 4q61 11 61 54q0 24 -19.5 37.5t-46.5 16.5q-13 1 -37 1z" glyph-name="R" unicode="R" horiz-adv-x="749"/>
<glyph d="M358 716q117 0 240 -51l-33 -206q-87 39 -170 39q-71 0 -71 -25q0 -12 16 -15t55 -4.5t67 -6.5q38 -7 70 -20.5t61.5 -37t46.5 -62t17 -88.5q0 -119 -91 -186t-237 -67q-149 0 -296 70l61 204q107 -58 212 -58q67 0 67 22q0 11 -19 14.5t-62 7.5t-77 12q-175 43 -175 204 q0 123 91.5 188.5t226.5 65.5z" glyph-name="S" unicode="S" horiz-adv-x="685"/>
<glyph d="M732 482h-226v-482h-278v482h-225v218h729v-218z" glyph-name="T" unicode="T" horiz-adv-x="735"/>
<glyph d="M776 700v-410q0 -149 -105 -234.5t-256 -85.5q-67 0 -130.5 18t-119 54t-89 98.5t-33.5 142.5v417h278v-403q0 -38 23.5 -63.5t64.5 -25.5t65 25.5t24 63.5v403h278z" glyph-name="U" unicode="U" horiz-adv-x="819"/>
<glyph d="M557 0h-290l-316 700h296l164 -416l158 416h293z" glyph-name="V" unicode="V" horiz-adv-x="817"/>
<glyph d="M985 0h-255l-127 335l-126 -335h-245l-251 700h270l118 -360l133 360h201l134 -362l116 362h264z" glyph-name="W" unicode="W" horiz-adv-x="1202"/>
<glyph d="M386 169l-112 -169h-314l259 356l-245 344h311l101 -156l105 156h310l-248 -344l256 -356h-312z" glyph-name="X" unicode="X" horiz-adv-x="771"/>
<glyph d="M562 243v-243h-314v259l-276 441h315l124 -216l120 216h315z" glyph-name="Y" unicode="Y" horiz-adv-x="817"/>
<glyph d="M687 493l-299 -286h299v-207h-662v207l316 286h-292v207h638v-207z" glyph-name="Z" unicode="Z" horiz-adv-x="712"/>
<glyph d="M415 645h-83v-690h83v-151h-355v991h355v-150z" glyph-name="bracketleft" unicode="[" horiz-adv-x="475"/>
<glyph d="M239 763l253 -872l-214 -59l-253 872z" glyph-name="backslash" unicode="\" horiz-adv-x="510"/>
<glyph d="M415 795v-991h-355v151h83v690h-83v150h355z" glyph-name="bracketright" unicode="]" horiz-adv-x="475"/>
<glyph d="M256 700h148l257 -383l-217 1l-113 185l-114 -185l-217 -1z" glyph-name="asciicircum" unicode="^" horiz-adv-x="661"/>
<glyph d="M385 -185h-385v185h385v-185z" glyph-name="underscore" unicode="_" horiz-adv-x="385"/>
<glyph d="M532 825l-150 -66l-144 218l209 30z" glyph-name="grave" unicode="`" horiz-adv-x="655"/>
<glyph d="M687 538v-538h-250l-8 52q-64 -60 -154 -60q-101 0 -179 75t-78 210q0 69 23 122.5t60.5 84t80.5 45.5t88 15q88 0 161 -54l9 48h247zM362 366q-33 0 -56 -24t-23 -67q0 -42 22 -68.5t57 -26.5q31 0 60 24l-1 138q-27 24 -59 24z" glyph-name="a" unicode="a"/>
<glyph d="M311 723v-230q66 51 156 51q45 0 86.5 -13.5t79.5 -42.5t61 -83.5t23 -127.5t-22.5 -129.5t-60.5 -89.5t-82 -49.5t-91 -16.5q-49 0 -93.5 17t-70.5 43l-8 -52h-244v723h266zM372 366q-32 0 -61 -19l-1 -143q31 -24 65 -24t55.5 25t21.5 70q0 48 -24 69.5t-56 21.5z" glyph-name="b" unicode="b" horiz-adv-x="735"/>
<glyph d="M345 561q134 0 258 -85l-111 -180q-47 55 -113 55q-42 0 -69 -23t-27 -58t26.5 -57.5t65.5 -22.5q63 0 114 54l110 -186q-114 -78 -248 -78q-85 0 -159 31t-124 98t-50 159q0 95 49.5 163.5t122 99t155.5 30.5z" glyph-name="c" unicode="c" horiz-adv-x="623"/>
<glyph d="M690 723v-723h-244l-8 52q-26 -26 -70.5 -43t-93.5 -17q-47 0 -91 16.5t-82 49.5t-60.5 89.5t-22.5 129.5t23 127.5t61 83.5t79.5 42.5t86.5 13.5q90 0 156 -51v230h266zM363 366q-32 0 -56 -21.5t-24 -69.5q0 -45 21.5 -70t55.5 -25t65 24l-1 143q-29 19 -61 19z" glyph-name="d" unicode="d" horiz-adv-x="735"/>
<glyph d="M367 557q70 0 129 -19t96 -50.5t62 -72.5t28 -84t-7 -86h-379q13 -34 45 -52.5t75 -18.5q73 0 140 51l94 -151q-114 -88 -275 -88q-98 0 -178.5 32.5t-129.5 98t-49 152.5q0 129 99 208.5t250 79.5zM297 332h129q-2 20 -19.5 34t-42.5 14q-48 0 -67 -48z" glyph-name="e" unicode="e" horiz-adv-x="697"/>
<glyph d="M373 798q114 0 221 -58l-72 -188q-56 37 -109 37q-30 0 -45.5 -12t-15.5 -31v-8h101v-210h-98v-328h-265v328h-70v210h70v18q0 60 24 107.5t64.5 76.5t90 43.5t104.5 14.5z" glyph-name="f" unicode="f" horiz-adv-x="489"/>
<glyph d="M261 544q77 0 158 -46l10 40h253v-492q0 -89 -32 -156t-85.5 -104t-114 -55t-127.5 -18q-129 0 -256 69l78 183q73 -42 147 -42q61 0 96.5 28.5t35.5 76.5l1 18q-73 -54 -155 -54q-48 0 -92 16.5t-80.5 49.5t-58 89.5t-21.5 129.5t21.5 127.5t58 83.5t77.5 42.5t86 13.5z M360 366q-32 0 -54.5 -22.5t-22.5 -68.5q0 -45 21 -70t53 -25t60 24v143q-27 19 -57 19z" glyph-name="g" unicode="g" horiz-adv-x="714"/>
<glyph d="M311 723v-245q68 66 164 66q93 0 158.5 -56.5t65.5 -166.5v-321h-266l1 289q0 30 -15.5 45.5t-39.5 15.5q-38 0 -68 -35l-1 -315h-265v723h266z" glyph-name="h" unicode="h" horiz-adv-x="724"/>
<glyph d="M173 810q55 0 92.5 -33t37.5 -87q0 -56 -37 -87t-93 -31q-57 0 -94.5 31.5t-37.5 86.5q0 54 38 87t94 33zM305 0h-265v538h265v-538z" glyph-name="i" unicode="i" horiz-adv-x="345"/>
<glyph d="M184 790q55 0 92.5 -31t37.5 -79t-37.5 -78t-92.5 -30q-56 0 -94 30.5t-38 77.5t38.5 78.5t93.5 31.5zM319 538v-538q0 -122 -82.5 -193t-202.5 -71q-108 0 -214 59l74 186q53 -35 98 -33q27 1 44.5 15t17.5 37v538h265z" glyph-name="j" unicode="j" horiz-adv-x="354"/>
<glyph d="M308 382l118 156h272l-195 -255l219 -283h-295l-119 168v-168h-263v719h263v-337z" glyph-name="k" unicode="k" horiz-adv-x="682"/>
<glyph d="M311 0h-266v719h266v-719z" glyph-name="l" unicode="l" horiz-adv-x="356"/>
<glyph d="M785 555q92 0 153.5 -59.5t61.5 -153.5v-342h-266l1 319q0 18 -10.5 29.5t-27.5 11.5q-25 0 -49 -22v-338h-265v319q0 17 -11 29t-27 12q-24 0 -48 -22v-338h-265v538h245l11 -60q27 32 73 54.5t99 22.5q63 0 105.5 -25t60.5 -57q16 28 59 55t100 27z" glyph-name="m" unicode="m" horiz-adv-x="1025"/>
<glyph d="M459 544q86 0 152 -55t66 -147v-342h-266l1 302q0 27 -13 42.5t-35 15.5q-36 0 -66 -35l-1 -325h-265v538h249l10 -57q72 63 168 63z" glyph-name="n" unicode="n" horiz-adv-x="702"/>
<glyph d="M361 555q149 0 244.5 -76t95.5 -209q0 -135 -96 -209t-244 -74q-155 0 -249 77t-94 206q0 127 93 206t250 79zM361 345q-34 0 -56 -20.5t-22 -54.5q0 -35 21.5 -54t56.5 -19t55 19.5t20 53.5t-20.5 54.5t-54.5 20.5z" glyph-name="o" unicode="o"/>
<glyph d="M275 538l16 -49q63 54 157 54q45 0 86 -13.5t79 -42.5t61 -83.5t23 -127.5t-23 -129.5t-60.5 -89.5t-81.5 -49.5t-91 -16.5q-76 0 -151 50v-225h-258v722h243zM354 365q-32 0 -57 -19v-143q30 -24 61 -24q32 0 53 25.5t21 68.5q0 46 -23 69t-55 23z" glyph-name="p" unicode="p" horiz-adv-x="715"/>
<glyph d="M676 538v-722h-258v231q-67 -56 -167 -56q-99 0 -166 69t-67 206q0 77 22 133t58.5 86t77.5 44t86 14q95 0 156 -54l16 49h242zM353 365q-29 0 -50.5 -21.5t-21.5 -69.5q0 -43 18 -69t50 -26q31 0 62 24l-1 143q-27 19 -57 19z" glyph-name="q" unicode="q" horiz-adv-x="708"/>
<glyph d="M420 546q49 0 100 -32l-56 -202q-33 26 -68 26q-62 0 -99 -72v-266h-265v538h238l13 -71q52 79 137 79z" glyph-name="r" unicode="r" horiz-adv-x="514"/>
<glyph d="M315 554q110 -4 213 -52l-44 -148q-53 27 -135 35q-41 3 -41 -15q0 -6 10.5 -8t38.5 -4t52 -7q72 -14 120.5 -58t48.5 -120q0 -53 -24.5 -91.5t-67.5 -60t-95 -31t-112 -7.5q-147 3 -260 75l66 148q93 -54 194 -55q19 0 29 1.5t12.5 4t2.5 7.5q0 6 -14.5 8.5t-48 6.5 t-61.5 11q-68 17 -111.5 61.5t-43.5 119.5q0 54 25.5 92.5t67.5 56.5t86 25t92 5z" glyph-name="s" unicode="s" horiz-adv-x="597"/>
<glyph d="M352 538h135v-209h-135v-66q1 -31 20.5 -46.5t48.5 -16.5q35 -1 76 19l54 -179q-100 -50 -198 -50q-117 0 -188 69t-71 173v97h-82v209h82v162h258v-162z" glyph-name="t" unicode="t" horiz-adv-x="546"/>
<glyph d="M616 0h-237l-13 41q-73 -58 -154 -58q-82 0 -135 58t-53 155v342h242v-334q0 -16 10.5 -26t28.5 -10q27 0 52 20v350h260z" glyph-name="u" unicode="u" horiz-adv-x="649"/>
<glyph d="M343 254l107 284h248l-240 -538h-228l-249 538h254z" glyph-name="v" unicode="v" horiz-adv-x="680"/>
<glyph d="M822 0h-265l-69 189l-67 -189h-263l-173 538h257l65 -265l75 265h213l75 -271l65 271h257z" glyph-name="w" unicode="w" horiz-adv-x="977"/>
<glyph d="M500 272l220 -272h-287l-87 107l-84 -107h-282l223 284l-205 254h287l76 -99l79 99h282z" glyph-name="x" unicode="x" horiz-adv-x="692"/>
<glyph d="M724 538l-371 -842h-255l143 324l-255 518h268l116 -261l106 261h248z" glyph-name="y" unicode="y" horiz-adv-x="710"/>
<glyph d="M546 395l-194 -195h201v-200h-533v139l199 199h-191v200h518v-143z" glyph-name="z" unicode="z" horiz-adv-x="568"/>
<glyph d="M411 775v-157q-37 0 -50 -13t-13 -50v-120q0 -113 -87 -130v-10q87 -17 87 -130v-103q0 -37 12.5 -49.5t50.5 -12.5v-158h-194q-79 0 -113 34.5t-34 113.5v165q0 47 -16 63.5t-44 16.5v130q28 0 44 16.5t16 63.5v183q0 79 34 113t113 34h194z" glyph-name="braceleft" unicode="{" horiz-adv-x="441"/>
<glyph d="M342 -97h-222v854h222v-854z" glyph-name="bar" unicode="|" horiz-adv-x="462"/>
<glyph d="M30 775h194q79 0 113 -34t34 -113v-183q0 -47 16.5 -63.5t43.5 -16.5v-130q-27 0 -43.5 -16.5t-16.5 -63.5v-165q0 -79 -34 -113.5t-113 -34.5h-194v158q38 0 50.5 12.5t12.5 49.5v103q0 113 87 130v10q-87 17 -87 130v120q0 37 -12.5 50t-50.5 13v157z" glyph-name="braceright" unicode="}" horiz-adv-x="441"/>
<glyph d="M181 536q47 13 88.5 2t67.5 -31t56 -35.5t55 -9.5q42 10 63 60l122 -67q-17 -66 -58.5 -117.5t-102.5 -68.5q-46 -13 -87.5 -0.5t-69 34t-62.5 36t-66 5.5q-43 -11 -64 -57l-113 60q16 66 61.5 118.5t109.5 70.5z" glyph-name="asciitilde" unicode="~" horiz-adv-x="649"/>
<glyph d="M207 382q-60 0 -101 40.5t-41 97.5t41 97.5t101 40.5q58 0 99.5 -40.5t41.5 -97.5q0 -56 -41.5 -97t-99.5 -41zM50 -62l30 413h252l30 -413h-312z" glyph-name="exclamdown" unicode="¡" horiz-adv-x="412"/>
<glyph d="M438 330l92 -158q-88 -58 -189 -68l-17 -104l-174 28l16 101q-68 29 -108 86.5t-40 138.5q0 106 63.5 170t162.5 80l17 97l174 -31l-14 -78q63 -19 117 -56l-93 -155q-55 42 -107 42q-38 0 -61 -20t-23 -48q0 -29 23.5 -47.5t57.5 -18.5q50 0 103 41z" glyph-name="cent" unicode="¢" horiz-adv-x="558"/>
<glyph d="M704 0h-527q-109 0 -181 59l104 190q39 -29 76 -28q39 1 39 25v26h-74v190h74v38q0 113 74.5 172t177.5 59q95 0 191 -53l-90 -182q-29 21 -57 20q-14 -1 -23 -11.5t-9 -26.5v-16h98v-190h-97v-27q0 -18 -6 -29h230v-216z" glyph-name="sterling" unicode="£" horiz-adv-x="734"/>
<glyph d="M361 135l-51 51q-32 -8 -64 -8q-31 0 -58 6l-51 -49l-117 117l40 39q-12 31 -12 72q0 39 12 72l-39 40l116 117l47 -48q30 8 62 8q34 0 66 -8l48 48l117 -117l-44 -45q10 -30 10 -67q0 -32 -10 -67l45 -45zM297 365q0 23 -14.5 36.5t-37.5 13.5q-18 0 -34 -14t-16 -36 q0 -23 15 -37t35 -14q21 0 36.5 14t15.5 37z" glyph-name="currency" unicode="¤" horiz-adv-x="498"/>
<glyph d="M629 351h50v-128h-117v-30h117v-128h-117v-65h-314v65h-133v128h133v30h-133v128h75l-218 349h315l124 -216l120 216h315z" glyph-name="yen" unicode="¥" horiz-adv-x="817"/>
<glyph d="M342 371h-222v386h222v-386zM342 -97h-222v384h222v-384z" glyph-name="brokenbar" unicode="¦" horiz-adv-x="462"/>
<glyph d="M556 357q0 -63 -36 -102q35 -40 35 -111q0 -97 -74.5 -143t-193.5 -46q-128 0 -238 42l38 163q92 -38 184 -38q19 0 29 2.5t12.5 5.5t1.5 9q-1 8 -7 10t-30 2q-112 0 -182.5 44.5t-70.5 125.5q0 58 41 97q-40 41 -40 116q1 93 78.5 139.5t188.5 46.5q101 0 219 -40 l-37 -159q-89 37 -166 37q-17 0 -26 -3t-10.5 -6t-1.5 -8v-1q0 -6 5 -7.5t30 -2.5q68 -2 121.5 -17.5t91.5 -55t38 -100.5zM269 338q0 -11 22 -14q15 1 19 5.5t3 12.5q0 15 -26 15q-18 -4 -18 -19z" glyph-name="section" unicode="§" horiz-adv-x="576"/>
<glyph d="M343 938q34 0 58 -22.5t24 -57.5q0 -36 -24 -59.5t-58 -23.5t-58.5 24t-24.5 59t24.5 57.5t58.5 22.5zM557 938q34 0 58 -22.5t24 -57.5q0 -36 -24 -59.5t-58 -23.5t-58.5 24t-24.5 59t24.5 57.5t58.5 22.5z" glyph-name="dieresis" unicode="¨" horiz-adv-x="688"/>
<glyph d="M380 719q157 0 267.5 -107.5t110.5 -260.5t-110.5 -261.5t-267.5 -108.5t-268.5 108.5t-111.5 261.5t111 260.5t269 107.5zM380 587q-98 0 -167 -69t-69 -166q0 -98 69 -167t167 -69q97 0 166 69t69 167q0 97 -69 166t-166 69zM383 508q72 0 140 -46l-60 -98 q-27 30 -61 30q-23 0 -38 -12.5t-15 -31.5t14.5 -31t35.5 -12q35 0 62 29l60 -101q-62 -42 -135 -42t-126.5 41t-53.5 115q0 76 53 117.5t124 41.5z" glyph-name="copyright" unicode="©" horiz-adv-x="758"/>
<glyph d="M210 718q94 0 150 -44.5t56 -118.5v-212h-171l-1 24q-39 -28 -95 -30q-62 1 -104 35.5t-42 90.5q0 35 16.5 60.5t44 38.5t55 18.5t57.5 5.5q35 0 56 -7q2 32 -45 32q-43 0 -100 -24l-46 93q84 38 169 38zM203 492q-29 0 -29 -16q0 -7 6.5 -12.5t15.5 -5.5q16 0 33 9v23 q-16 2 -26 2zM418 135h-398v180h398v-180z" glyph-name="ordfeminine" unicode="ª" horiz-adv-x="443"/>
<glyph d="M258 270l214 -270h-258l-219 270l216 268h258zM594 270l214 -270h-258l-219 270l216 268h258z" glyph-name="guillemotleft" unicode="«" horiz-adv-x="802"/>
<glyph d="M593 102h-126v211h-415v117h541v-328z" glyph-name="logicalnot" unicode="¬" horiz-adv-x="645"/>
<glyph d="M370 719q152 0 260 -107.5t108 -260.5t-108 -261.5t-260 -108.5q-153 0 -261.5 108.5t-108.5 261.5t108.5 260.5t261.5 107.5zM495 306l44 -97q52 61 52 143q0 92 -64.5 156.5t-156.5 64.5t-157 -64.5t-65 -156.5t65 -157t157 -65q97 0 162 71h-129l-19 47h-11v-47h-142 v298q60 15 130 15q174 0 174 -125q0 -49 -40 -83zM403 382q0 27 -26 27h-11v-55h11q11 0 18.5 7.5t7.5 20.5z" glyph-name="registered" unicode="®" horiz-adv-x="738"/>
<glyph d="M645 775h-365v152h365v-152z" glyph-name="macron" unicode="¯" horiz-adv-x="698"/>
<glyph d="M196 811q82 0 126 -48.5t44 -115.5q0 -72 -43.5 -116t-126.5 -44q-73 0 -122 42t-49 118q0 73 47.5 118.5t123.5 45.5zM200 673q-29 0 -29 -29q0 -5 2 -10.5t9 -11t18 -5.5t18 5.5t8.5 11t1.5 10.5q0 29 -28 29z" glyph-name="degree" unicode="°" horiz-adv-x="391"/>
<glyph d="M423 564h150v-181h-150v-135h-203v135h-150v181h150v136h203v-136zM573 20h-503v181h503v-181z" glyph-name="plusminus" unicode="±" horiz-adv-x="643"/>
<glyph d="M199 717q68 0 116 -41t48 -99q0 -48 -43 -85l-58 -39h108v-133h-349v93l151 117q30 24 30 36q0 13 -17 13q-13 0 -22.5 -9t-12.5 -26l-130 39q13 42 37 71t52 41.5t49 17t41 4.5z" glyph-name="twosuperior" unicode="²" horiz-adv-x="410"/>
<glyph d="M160 721q66 0 112.5 -31.5t46.5 -84.5q0 -44 -39 -73q50 -32 50 -83q0 -58 -52 -92.5t-122 -34.5q-87 0 -156 49l55 107q43 -32 93 -32q33 0 33 16q0 6 -5 11.5t-14 5.5h-66v96h62q8 0 12.5 5t4.5 11q0 15 -27 15q-36 0 -80 -31l-54 103q67 43 146 43z" glyph-name="threesuperior" unicode="³" horiz-adv-x="350"/>
<glyph d="M646 977l-144 -218l-150 66l85 182z" glyph-name="acute" unicode="´" horiz-adv-x="608"/>
<glyph d="M617 538l-1 -538h-237l-13 41q-73 -58 -154 -58h-6v-183h-181v371q-1 8 -1 25v342h242v-334q0 -16 10.5 -26t28.5 -10q27 0 52 20v350h260z" glyph-name="uni00B5" unicode="µ" horiz-adv-x="636"/>
<glyph d="M956 762v-859h-222v655h-75v-655h-278v300q-27 0 -75 6q-40 6 -76.5 15.5t-79 31.5t-73.5 52.5t-51.5 79.5t-20.5 111q0 75 28.5 127.5t83 81.5t123.5 42t161 13q59 0 89 -1h466z" glyph-name="paragraph" unicode="¶" horiz-adv-x="1006"/>
<glyph d="M140 578q55 0 95 -40t40 -95q0 -56 -40 -95.5t-95 -39.5q-56 0 -95.5 39.5t-39.5 95.5q0 55 40 95t95 40z" glyph-name="periodcentered" unicode="·" horiz-adv-x="284"/>
<glyph d="M287 -209l-160 59l90 150h145z" glyph-name="cedilla" unicode="¸" horiz-adv-x="500"/>
<glyph d="M262 327h-159v213l-36 -22l-62 110l119 71h138v-372z" glyph-name="onesuperior" unicode="¹" horiz-adv-x="327"/>
<glyph d="M242 724q92 0 158 -55t66 -142q0 -98 -64.5 -146.5t-159.5 -48.5q-103 0 -163.5 50t-60.5 145q0 84 62 140.5t162 56.5zM243 585q-22 0 -37.5 -16t-15.5 -42t14 -41t39 -15q23 0 37.5 15.5t14.5 40.5q0 26 -14.5 42t-37.5 16zM450 135h-416v180h416v-180z" glyph-name="ordmasculine" unicode="º" horiz-adv-x="484"/>
<glyph d="M276 538l216 -268l-219 -270h-258l214 270l-211 268h258zM612 538l216 -268l-219 -270h-258l214 270l-211 268h258z" glyph-name="guillemotright" unicode="»" horiz-adv-x="838"/>
<glyph d="M884 174h43v-117h-43v-57h-153v57h-180v105l151 218h182v-206zM684 165h60v81zM355 0h-222l448 700h222zM307 327h-159v213l-36 -22l-62 110l119 71h138v-372z" glyph-name="onequarter" unicode="¼" horiz-adv-x="977"/>
<glyph d="M803 399q68 0 116 -41t48 -99q0 -48 -43 -85l-58 -39h108v-133h-349v93l151 117q30 24 30 36q0 13 -17 13q-13 0 -22.5 -9t-12.5 -26l-130 39q13 42 37 71t52 41.5t49 17t41 4.5zM380 0h-222l448 700h222zM307 327h-159v213l-36 -22l-62 110l119 71h138v-372z" glyph-name="onehalf" unicode="½" horiz-adv-x="1024"/>
<glyph d="M210 721q66 0 112.5 -31.5t46.5 -84.5q0 -44 -39 -73q50 -32 50 -83q0 -58 -52 -92.5t-122 -34.5q-87 0 -156 49l55 107q43 -32 93 -32q33 0 33 16q0 6 -5 11.5t-14 5.5h-66v96h62q8 0 12.5 5t4.5 11q0 15 -27 15q-36 0 -80 -31l-54 103q67 43 146 43zM948 174h43v-117 h-43v-57h-153v57h-180v105l151 218h182v-206zM748 165h60v81zM423 0h-222l448 700h222z" glyph-name="threequarters" unicode="¾" horiz-adv-x="1061"/>
<glyph d="M361 432q-49 0 -85.5 36t-36.5 86q0 51 36 86.5t86 35.5t86 -35.5t36 -86.5q0 -50 -36 -86t-86 -36zM343 -75q-116 -6 -200 57t-84 176q0 40 12 70t30 46t39.5 31.5t40.5 27t32.5 32t16.5 47.5l273 -1q11 -58 -2.5 -102t-40 -68t-54.5 -39.5t-49 -25t-21 -16.5 q0 -11 22 -13q27 -2 58.5 18.5t53.5 59.5l182 -121q-101 -171 -309 -179z" glyph-name="questiondown" unicode="¿" horiz-adv-x="657"/>
<glyph d="M419 759l-144 218l209 30l85 -182zM549 91h-264l-33 -91h-267l299 700h266l301 -700h-269zM473 298l-57 154l-56 -154h113z" glyph-name="Agrave" unicode="À" horiz-adv-x="836"/>
<glyph d="M458 779l-150 66l85 182l209 -30zM549 91h-264l-33 -91h-267l299 700h266l301 -700h-269zM473 298l-57 154l-56 -154h113z" glyph-name="Aacute" unicode="Á" horiz-adv-x="836"/>
<glyph d="M348 763l-136 46l96 160h225l96 -160l-140 -45l-68 128zM549 91h-264l-33 -91h-267l299 700h266l301 -700h-269zM473 298l-57 154l-56 -154h113z" glyph-name="Acircumflex" unicode="Â" horiz-adv-x="836"/>
<glyph d="M354 787q-30 0 -45 -42l-109 48q14 59 53 94.5t95 35.5q26 0 50.5 -8.5t39.5 -19t31 -19t27 -8.5q27 0 40 41l111 -47q-12 -60 -49 -95t-95 -35q-38 0 -85.5 27.5t-63.5 27.5zM549 91h-264l-33 -91h-267l299 700h266l301 -700h-269zM473 298l-57 154l-56 -154h113z" glyph-name="Atilde" unicode="Ã" horiz-adv-x="836"/>
<glyph d="M315 775q-34 0 -58.5 24t-24.5 59t24.5 57.5t58.5 22.5t58 -22.5t24 -57.5q0 -36 -24 -59.5t-58 -23.5zM529 775q-34 0 -58.5 24t-24.5 59t24.5 57.5t58.5 22.5t58 -22.5t24 -57.5q0 -36 -24 -59.5t-58 -23.5zM549 91h-264l-33 -91h-267l299 700h266l301 -700h-269z M473 298l-57 154l-56 -154h113z" glyph-name="Adieresis" unicode="Ä" horiz-adv-x="836"/>
<glyph d="M420 731q-71 0 -119 36t-48 103q0 61 49 99t118 38q70 0 119 -38t49 -99q0 -67 -48 -103t-120 -36zM418 902q-13 0 -22.5 -8t-9.5 -22q0 -31 34 -31q14 0 24 8t10 23q0 30 -36 30zM549 91h-264l-33 -91h-267l299 700h266l301 -700h-269zM473 298l-57 154l-56 -154h113z " glyph-name="Aring" unicode="Å" horiz-adv-x="836"/>
<glyph d="M1145 218v-218h-605v97h-195l-53 -97h-303l418 700h718v-218h-307v-54h231v-154h-231v-56h327zM540 305v151l-82 -151h82z" glyph-name="AE" unicode="Æ" horiz-adv-x="1175"/>
<glyph d="M611 249l90 -201q-93 -56 -204 -67l-72 -200l-160 59l88 147q-141 25 -234.5 119t-93.5 244q0 169 119 270.5t302 101.5q136 0 254 -60l-96 -205q-64 44 -139 44q-70 0 -116.5 -38t-46.5 -109t47.5 -112t119.5 -41q80 0 142 48z" glyph-name="Ccedilla" unicode="Ç" horiz-adv-x="728"/>
<glyph d="M635 482h-307v-54h231v-154h-231v-56h327v-218h-605v700h585v-218zM479 825l-150 -66l-144 218l209 30z" glyph-name="Egrave" unicode="È" horiz-adv-x="685"/>
<glyph d="M635 482h-307v-54h231v-154h-231v-56h327v-218h-605v700h585v-218zM550 977l-144 -218l-150 66l85 182z" glyph-name="Eacute" unicode="É" horiz-adv-x="685"/>
<glyph d="M635 482h-307v-54h231v-154h-231v-56h327v-218h-605v700h585v-218zM427 764l-68 128l-73 -129l-136 46l96 160h225l96 -160z" glyph-name="Ecircumflex" unicode="Ê" horiz-adv-x="685"/>
<glyph d="M243 938q34 0 58 -22.5t24 -57.5q0 -36 -24 -59.5t-58 -23.5t-58.5 24t-24.5 59t24.5 57.5t58.5 22.5zM457 938q34 0 58 -22.5t24 -57.5q0 -36 -24 -59.5t-58 -23.5t-58.5 24t-24.5 59t24.5 57.5t58.5 22.5zM635 482h-307v-54h231v-154h-231v-56h327v-218h-605v700h585 v-218z" glyph-name="Edieresis" unicode="Ë" horiz-adv-x="685"/>
<glyph d="M328 0h-278v700h278v-700zM299 825l-150 -66l-144 218l209 30z" glyph-name="Igrave" unicode="Ì" horiz-adv-x="378"/>
<glyph d="M328 0h-278v700h278v-700zM385 977l-144 -218l-150 66l85 182z" glyph-name="Iacute" unicode="Í" horiz-adv-x="378"/>
<glyph d="M258 734l-68 128l-73 -129l-136 46l96 160h225l96 -160zM328 0h-278v700h278v-700z" glyph-name="Icircumflex" unicode="Î" horiz-adv-x="378"/>
<glyph d="M94 938q34 0 58 -22.5t24 -57.5q0 -36 -24 -59.5t-58 -23.5t-58.5 24t-24.5 59t24.5 57.5t58.5 22.5zM308 938q34 0 58 -22.5t24 -57.5q0 -36 -24 -59.5t-58 -23.5t-58.5 24t-24.5 59t24.5 57.5t58.5 22.5zM328 0h-278v700h278v-700z" glyph-name="Idieresis" unicode="Ï" horiz-adv-x="378"/>
<glyph d="M330 704q226 -4 339.5 -89t113.5 -260q0 -187 -133.5 -274t-419.5 -87q-65 0 -162 6v292h-60v159h60v249q147 6 262 4zM380 224q51 7 87.5 39t36.5 94q0 108 -124 123q-16 2 -34 2v-31h67v-159h-67v-70q20 0 34 2z" glyph-name="Eth" unicode="Ð" horiz-adv-x="808"/>
<glyph d="M808 0h-268l-212 280v-280h-278v700h268l212 -298v298h278v-700zM353 923q26 0 50.5 -8.5t39.5 -19t31 -19t27 -8.5q27 0 40 41l111 -47q-12 -60 -49 -95t-95 -35q-38 0 -85.5 27.5t-63.5 27.5q-30 0 -45 -42l-109 48q14 59 53 94.5t95 35.5z" glyph-name="Ntilde" unicode="Ñ" horiz-adv-x="858"/>
<glyph d="M447 713q84 0 160 -24.5t135 -70t93.5 -116.5t34.5 -159q0 -169 -119 -270t-302 -101q-117 0 -212 41.5t-153.5 127t-58.5 200.5t58.5 201t153 128.5t210.5 42.5zM448 495q-62 0 -103.5 -44t-41.5 -107t41 -108.5t103 -45.5t103.5 45t41.5 108q0 62 -40.5 107t-103.5 45z M573 825l-150 -66l-144 218l209 30z" glyph-name="Ograve" unicode="Ò" horiz-adv-x="895"/>
<glyph d="M447 713q84 0 160 -24.5t135 -70t93.5 -116.5t34.5 -159q0 -169 -119 -270t-302 -101q-117 0 -212 41.5t-153.5 127t-58.5 200.5t58.5 201t153 128.5t210.5 42.5zM448 495q-62 0 -103.5 -44t-41.5 -107t41 -108.5t103 -45.5t103.5 45t41.5 108q0 62 -40.5 107t-103.5 45z M630 997l-144 -218l-150 66l85 182z" glyph-name="Oacute" unicode="Ó" horiz-adv-x="895"/>
<glyph d="M447 713q84 0 160 -24.5t135 -70t93.5 -116.5t34.5 -159q0 -169 -119 -270t-302 -101q-117 0 -212 41.5t-153.5 127t-58.5 200.5t58.5 201t153 128.5t210.5 42.5zM448 495q-62 0 -103.5 -44t-41.5 -107t41 -108.5t103 -45.5t103.5 45t41.5 108q0 62 -40.5 107t-103.5 45z M517 764l-68 128l-73 -129l-136 46l96 160h225l96 -160z" glyph-name="Ocircumflex" unicode="Ô" horiz-adv-x="895"/>
<glyph d="M447 713q84 0 160 -24.5t135 -70t93.5 -116.5t34.5 -159q0 -169 -119 -270t-302 -101q-117 0 -212 41.5t-153.5 127t-58.5 200.5t58.5 201t153 128.5t210.5 42.5zM448 495q-62 0 -103.5 -44t-41.5 -107t41 -108.5t103 -45.5t103.5 45t41.5 108q0 62 -40.5 107t-103.5 45z M376 923q26 0 50.5 -8.5t39.5 -19t31 -19t27 -8.5q27 0 40 41l111 -47q-12 -60 -49 -95t-95 -35q-38 0 -85.5 27.5t-63.5 27.5q-30 0 -45 -42l-109 48q14 59 53 94.5t95 35.5z" glyph-name="Otilde" unicode="Õ" horiz-adv-x="895"/>
<glyph d="M343 938q34 0 58 -22.5t24 -57.5q0 -36 -24 -59.5t-58 -23.5t-58.5 24t-24.5 59t24.5 57.5t58.5 22.5zM557 938q34 0 58 -22.5t24 -57.5q0 -36 -24 -59.5t-58 -23.5t-58.5 24t-24.5 59t24.5 57.5t58.5 22.5zM447 713q84 0 160 -24.5t135 -70t93.5 -116.5t34.5 -159 q0 -169 -119 -270t-302 -101q-117 0 -212 41.5t-153.5 127t-58.5 200.5t58.5 201t153 128.5t210.5 42.5zM448 495q-62 0 -103.5 -44t-41.5 -107t41 -108.5t103 -45.5t103.5 45t41.5 108q0 62 -40.5 107t-103.5 45z" glyph-name="Odieresis" unicode="Ö" horiz-adv-x="895"/>
<glyph d="M497 288l156 -157l-155 -159l-156 159l-157 -159l-155 159l156 157l-156 158l155 158l157 -158l156 158l155 -158z" glyph-name="multiply" unicode="×" horiz-adv-x="683"/>
<glyph d="M720 699l-39 -68q129 -103 129 -286q0 -170 -109 -270.5t-283 -100.5q-54 0 -107 11l-58 -101l-151 92l48 84q-125 102 -125 285q0 171 111.5 270.5t281.5 99.5q50 0 102 -11l49 86zM283 345q0 -23 6 -44l109 192q-52 -7 -83.5 -49.5t-31.5 -98.5zM546 395l-114 -199 q55 5 88 48t33 101q0 22 -7 50z" glyph-name="Oslash" unicode="Ø" horiz-adv-x="835"/>
<glyph d="M776 700v-410q0 -149 -105 -234.5t-256 -85.5q-67 0 -130.5 18t-119 54t-89 98.5t-33.5 142.5v417h278v-403q0 -38 23.5 -63.5t64.5 -25.5t65 25.5t24 63.5v403h278zM529 825l-150 -66l-144 218l209 30z" glyph-name="Ugrave" unicode="Ù" horiz-adv-x="819"/>
<glyph d="M776 700v-410q0 -149 -105 -234.5t-256 -85.5q-67 0 -130.5 18t-119 54t-89 98.5t-33.5 142.5v417h278v-403q0 -38 23.5 -63.5t64.5 -25.5t65 25.5t24 63.5v403h278zM571 977l-144 -218l-150 66l85 182z" glyph-name="Uacute" unicode="Ú" horiz-adv-x="819"/>
<glyph d="M776 700v-410q0 -149 -105 -234.5t-256 -85.5q-67 0 -130.5 18t-119 54t-89 98.5t-33.5 142.5v417h278v-403q0 -38 23.5 -63.5t64.5 -25.5t65 25.5t24 63.5v403h278zM466 768l-68 128l-73 -129l-136 46l96 160h225l96 -160z" glyph-name="Ucircumflex" unicode="Û" horiz-adv-x="819"/>
<glyph d="M291 938q34 0 58 -22.5t24 -57.5q0 -36 -24 -59.5t-58 -23.5t-58.5 24t-24.5 59t24.5 57.5t58.5 22.5zM505 938q34 0 58 -22.5t24 -57.5q0 -36 -24 -59.5t-58 -23.5t-58.5 24t-24.5 59t24.5 57.5t58.5 22.5zM776 700v-410q0 -149 -105 -234.5t-256 -85.5q-67 0 -130.5 18 t-119 54t-89 98.5t-33.5 142.5v417h278v-403q0 -38 23.5 -63.5t64.5 -25.5t65 25.5t24 63.5v403h278z" glyph-name="Udieresis" unicode="Ü" horiz-adv-x="819"/>
<glyph d="M562 243v-243h-314v259l-276 441h315l124 -216l120 216h315zM592 997l-144 -218l-150 66l85 182z" glyph-name="Yacute" unicode="Ý" horiz-adv-x="817"/>
<glyph d="M328 630h30q57 0 106.5 -8.5t94.5 -28t76.5 -49.5t50 -76.5t18.5 -106.5q0 -62 -20.5 -111.5t-51.5 -80t-73.5 -52.5t-79 -32.5t-76.5 -15.5q-48 -6 -75 -6v-63h-278v697l278 3v-70zM328 405v-124q16 -1 32 4q51 16 51 60q0 45 -51 57q-15 3 -32 3z" glyph-name="Thorn" unicode="Þ" horiz-adv-x="721"/>
<glyph d="M327 785q91 0 166 -28t123.5 -87.5t48.5 -142.5q0 -46 -17 -75t-37 -37.5t-37 -15.5t-17 -14q0 -6 4 -9.5t12.5 -5.5t17 -2.5t24 -2t26.5 -2.5q31 -4 57.5 -14t53 -29.5t41.5 -53.5t15 -80q0 -95 -75 -145t-192 -50q-108 0 -207 42l41 179q80 -34 149 -34q44 0 44 14 q0 5 -4.5 8.5t-13.5 5.5t-18.5 3.5t-25 3.5t-27.5 5q-24 5 -41.5 10.5t-39 17t-35 26t-23 38.5t-9.5 54q0 40 9.5 69t22.5 43.5t26.5 24t23 16.5t9.5 15q0 13 -21 24.5t-50 9.5q-23 -2 -36.5 -16t-13.5 -40v-510h-258v534q0 127 80.5 189t203.5 62z" glyph-name="germandbls" unicode="ß" horiz-adv-x="813"/>
<glyph d="M687 538v-538h-250l-8 52q-64 -60 -154 -60q-101 0 -179 75t-78 210q0 69 23 122.5t60.5 84t80.5 45.5t88 15q88 0 161 -54l9 48h247zM362 366q-33 0 -56 -24t-23 -67q0 -42 22 -68.5t57 -26.5q31 0 60 24l-1 138q-27 24 -59 24zM536 683l-150 -66l-144 218l209 30z" glyph-name="agrave" unicode="à"/>
<glyph d="M687 538v-538h-250l-8 52q-64 -60 -154 -60q-101 0 -179 75t-78 210q0 69 23 122.5t60.5 84t80.5 45.5t88 15q88 0 161 -54l9 48h247zM362 366q-33 0 -56 -24t-23 -67q0 -42 22 -68.5t57 -26.5q31 0 60 24l-1 138q-27 24 -59 24zM569 855l-144 -218l-150 66l85 182z" glyph-name="aacute" unicode="á"/>
<glyph d="M687 538v-538h-250l-8 52q-64 -60 -154 -60q-101 0 -179 75t-78 210q0 69 23 122.5t60.5 84t80.5 45.5t88 15q88 0 161 -54l9 48h247zM362 366q-33 0 -56 -24t-23 -67q0 -42 22 -68.5t57 -26.5q31 0 60 24l-1 138q-27 24 -59 24zM456 622l-68 128l-73 -129l-136 46 l96 160h225l96 -160z" glyph-name="acircumflex" unicode="â"/>
<glyph d="M687 538v-538h-250l-8 52q-64 -60 -154 -60q-101 0 -179 75t-78 210q0 69 23 122.5t60.5 84t80.5 45.5t88 15q88 0 161 -54l9 48h247zM362 366q-33 0 -56 -24t-23 -67q0 -42 22 -68.5t57 -26.5q31 0 60 24l-1 138q-27 24 -59 24zM315 781q26 0 50.5 -8.5t39.5 -19t31 -19 t27 -8.5q27 0 40 41l111 -47q-12 -60 -49 -95t-95 -35q-38 0 -85.5 27.5t-63.5 27.5q-30 0 -45 -42l-109 48q14 59 53 94.5t95 35.5z" glyph-name="atilde" unicode="ã"/>
<glyph d="M282 796q34 0 58 -22.5t24 -57.5q0 -36 -24 -59.5t-58 -23.5t-58.5 24t-24.5 59t24.5 57.5t58.5 22.5zM496 796q34 0 58 -22.5t24 -57.5q0 -36 -24 -59.5t-58 -23.5t-58.5 24t-24.5 59t24.5 57.5t58.5 22.5zM687 538v-538h-250l-8 52q-64 -60 -154 -60q-101 0 -179 75 t-78 210q0 69 23 122.5t60.5 84t80.5 45.5t88 15q88 0 161 -54l9 48h247zM362 366q-33 0 -56 -24t-23 -67q0 -42 22 -68.5t57 -26.5q31 0 60 24l-1 138q-27 24 -59 24z" glyph-name="adieresis" unicode="ä"/>
<glyph d="M687 538v-538h-250l-8 52q-64 -60 -154 -60q-101 0 -179 75t-78 210q0 69 23 122.5t60.5 84t80.5 45.5t88 15q88 0 161 -54l9 48h247zM362 366q-33 0 -56 -24t-23 -67q0 -42 22 -68.5t57 -26.5q31 0 60 24l-1 138q-27 24 -59 24zM387 865q70 0 119 -38t49 -99 q0 -67 -48 -103t-120 -36q-71 0 -119 36t-48 103q0 61 49 99t118 38zM385 760q-13 0 -22.5 -8t-9.5 -22q0 -31 34 -31q14 0 24 8t10 23q0 30 -36 30z" glyph-name="aring" unicode="å"/>
<glyph d="M772 557q70 0 129 -19t96 -50.5t62 -72.5t28 -84t-7 -86h-379q13 -34 45 -52.5t75 -18.5q73 0 140 51l94 -151q-114 -88 -275 -88q-185 0 -287 105q-82 -99 -208 -99q-50 0 -96.5 18t-85.5 52t-62 89.5t-23 125.5q0 69 23.5 122.5t62 84t83.5 45.5t93 15q124 0 215 -92 q100 105 277 105zM702 332h129q-2 20 -19.5 34t-42.5 14q-48 0 -67 -48zM362 180q31 0 60 24l-1 138q-27 24 -59 24q-33 0 -56 -24t-23 -67q0 -42 22 -68.5t57 -26.5z" glyph-name="ae" unicode="æ" horiz-adv-x="1107"/>
<glyph d="M489 244l110 -186q-97 -66 -206 -76l-66 -183l-160 59l81 135q-101 26 -165.5 97t-64.5 178q0 95 49.5 163.5t122 99t155.5 30.5q134 0 258 -85l-111 -180q-47 55 -113 55q-42 0 -69 -23t-27 -58t26.5 -57.5t65.5 -22.5q63 0 114 54z" glyph-name="ccedilla" unicode="ç" horiz-adv-x="623"/>
<glyph d="M333 628l-144 218l209 30l85 -182zM367 557q70 0 129 -19t96 -50.5t62 -72.5t28 -84t-7 -86h-379q13 -34 45 -52.5t75 -18.5q73 0 140 51l94 -151q-114 -88 -275 -88q-98 0 -178.5 32.5t-129.5 98t-49 152.5q0 129 99 208.5t250 79.5zM297 332h129q-2 20 -19.5 34 t-42.5 14q-48 0 -67 -48z" glyph-name="egrave" unicode="è" horiz-adv-x="697"/>
<glyph d="M395 624l-150 66l85 182l209 -30zM367 557q70 0 129 -19t96 -50.5t62 -72.5t28 -84t-7 -86h-379q13 -34 45 -52.5t75 -18.5q73 0 140 51l94 -151q-114 -88 -275 -88q-98 0 -178.5 32.5t-129.5 98t-49 152.5q0 129 99 208.5t250 79.5zM297 332h129q-2 20 -19.5 34 t-42.5 14q-48 0 -67 -48z" glyph-name="eacute" unicode="é" horiz-adv-x="697"/>
<glyph d="M280 601l-136 46l96 160h225l96 -160l-140 -45l-68 128zM367 557q70 0 129 -19t96 -50.5t62 -72.5t28 -84t-7 -86h-379q13 -34 45 -52.5t75 -18.5q73 0 140 51l94 -151q-114 -88 -275 -88q-98 0 -178.5 32.5t-129.5 98t-49 152.5q0 129 99 208.5t250 79.5zM297 332h129 q-2 20 -19.5 34t-42.5 14q-48 0 -67 -48z" glyph-name="ecircumflex" unicode="ê" horiz-adv-x="697"/>
<glyph d="M246 629q-34 0 -58.5 24t-24.5 59t24.5 57.5t58.5 22.5t58 -22.5t24 -57.5q0 -36 -24 -59.5t-58 -23.5zM460 629q-34 0 -58.5 24t-24.5 59t24.5 57.5t58.5 22.5t58 -22.5t24 -57.5q0 -36 -24 -59.5t-58 -23.5zM367 557q70 0 129 -19t96 -50.5t62 -72.5t28 -84t-7 -86 h-379q13 -34 45 -52.5t75 -18.5q73 0 140 51l94 -151q-114 -88 -275 -88q-98 0 -178.5 32.5t-129.5 98t-49 152.5q0 129 99 208.5t250 79.5zM297 332h129q-2 20 -19.5 34t-42.5 14q-48 0 -67 -48z" glyph-name="edieresis" unicode="ë" horiz-adv-x="697"/>
<glyph d="M306 0h-266v538h266v-538zM315 663l-150 -66l-144 218l209 30z" glyph-name="igrave" unicode="ì" horiz-adv-x="346"/>
<glyph d="M306 0h-266v538h266v-538zM348 835l-144 -218l-150 66l85 182z" glyph-name="iacute" unicode="í" horiz-adv-x="346"/>
<glyph d="M235 602l-68 128l-73 -129l-136 46l96 160h225l96 -160zM306 0h-266v538h266v-538z" glyph-name="icircumflex" unicode="î" horiz-adv-x="346"/>
<glyph d="M61 776q34 0 58 -22.5t24 -57.5q0 -36 -24 -59.5t-58 -23.5t-58.5 24t-24.5 59t24.5 57.5t58.5 22.5zM275 776q34 0 58 -22.5t24 -57.5q0 -36 -24 -59.5t-58 -23.5t-58.5 24t-24.5 59t24.5 57.5t58.5 22.5zM306 0h-266v538h266v-538z" glyph-name="idieresis" unicode="ï" horiz-adv-x="346"/>
<glyph d="M680 373q17 -161 -76.5 -266t-239.5 -118q-133 -13 -230 57t-105 178q-8 95 54 165t156 74q77 3 147 -41q-63 84 -202 97l65 220q74 -9 149 -34l64 86l198 -139l-61 -82q70 -85 81 -197zM345 213q20 2 37.5 16t27.5 37q-37 38 -73 36q-20 -1 -32.5 -13.5t-12.5 -30.5 q0 -21 16 -34t37 -11z" glyph-name="eth" unicode="ð" horiz-adv-x="674"/>
<glyph d="M289 806q34 0 63.5 -14t50.5 -27.5t34 -13.5q27 0 40 41l111 -47q-12 -60 -49 -95t-95 -35q-38 0 -85.5 27.5t-63.5 27.5q-30 0 -45 -42l-109 48q14 59 53 94.5t95 35.5zM459 544q86 0 152 -55t66 -147v-342h-266l1 302q0 27 -13 42.5t-35 15.5q-36 0 -66 -35l-1 -325 h-265v538h249l10 -57q72 63 168 63z" glyph-name="ntilde" unicode="ñ" horiz-adv-x="702"/>
<glyph d="M361 555q149 0 244.5 -76t95.5 -209q0 -135 -96 -209t-244 -74q-155 0 -249 77t-94 206q0 127 93 206t250 79zM361 345q-34 0 -56 -20.5t-22 -54.5q0 -35 21.5 -54t56.5 -19t55 19.5t20 53.5t-20.5 54.5t-54.5 20.5zM510 663l-150 -66l-144 218l209 30z" glyph-name="ograve" unicode="ò"/>
<glyph d="M361 555q149 0 244.5 -76t95.5 -209q0 -135 -96 -209t-244 -74q-155 0 -249 77t-94 206q0 127 93 206t250 79zM361 345q-34 0 -56 -20.5t-22 -54.5q0 -35 21.5 -54t56.5 -19t55 19.5t20 53.5t-20.5 54.5t-54.5 20.5zM543 835l-144 -218l-150 66l85 182z" glyph-name="oacute" unicode="ó"/>
<glyph d="M361 555q149 0 244.5 -76t95.5 -209q0 -135 -96 -209t-244 -74q-155 0 -249 77t-94 206q0 127 93 206t250 79zM361 345q-34 0 -56 -20.5t-22 -54.5q0 -35 21.5 -54t56.5 -19t55 19.5t20 53.5t-20.5 54.5t-54.5 20.5zM430 602l-68 128l-73 -129l-136 46l96 160h225 l96 -160z" glyph-name="ocircumflex" unicode="ô"/>
<glyph d="M361 555q149 0 244.5 -76t95.5 -209q0 -135 -96 -209t-244 -74q-155 0 -249 77t-94 206q0 127 93 206t250 79zM361 345q-34 0 -56 -20.5t-22 -54.5q0 -35 21.5 -54t56.5 -19t55 19.5t20 53.5t-20.5 54.5t-54.5 20.5zM289 761q26 0 50.5 -8.5t39.5 -19t31 -19t27 -8.5 q27 0 40 41l111 -47q-12 -60 -49 -95t-95 -35q-38 0 -85.5 27.5t-63.5 27.5q-30 0 -45 -42l-109 48q14 59 53 94.5t95 35.5z" glyph-name="otilde" unicode="õ"/>
<glyph d="M256 776q34 0 58 -22.5t24 -57.5q0 -36 -24 -59.5t-58 -23.5t-58.5 24t-24.5 59t24.5 57.5t58.5 22.5zM470 776q34 0 58 -22.5t24 -57.5q0 -36 -24 -59.5t-58 -23.5t-58.5 24t-24.5 59t24.5 57.5t58.5 22.5zM361 555q149 0 244.5 -76t95.5 -209q0 -135 -96 -209t-244 -74 q-155 0 -249 77t-94 206q0 127 93 206t250 79zM361 345q-34 0 -56 -20.5t-22 -54.5q0 -35 21.5 -54t56.5 -19t55 19.5t20 53.5t-20.5 54.5t-54.5 20.5z" glyph-name="odieresis" unicode="ö"/>
<glyph d="M324 393h-2q-31 0 -57 25t-26 58q0 35 26 61.5t59 26.5q35 0 60.5 -26t25.5 -62q0 -34 -25.5 -58.5t-60.5 -24.5zM593 225h-541v117h541v-117zM323 176h2q32 0 57.5 -25t25.5 -59t-26 -61t-59 -27q-35 0 -60.5 27t-25.5 61t25.5 59t60.5 25z" glyph-name="divide" unicode="÷" horiz-adv-x="645"/>
<glyph d="M564 556l-31 -57q125 -81 125 -229q0 -133 -92 -206.5t-227 -73.5q-43 0 -78 7l-39 -73l-119 54l36 66q-57 37 -89 95t-32 131q0 122 89 202t232 80q37 0 71 -6l35 65zM228 270q0 -24 8 -46l85 158q-41 -5 -67 -34.5t-26 -77.5zM437 322l-88 -164q45 4 71.5 34t26.5 78 q0 31 -10 52z" glyph-name="oslash" unicode="ø" horiz-adv-x="676"/>
<glyph d="M616 0h-237l-13 41q-73 -58 -154 -58q-82 0 -135 58t-53 155v342h242v-334q0 -16 10.5 -26t28.5 -10q27 0 52 20v350h260zM446 687l-150 -66l-144 218l209 30z" glyph-name="ugrave" unicode="ù" horiz-adv-x="649"/>
<glyph d="M616 0h-237l-13 41q-73 -58 -154 -58q-82 0 -135 58t-53 155v342h242v-334q0 -16 10.5 -26t28.5 -10q27 0 52 20v350h260zM502 831l-144 -218l-150 66l85 182z" glyph-name="uacute" unicode="ú" horiz-adv-x="649"/>
<glyph d="M616 0h-237l-13 41q-73 -58 -154 -58q-82 0 -135 58t-53 155v342h242v-334q0 -16 10.5 -26t28.5 -10q27 0 52 20v350h260zM387 611l-68 128l-73 -129l-136 46l96 160h225l96 -160z" glyph-name="ucircumflex" unicode="û" horiz-adv-x="649"/>
<glyph d="M209 809q34 0 58 -22.5t24 -57.5q0 -36 -24 -59.5t-58 -23.5t-58.5 24t-24.5 59t24.5 57.5t58.5 22.5zM423 809q34 0 58 -22.5t24 -57.5q0 -36 -24 -59.5t-58 -23.5t-58.5 24t-24.5 59t24.5 57.5t58.5 22.5zM616 0h-237l-13 41q-73 -58 -154 -58q-82 0 -135 58t-53 155 v342h242v-334q0 -16 10.5 -26t28.5 -10q27 0 52 20v350h260z" glyph-name="udieresis" unicode="ü" horiz-adv-x="649"/>
<glyph d="M394 617l-150 66l85 182l209 -30zM724 538l-371 -842h-255l143 324l-255 518h268l116 -261l106 261h248z" glyph-name="yacute" unicode="ý" horiz-adv-x="710"/>
<glyph d="M310 700v-202q71 48 154 48q95 0 163.5 -71.5t68.5 -213.5q0 -73 -20 -127.5t-54 -83.5t-71.5 -42.5t-79.5 -13.5q-45 0 -89.5 12.5t-71.5 29.5v-230h-265v894h265zM306 334v-143q24 -19 55 -19q29 0 49.5 21.5t20.5 69.5q0 43 -17.5 69t-49.5 26t-58 -24z" glyph-name="thorn" unicode="þ" horiz-adv-x="714"/>
<glyph d="M330 704q226 -4 339.5 -89t113.5 -260q0 -187 -133.5 -274t-419.5 -87q-65 0 -162 6v292h-60v159h60v249q147 6 262 4zM380 224q51 7 87.5 39t36.5 94q0 108 -124 123q-16 2 -34 2v-31h67v-159h-67v-70q20 0 34 2z" glyph-name="Dcroat" unicode="Đ" horiz-adv-x="808"/>
<glyph d="M306 0h-266v538h266v-538z" glyph-name="dotlessi" unicode="ı" horiz-adv-x="346"/>
<glyph d="M328 218h268v-218h-546v700h278v-482z" glyph-name="Lcaron" unicode="Ľ" horiz-adv-x="601"/>
<glyph d="M511 734l-68 128l-73 -129l-136 46l96 160h225l96 -160z" glyph-name="circumflex" unicode="ˆ" horiz-adv-x="693"/>
<glyph d="M363 938q34 0 58 -22.5t24 -57.5q0 -36 -24 -59.5t-58 -23.5t-58.5 24t-24.5 59t24.5 57.5t58.5 22.5z" glyph-name="dotaccent" unicode="˙" horiz-adv-x="613"/>
<glyph d="M420 1007q70 0 119 -38t49 -99q0 -67 -48 -103t-120 -36q-71 0 -119 36t-48 103q0 61 49 99t118 38zM418 902q-13 0 -22.5 -8t-9.5 -22q0 -31 34 -31q14 0 24 8t10 23q0 30 -36 30z" glyph-name="ring" unicode="˚" horiz-adv-x="670"/>
<glyph d="M370 923q26 0 50.5 -8.5t39.5 -19t31 -19t27 -8.5q27 0 40 41l111 -47q-12 -60 -49 -95t-95 -35q-38 0 -85.5 27.5t-63.5 27.5q-30 0 -45 -42l-109 48q14 59 53 94.5t95 35.5z" glyph-name="tilde" unicode="˜" horiz-adv-x="695"/>
<glyph d="M119 207q55 0 91 -39.5t36 -97.5q0 -78 -62 -137.5t-155 -60.5l4 65q26 2 47.5 19.5t28.5 46.5q-37 -8 -70.5 18.5t-33.5 75.5q0 47 32.5 78.5t81.5 31.5z" glyph-name="quotesinglbase" unicode="‚" horiz-adv-x="255"/>
<glyph d="M258 270l214 -270h-258l-219 270l216 268h258z" glyph-name="guilsinglleft" unicode="‹" horiz-adv-x="466"/>
<glyph d="M276 538l216 -268l-219 -270h-258l214 270l-211 268h258z" glyph-name="guilsinglright" unicode="›" horiz-adv-x="502"/>
<glyph d="M246 0h-222l448 700h222z" glyph-name="fraction" unicode="⁄" horiz-adv-x="600"/>
<glyph d="M655 225h-575v200h575v-200z" glyph-name="minus" unicode="−" horiz-adv-x="735"/>
<glyph d="M262 327h-159v213l-36 -22l-62 110l119 71h138v-372z" glyph-name="one.numr" horiz-adv-x="327"/>
<glyph d="M338 492h43v-117h-43v-57h-153v57h-180v105l151 218h182v-206zM138 483h60v81z" glyph-name="four.numr" horiz-adv-x="391"/>
</font>
</defs>
</svg>
